<svg width="88" height="51" viewBox="0 0 88 51" fill="none" xmlns="http://www.w3.org/2000/svg">
<mask id="mask0_725_601" style="mask-type:luminance" maskUnits="userSpaceOnUse" x="0" y="0" width="88" height="51">
<path d="M87.3202 0.930176H0.910156V50.7202H87.3202V0.930176Z" fill="white"/>
</mask>
<g mask="url(#mask0_725_601)">
<path d="M55.65 7.66002C56.1 10.08 60.29 11.21 63.54 11.51C66.69 11.8 69.95 11.49 73.17 11.19C75.35 10.99 77.59 10.8 79.68 11.13C84.73 11.93 87.6 15.71 87.31 19.36C87.02 23.01 84.21 26.49 80.96 29.55C73.54 36.53 63.47 42.1 52.57 46.27C48.67 47.77 44.61 49.1 40.36 49.87C34.4 50.95 28.25 50.87 22.33 50.31C19.01 50 15.69 49.53 12.71 48.57C3.93998 45.76 -0.880032 38.44 1.53997 31.61C2.72997 28.26 5.40998 25.18 8.21998 22.24C15.97 14.12 25.59 6.21001 38.37 2.32001C42.44 1.08001 47.17 0.30001 50.94 1.53001C54.71 2.79001 55.17 5.06002 55.65 7.66002Z" fill="#C7E8F5"/>
</g>
<mask id="mask1_725_601" style="mask-type:luminance" maskUnits="userSpaceOnUse" x="0" y="0" width="88" height="51">
<path d="M87.3202 0.930176H0.910156V50.7202H87.3202V0.930176Z" fill="white"/>
</mask>
<g mask="url(#mask1_725_601)">
<path d="M71.2305 41.3003H62.2305V36.8003C62.2305 29.6103 53.1205 23.3003 42.7305 23.3003C32.3405 23.3003 23.2305 29.6103 23.2305 36.8003V41.3003H14.2305V13.7003L14.5105 13.5603C17.7805 11.9803 27.0805 8.30029 42.7305 8.30029C58.2905 8.30029 67.6505 11.9803 70.9505 13.5603L71.2305 13.6903V41.3003ZM74.2305 12.8003C74.2305 12.2803 73.9505 11.7803 73.5005 11.5103C73.0705 11.2503 62.8905 5.30029 42.7305 5.30029C22.5405 5.30029 12.3805 11.2603 11.9605 11.5103C11.5105 11.7803 11.2305 12.2703 11.2305 12.8003V42.8003C11.2305 43.6303 11.9005 44.3003 12.7305 44.3003H24.7305C25.5605 44.3003 26.2305 43.6303 26.2305 42.8003V36.8003C26.2305 31.9503 33.4405 26.3003 42.7305 26.3003C52.0205 26.3003 59.2305 31.9503 59.2305 36.8003V42.8003C59.2305 43.6303 59.9005 44.3003 60.7305 44.3003H72.7305C73.5605 44.3003 74.2305 43.6303 74.2305 42.8003V12.8003Z" fill="black"/>
</g>
<path d="M42.7297 6.99023V24.8002M24.3897 10.3302L32.6397 25.4702M61.0697 10.3302L52.8197 25.4702M72.0197 25.4502L60.0397 32.3702M13.4297 25.4502L25.4097 32.3702" stroke="black" stroke-width="3" stroke-miterlimit="10" stroke-linecap="round"/>
</svg>
