<svg width="94" height="76" viewBox="0 0 94 76" fill="none" xmlns="http://www.w3.org/2000/svg">
<path d="M51.9801 74.7301C72.7701 70.8901 88.2901 55.2701 89.6501 36.2201C90.3701 26.1501 87.0601 15.3801 74.3201 7.10007C51.5501 -7.68993 34.8601 6.29007 26.8001 16.1901C22.9001 20.9701 18.2701 25.2301 13.0401 28.8501C3.64009 35.3701 -8.22991 48.1701 8.92009 64.7401C21.3401 76.7501 38.1301 77.2901 51.9801 74.7301Z" fill="#F9CBAF"/>
<path d="M15.0497 21.77C13.3197 21.73 12.2197 20.62 12.2197 18.94V11.72C12.2597 9.99002 13.3697 8.89001 15.0497 8.89001H48.3798C50.1098 8.93001 51.2098 10.04 51.2098 11.72V18.95V18.96C51.1698 20.67 50.0598 21.77 48.3798 21.77H15.0497ZM48.3398 11.37H15.0397C14.8397 11.37 14.7698 11.41 14.7698 11.41C14.7598 11.42 14.7098 11.52 14.7098 11.73V18.93C14.7098 19.13 14.7498 19.2 14.7498 19.2C14.7598 19.21 14.8598 19.26 15.0698 19.26H48.3698C48.5698 19.26 48.6398 19.22 48.6398 19.22C48.6498 19.21 48.6998 19.11 48.6998 18.9V11.7C48.6998 11.5 48.6597 11.43 48.6597 11.43C48.6497 11.43 48.5498 11.38 48.3398 11.37Z" fill="#231F20"/>
<path d="M56.8205 21.77C55.0905 21.73 53.9805 20.62 53.9805 18.94V11.72C54.0205 9.99002 55.1305 8.89001 56.8105 8.89001H90.8905C92.6205 8.92001 93.7205 10.04 93.7205 11.72V18.95V18.96C93.6805 20.67 92.5705 21.77 90.8905 21.77H56.8205ZM90.8705 11.37H56.8205C56.6205 11.37 56.5505 11.41 56.5505 11.41C56.5405 11.42 56.4905 11.52 56.4905 11.73V18.92C56.4905 19.12 56.5305 19.19 56.5305 19.19C56.5405 19.2 56.6405 19.25 56.8505 19.25H90.9005C91.1005 19.25 91.1705 19.21 91.1705 19.21C91.1805 19.2 91.2305 19.1 91.2305 18.89V11.69C91.2305 11.49 91.1905 11.42 91.1905 11.42C91.1705 11.42 91.0705 11.37 90.8705 11.37Z" fill="#231F20"/>
<path d="M37.1796 36.2001C35.4496 36.1601 34.3496 35.0501 34.3496 33.3701V27.9501C34.3896 26.2201 35.4996 25.1201 37.1796 25.1201H68.8196C70.5496 25.1601 71.6497 26.2701 71.6497 27.9501V33.3701V33.3801C71.6097 35.0901 70.4996 36.1901 68.8196 36.1901L37.1796 36.2001ZM68.7996 27.6001H37.1896C36.9896 27.6001 36.9196 27.6401 36.9196 27.6401C36.9096 27.6501 36.8596 27.7501 36.8596 27.9601V33.3501C36.8596 33.5501 36.8997 33.6201 36.8997 33.6201C36.9097 33.6301 37.0096 33.6801 37.2196 33.6801H68.8297C69.0297 33.6801 69.0996 33.6401 69.0996 33.6401C69.1096 33.6301 69.1596 33.5301 69.1596 33.3201V27.9301C69.1596 27.7201 69.1196 27.6601 69.1196 27.6601C69.0996 27.6601 68.9996 27.6101 68.7996 27.6001Z" fill="#231F20"/>
<path d="M37.1796 50.9301C35.4496 50.8901 34.3496 49.7801 34.3496 48.1001V42.6801C34.3896 40.9501 35.4996 39.8501 37.1796 39.8501H68.8196C70.5496 39.8901 71.6596 41.0001 71.6596 42.6801V48.1001V48.1101C71.6196 49.8201 70.5097 50.9201 68.8297 50.9201L37.1796 50.9301ZM68.7996 42.3401H37.1896C36.9896 42.3401 36.9196 42.3801 36.9196 42.3801C36.9096 42.3901 36.8596 42.4901 36.8596 42.7001V48.0901C36.8596 48.2901 36.8997 48.3601 36.8997 48.3601C36.9097 48.3701 37.0096 48.4201 37.2196 48.4201H68.8297C69.0297 48.4201 69.0996 48.3801 69.0996 48.3801C69.1096 48.3701 69.1596 48.2701 69.1596 48.0601V42.6701C69.1596 42.4701 69.1196 42.4001 69.1196 42.4001C69.1096 42.3901 69.0096 42.3401 68.7996 42.3401Z" fill="#231F20"/>
<path d="M37.1904 65.2101C35.4604 65.1701 34.3604 64.0601 34.3604 62.3801V56.5701C34.4004 54.8401 35.5104 53.7301 37.1904 53.7301H68.8304C70.5604 53.7701 71.6603 54.8801 71.6603 56.5601V62.3801V62.3901C71.6203 64.1001 70.5104 65.2101 68.8304 65.2101H37.1904ZM68.8004 56.2301H37.1904C36.9904 56.2301 36.9203 56.2701 36.9203 56.2701C36.9103 56.2801 36.8604 56.3801 36.8604 56.5901V62.3701C36.8604 62.5701 36.9004 62.6401 36.9004 62.6401C36.9104 62.6501 37.0103 62.7001 37.2203 62.7001H68.8304C69.0304 62.7001 69.1003 62.6601 69.1003 62.6601C69.1103 62.6501 69.1603 62.5501 69.1603 62.3401V56.5501C69.1603 56.3501 69.1204 56.2801 69.1204 56.2801C69.1104 56.2801 69.0104 56.2301 68.8004 56.2301Z" fill="#231F20"/>
<path d="M15.0497 65.2101C13.3197 65.1701 12.2197 64.0601 12.2197 62.3801V56.5701C12.2597 54.8401 13.3697 53.7401 15.0497 53.7401H28.9097C30.6397 53.7701 31.7397 54.8901 31.7397 56.5701V62.3901V62.4001C31.6997 64.1101 30.5897 65.2201 28.9097 65.2201L15.0497 65.2101ZM28.8898 56.2301H15.0497C14.8497 56.2301 14.7798 56.2701 14.7798 56.2701C14.7698 56.2801 14.7197 56.3801 14.7197 56.5901V62.3701C14.7197 62.5701 14.7598 62.6401 14.7598 62.6401C14.7698 62.6501 14.8698 62.7001 15.0798 62.7001H28.9197C29.1197 62.7001 29.1898 62.6601 29.1898 62.6601C29.1998 62.6501 29.2498 62.5501 29.2498 62.3401V56.5501C29.2498 56.3501 29.2098 56.2801 29.2098 56.2801C29.1998 56.2901 29.0998 56.2401 28.8898 56.2301Z" fill="#231F20"/>
<path d="M76.9902 65.2101C75.2602 65.1801 74.1602 64.0601 74.1602 62.3801V56.5701C74.2002 54.8401 75.3102 53.7401 76.9902 53.7401H90.8502C92.5802 53.7801 93.6802 54.8901 93.6802 56.5701V62.3901V62.4001C93.6402 64.1101 92.5302 65.2201 90.8502 65.2201L76.9902 65.2101ZM90.8202 56.2301H76.9802C76.7802 56.2301 76.7102 56.2701 76.7102 56.2701C76.7002 56.2801 76.6502 56.3801 76.6502 56.5901V62.3701C76.6502 62.5701 76.6902 62.6401 76.6902 62.6401C76.7002 62.6501 76.8002 62.7001 77.0102 62.7001H90.8502C91.0502 62.7001 91.1202 62.6601 91.1202 62.6601C91.1302 62.6501 91.1802 62.5501 91.1802 62.3401V56.5501C91.1802 56.3501 91.1402 56.2801 91.1402 56.2801C91.1302 56.2801 91.0302 56.2301 90.8202 56.2301Z" fill="#231F20"/>
<path d="M15.0497 50.9301C13.3197 50.9001 12.2197 49.7801 12.2197 48.1001V28.0401C12.2597 26.3101 13.3698 25.2101 15.0598 25.2101H29.1097C30.8397 25.2501 31.9398 26.3601 31.9398 28.0401V48.1001V48.1101C31.8998 49.8201 30.7897 50.9301 29.1097 50.9301H15.0497ZM29.0698 27.7001H15.0397C14.8397 27.7001 14.7698 27.7401 14.7698 27.7401C14.7598 27.7501 14.7098 27.8501 14.7098 28.0601V48.0901C14.7098 48.3001 14.7498 48.3601 14.7498 48.3601C14.7598 48.3701 14.8598 48.4201 15.0698 48.4201H29.0997C29.2997 48.4201 29.3698 48.3801 29.3698 48.3801C29.3798 48.3701 29.4297 48.2701 29.4297 48.0601V28.0301C29.4297 27.8201 29.3898 27.7601 29.3898 27.7601C29.3798 27.7601 29.2798 27.7101 29.0698 27.7001Z" fill="#231F20"/>
<path d="M77.0605 50.9201C75.3305 50.8901 74.2305 49.7701 74.2305 48.0901V28.0301C74.2705 26.3001 75.3805 25.2001 77.0605 25.2001H90.9005C92.6305 25.2301 93.7305 26.3501 93.7305 28.0301V48.0901V48.1001C93.6905 49.8101 92.5805 50.9201 90.9005 50.9201H77.0605ZM90.8705 27.7001H77.0605C76.8605 27.7001 76.7905 27.7401 76.7905 27.7401C76.7805 27.7501 76.7305 27.8501 76.7305 28.0601V48.0901C76.7305 48.2901 76.7705 48.3601 76.7705 48.3601C76.7805 48.3701 76.8805 48.4201 77.0905 48.4201H90.9005C91.1005 48.4201 91.1705 48.3801 91.1705 48.3801C91.1805 48.3701 91.2305 48.2701 91.2305 48.0601V28.0301C91.2305 27.8301 91.1905 27.7601 91.1905 27.7601C91.1805 27.7501 91.0805 27.7001 90.8705 27.7001Z" fill="#231F20"/>
</svg>
