<svg width="72" height="66" viewBox="0 0 72 66" fill="none" xmlns="http://www.w3.org/2000/svg">
<mask id="mask0_255_31691" style="mask-type:luminance" maskUnits="userSpaceOnUse" x="0" y="0" width="72" height="66">
<path d="M71.3004 0.220215H0.860352V65.6002H71.3004V0.220215Z" fill="white"/>
</mask>
<g mask="url(#mask0_255_31691)">
<path d="M30.1706 50.1404C29.3006 47.7004 25.5206 47.2204 22.7006 47.4504C19.9706 47.6704 17.2706 48.5304 14.6006 49.3704C12.7906 49.9404 10.9206 50.5004 9.09061 50.5004C4.65061 50.5004 1.45061 47.0504 0.960609 43.2204C0.470609 39.3804 2.15061 35.3105 4.30061 31.6005C9.19061 23.1405 16.6006 15.7004 25.0106 9.57045C28.0206 7.38045 31.1906 5.32045 34.6506 3.82045C39.4906 1.72045 44.7306 0.790445 49.8506 0.390445C52.7306 0.160445 55.6406 0.100444 58.3606 0.600444C66.3706 2.07044 71.9306 8.87045 71.2506 16.3505C70.9206 20.0205 69.2606 23.6604 67.4806 27.1704C62.5406 36.8704 55.9806 46.6604 45.9106 52.8004C42.7106 54.7604 38.8506 56.3504 35.4006 55.6904C31.9506 55.0304 31.0906 52.7504 30.1706 50.1404Z" fill="#FADBD9"/>
</g>
<mask id="mask1_255_31691" style="mask-type:luminance" maskUnits="userSpaceOnUse" x="0" y="0" width="72" height="66">
<path d="M71.3004 0.220215H0.860352V65.6002H71.3004V0.220215Z" fill="white"/>
</mask>
<g mask="url(#mask1_255_31691)">
<path d="M41.0505 25.9704H53.5706L58.1306 28.5304L53.5706 31.0904H41.0505V25.9704ZM25.9805 41.3304L21.4206 38.7704L25.9805 36.2104H38.5005V41.3304H25.9805ZM27.9606 20.8604L23.4006 18.3004L27.9606 15.7404H38.5005V20.8604H27.9606ZM61.9606 28.9004C61.9706 28.8604 61.9805 28.8204 61.9905 28.7804C62.0005 28.7404 62.0106 28.7004 62.0106 28.6604C62.0106 28.6204 62.0106 28.5804 62.0106 28.5404C62.0106 28.5004 62.0106 28.4604 62.0106 28.4204C62.0106 28.3804 62.0005 28.3404 61.9905 28.3004C61.9805 28.2604 61.9806 28.2204 61.9606 28.1804C61.9506 28.1504 61.9305 28.1104 61.9205 28.0804C61.9005 28.0404 61.8805 27.9904 61.8605 27.9504C61.8605 27.9404 61.8505 27.9304 61.8505 27.9204C61.8405 27.9004 61.8205 27.8804 61.8105 27.8604C61.7805 27.8204 61.7605 27.7804 61.7205 27.7404C61.6905 27.7104 61.6706 27.6804 61.6406 27.6504C61.6106 27.6204 61.5805 27.5904 61.5505 27.5604C61.5105 27.5304 61.4705 27.5004 61.4305 27.4804C61.4105 27.4704 61.3905 27.4504 61.3605 27.4304L54.5306 23.6004C54.5106 23.5904 54.4905 23.5804 54.4705 23.5704C54.4305 23.5504 54.3905 23.5304 54.3505 23.5204C54.3105 23.5104 54.2705 23.4904 54.2405 23.4804C54.2005 23.4704 54.1605 23.4604 54.1205 23.4504C54.0805 23.4404 54.0305 23.4404 53.9905 23.4404C53.9705 23.4404 53.9405 23.4304 53.9205 23.4304H41.0605V10.1704H43.8705C44.5805 10.1704 45.1506 9.60038 45.1506 8.90038C45.1506 8.20038 44.5805 7.63037 43.8705 7.63037H35.7006C34.9906 7.63037 34.4205 8.20038 34.4205 8.90038C34.4205 9.60038 34.9906 10.1704 35.7006 10.1704H38.5106V13.2004H27.6306C27.6106 13.2004 27.5805 13.2104 27.5605 13.2104C27.5205 13.2104 27.4705 13.2204 27.4305 13.2204C27.3905 13.2304 27.3405 13.2404 27.3005 13.2504C27.2605 13.2604 27.2306 13.2704 27.1906 13.2904C27.1406 13.3104 27.1005 13.3304 27.0605 13.3504C27.0405 13.3604 27.0205 13.3704 27.0005 13.3804L20.1706 17.2104C20.1506 17.2204 20.1306 17.2404 20.1006 17.2604C20.0606 17.2904 20.0206 17.3104 19.9806 17.3404C19.9506 17.3704 19.9206 17.3904 19.8906 17.4204C19.8606 17.4504 19.8305 17.4804 19.8005 17.5104C19.7705 17.5504 19.7506 17.5804 19.7206 17.6204C19.7006 17.6404 19.6906 17.6604 19.6706 17.6904C19.6606 17.7004 19.6606 17.7104 19.6606 17.7204C19.6406 17.7604 19.6205 17.8004 19.6105 17.8404C19.6005 17.8804 19.5806 17.9104 19.5706 17.9504C19.5606 17.9904 19.5505 18.0304 19.5505 18.0704C19.5405 18.1104 19.5305 18.1504 19.5305 18.1904C19.5305 18.2304 19.5305 18.2704 19.5305 18.3104C19.5305 18.3504 19.5305 18.3904 19.5305 18.4304C19.5305 18.4704 19.5405 18.5104 19.5505 18.5504C19.5605 18.5904 19.5606 18.6304 19.5706 18.6704C19.5806 18.7104 19.6005 18.7404 19.6105 18.7804C19.6305 18.8204 19.6406 18.8704 19.6606 18.9004C19.6706 18.9104 19.6706 18.9204 19.6706 18.9304C19.6806 18.9404 19.6906 18.9604 19.7006 18.9704C19.7406 19.0404 19.7906 19.1004 19.8506 19.1604C19.8706 19.1804 19.8906 19.2004 19.9106 19.2204C19.9806 19.2804 20.0506 19.3404 20.1306 19.3804C20.1406 19.3904 20.1506 19.3904 20.1606 19.4004L26.9905 23.2304C27.0105 23.2404 27.0205 23.2404 27.0405 23.2504C27.1105 23.2804 27.1805 23.3104 27.2505 23.3304C27.2805 23.3404 27.3006 23.3504 27.3306 23.3504C27.4206 23.3704 27.5105 23.3804 27.6005 23.3904C27.6105 23.3904 27.6105 23.3904 27.6205 23.3904H38.4905V33.6504H25.6406C25.6106 33.6504 25.5906 33.6504 25.5706 33.6604C25.5306 33.6604 25.4906 33.6704 25.4506 33.6704C25.4106 33.6804 25.3606 33.6904 25.3206 33.7004C25.2806 33.7104 25.2506 33.7204 25.2106 33.7304C25.1606 33.7504 25.1206 33.7704 25.0806 33.7904C25.0606 33.8004 25.0406 33.8104 25.0206 33.8204L18.1906 37.6504C18.1606 37.6604 18.1405 37.6804 18.1205 37.7004C18.0805 37.7204 18.0406 37.7504 18.0106 37.7804C17.9806 37.8104 17.9506 37.8304 17.9206 37.8604C17.8906 37.8904 17.8605 37.9204 17.8305 37.9504C17.8005 37.9904 17.7805 38.0204 17.7505 38.0604C17.7305 38.0804 17.7106 38.1004 17.7006 38.1304C17.6906 38.1404 17.6906 38.1504 17.6906 38.1604C17.6706 38.2004 17.6506 38.2404 17.6406 38.2804C17.6206 38.3204 17.6106 38.3504 17.6006 38.3904C17.5906 38.4304 17.5805 38.4704 17.5805 38.5104C17.5705 38.5504 17.5605 38.5904 17.5605 38.6404C17.5605 38.6804 17.5605 38.7204 17.5605 38.7604C17.5605 38.8004 17.5605 38.8404 17.5605 38.8804C17.5605 38.9204 17.5705 38.9604 17.5805 39.0004C17.5905 39.0404 17.5906 39.0804 17.6006 39.1204C17.6106 39.1604 17.6306 39.1904 17.6406 39.2304C17.6606 39.2704 17.6706 39.3104 17.6906 39.3504C17.7006 39.3604 17.7006 39.3704 17.7006 39.3804C17.7106 39.4004 17.7206 39.4104 17.7306 39.4204C17.7706 39.4904 17.8206 39.5504 17.8806 39.6104C17.9006 39.6304 17.9206 39.6504 17.9406 39.6704C18.0106 39.7304 18.0806 39.7904 18.1606 39.8404C18.1706 39.8504 18.1805 39.8504 18.1805 39.8604L25.0106 43.7004C25.0206 43.7104 25.0405 43.7104 25.0605 43.7204C25.1305 43.7504 25.2006 43.7804 25.2706 43.8004C25.3006 43.8104 25.3205 43.8204 25.3505 43.8204C25.4405 43.8404 25.5406 43.8604 25.6406 43.8604H38.5005V63.0304H32.7106C32.0006 63.0304 31.4305 63.6004 31.4305 64.3004C31.4305 65.0004 32.0006 65.5704 32.7106 65.5704H46.8406C47.5506 65.5704 48.1205 65.0004 48.1205 64.3004C48.1205 63.6004 47.5506 63.0304 46.8406 63.0304H41.0505V33.6204H53.9105C54.0105 33.6204 54.1106 33.6004 54.2006 33.5804C54.2306 33.5804 54.2506 33.5604 54.2806 33.5604C54.3506 33.5404 54.4205 33.5104 54.4905 33.4804C54.5105 33.4704 54.5205 33.4704 54.5405 33.4604L61.3705 29.6204C61.3805 29.6204 61.3906 29.6104 61.3906 29.6004C61.4706 29.5504 61.5405 29.4904 61.6105 29.4304C61.6305 29.4104 61.6505 29.3904 61.6705 29.3704C61.7305 29.3104 61.7806 29.2404 61.8206 29.1704C61.8306 29.1604 61.8405 29.1504 61.8505 29.1304C61.8605 29.1204 61.8605 29.1104 61.8605 29.1004C61.8805 29.0604 61.9005 29.0104 61.9205 28.9704C61.9305 28.9704 61.9506 28.9304 61.9606 28.9004Z" fill="black"/>
</g>
</svg>
