<svg width="69" height="63" viewBox="0 0 69 63" fill="none" xmlns="http://www.w3.org/2000/svg">
<mask id="mask0_255_31610" style="mask-type:luminance" maskUnits="userSpaceOnUse" x="0" y="0" width="69" height="63">
<path d="M68.11 0.189941H0.25V62.5399H68.11V0.189941Z" fill="white"/>
</mask>
<g mask="url(#mask0_255_31610)">
<path d="M39.4895 61.61C55.2495 58.74 67.0095 47.05 68.0395 32.79C68.5795 25.25 66.0695 17.2 56.4195 11.01C39.1595 -0.0599723 26.5095 10.41 20.3995 17.81C17.4395 21.39 13.9295 24.58 9.96953 27.28C2.83953 32.16 -6.15048 41.74 6.83952 54.13C16.2695 63.12 28.9895 63.53 39.4895 61.61Z" fill="#FFE3B0"/>
</g>
<mask id="mask1_255_31610" style="mask-type:luminance" maskUnits="userSpaceOnUse" x="0" y="0" width="69" height="63">
<path d="M68.11 0.189941H0.25V62.5399H68.11V0.189941Z" fill="white"/>
</mask>
<g mask="url(#mask1_255_31610)">
<path d="M30.7596 0.439941C15.5296 0.439941 3.13965 13.1199 3.13965 28.7199C3.13965 44.3099 15.5296 56.9999 30.7596 56.9999C45.9896 56.9999 58.3796 44.3199 58.3796 28.7199C58.3896 13.1299 45.9996 0.439941 30.7596 0.439941ZM30.7596 55.5799C16.2896 55.5799 4.51962 43.5299 4.51962 28.7199C4.51962 13.9099 16.2896 1.85994 30.7596 1.85994C45.2296 1.85994 56.9996 13.9099 56.9996 28.7199C56.9996 43.5299 45.2296 55.5799 30.7596 55.5799Z" fill="black"/>
</g>
<mask id="mask2_255_31610" style="mask-type:luminance" maskUnits="userSpaceOnUse" x="0" y="0" width="69" height="63">
<path d="M68.11 0.189941H0.25V62.5399H68.11V0.189941Z" fill="white"/>
</mask>
<g mask="url(#mask2_255_31610)">
<path d="M30.7596 0.439941C15.5296 0.439941 3.13965 13.1199 3.13965 28.7199C3.13965 44.3099 15.5296 56.9999 30.7596 56.9999C45.9896 56.9999 58.3796 44.3199 58.3796 28.7199C58.3896 13.1299 45.9996 0.439941 30.7596 0.439941ZM30.7596 55.5799C16.2896 55.5799 4.51962 43.5299 4.51962 28.7199C4.51962 13.9099 16.2896 1.85994 30.7596 1.85994C45.2296 1.85994 56.9996 13.9099 56.9996 28.7199C56.9996 43.5299 45.2296 55.5799 30.7596 55.5799Z" stroke="black" stroke-width="0.5" stroke-miterlimit="10"/>
</g>
<mask id="mask3_255_31610" style="mask-type:luminance" maskUnits="userSpaceOnUse" x="0" y="0" width="69" height="63">
<path d="M68.11 0.189941H0.25V62.5399H68.11V0.189941Z" fill="white"/>
</mask>
<g mask="url(#mask3_255_31610)">
<path d="M26.5002 14.6101C28.8502 14.6101 30.7603 12.6501 30.7603 10.2501C30.7603 7.84014 28.8502 5.89014 26.5002 5.89014C24.1502 5.89014 22.2402 7.85014 22.2402 10.2501C22.2402 12.6501 24.1502 14.6101 26.5002 14.6101ZM26.5002 7.30014C28.0902 7.30014 29.3802 8.62014 29.3802 10.2501C29.3802 11.8801 28.0902 13.2001 26.5002 13.2001C24.9102 13.2001 23.6202 11.8801 23.6202 10.2501C23.6202 8.62014 24.9102 7.30014 26.5002 7.30014Z" fill="black"/>
</g>
<mask id="mask4_255_31610" style="mask-type:luminance" maskUnits="userSpaceOnUse" x="0" y="0" width="69" height="63">
<path d="M68.11 0.189941H0.25V62.5399H68.11V0.189941Z" fill="white"/>
</mask>
<g mask="url(#mask4_255_31610)">
<path d="M26.5002 14.6101C28.8502 14.6101 30.7603 12.6501 30.7603 10.2501C30.7603 7.84014 28.8502 5.89014 26.5002 5.89014C24.1502 5.89014 22.2402 7.85014 22.2402 10.2501C22.2402 12.6501 24.1502 14.6101 26.5002 14.6101ZM26.5002 7.30014C28.0902 7.30014 29.3802 8.62014 29.3802 10.2501C29.3802 11.8801 28.0902 13.2001 26.5002 13.2001C24.9102 13.2001 23.6202 11.8801 23.6202 10.2501C23.6202 8.62014 24.9102 7.30014 26.5002 7.30014Z" stroke="black" stroke-width="0.5" stroke-miterlimit="10"/>
</g>
<mask id="mask5_255_31610" style="mask-type:luminance" maskUnits="userSpaceOnUse" x="0" y="0" width="69" height="63">
<path d="M68.11 0.189941H0.25V62.5399H68.11V0.189941Z" fill="white"/>
</mask>
<g mask="url(#mask5_255_31610)">
<path d="M52.0598 33.5801C49.7098 33.5801 47.7998 35.5401 47.7998 37.9401C47.7998 40.3501 49.7098 42.3001 52.0598 42.3001C54.4098 42.3001 56.3198 40.3401 56.3198 37.9401C56.3198 35.5401 54.4198 33.5801 52.0598 33.5801ZM52.0598 40.8901C50.4698 40.8901 49.1798 39.5701 49.1798 37.9401C49.1798 36.3201 50.4698 34.9901 52.0598 34.9901C53.6498 34.9901 54.9398 36.3101 54.9398 37.9401C54.9398 39.5601 53.6498 40.8901 52.0598 40.8901Z" fill="black"/>
</g>
<mask id="mask6_255_31610" style="mask-type:luminance" maskUnits="userSpaceOnUse" x="0" y="0" width="69" height="63">
<path d="M68.11 0.189941H0.25V62.5399H68.11V0.189941Z" fill="white"/>
</mask>
<g mask="url(#mask6_255_31610)">
<path d="M52.0598 33.5801C49.7098 33.5801 47.7998 35.5401 47.7998 37.9401C47.7998 40.3501 49.7098 42.3001 52.0598 42.3001C54.4098 42.3001 56.3198 40.3401 56.3198 37.9401C56.3198 35.5401 54.4198 33.5801 52.0598 33.5801ZM52.0598 40.8901C50.4698 40.8901 49.1798 39.5701 49.1798 37.9401C49.1798 36.3201 50.4698 34.9901 52.0598 34.9901C53.6498 34.9901 54.9398 36.3101 54.9398 37.9401C54.9398 39.5601 53.6498 40.8901 52.0598 40.8901Z" stroke="black" stroke-width="0.5" stroke-miterlimit="10"/>
</g>
<mask id="mask7_255_31610" style="mask-type:luminance" maskUnits="userSpaceOnUse" x="0" y="0" width="69" height="63">
<path d="M68.11 0.189941H0.25V62.5399H68.11V0.189941Z" fill="white"/>
</mask>
<g mask="url(#mask7_255_31610)">
<path d="M12.2697 31.2998C9.91974 31.2998 8.00977 33.2598 8.00977 35.6598C8.00977 38.0698 9.91974 40.0198 12.2697 40.0198C14.6197 40.0198 16.5298 38.0598 16.5298 35.6598C16.5298 33.2598 14.6197 31.2998 12.2697 31.2998ZM12.2697 38.6098C10.6797 38.6098 9.38977 37.2898 9.38977 35.6598C9.38977 34.0398 10.6797 32.7098 12.2697 32.7098C13.8597 32.7098 15.1497 34.0298 15.1497 35.6598C15.1497 37.2898 13.8597 38.6098 12.2697 38.6098Z" fill="black"/>
</g>
<mask id="mask8_255_31610" style="mask-type:luminance" maskUnits="userSpaceOnUse" x="0" y="0" width="69" height="63">
<path d="M68.11 0.189941H0.25V62.5399H68.11V0.189941Z" fill="white"/>
</mask>
<g mask="url(#mask8_255_31610)">
<path d="M12.2697 31.2998C9.91974 31.2998 8.00977 33.2598 8.00977 35.6598C8.00977 38.0698 9.91974 40.0198 12.2697 40.0198C14.6197 40.0198 16.5298 38.0598 16.5298 35.6598C16.5298 33.2598 14.6197 31.2998 12.2697 31.2998ZM12.2697 38.6098C10.6797 38.6098 9.38977 37.2898 9.38977 35.6598C9.38977 34.0398 10.6797 32.7098 12.2697 32.7098C13.8597 32.7098 15.1497 34.0298 15.1497 35.6598C15.1497 37.2898 13.8597 38.6098 12.2697 38.6098Z" stroke="black" stroke-width="0.5" stroke-miterlimit="10"/>
</g>
<mask id="mask9_255_31610" style="mask-type:luminance" maskUnits="userSpaceOnUse" x="0" y="0" width="69" height="63">
<path d="M68.11 0.189941H0.25V62.5399H68.11V0.189941Z" fill="white"/>
</mask>
<g mask="url(#mask9_255_31610)">
<path d="M25.56 41.5699C25.56 39.5699 23.97 37.9399 22.01 37.9399C20.05 37.9399 18.46 39.5699 18.46 41.5699C18.46 43.5699 20.05 45.1999 22.01 45.1999C23.97 45.1999 25.56 43.5699 25.56 41.5699ZM22.02 43.7899C20.83 43.7899 19.86 42.7999 19.86 41.5699C19.86 40.3399 20.83 39.3499 22.02 39.3499C23.21 39.3499 24.18 40.3399 24.18 41.5699C24.18 42.7999 23.21 43.7899 22.02 43.7899Z" fill="black"/>
</g>
<mask id="mask10_255_31610" style="mask-type:luminance" maskUnits="userSpaceOnUse" x="0" y="0" width="69" height="63">
<path d="M68.11 0.189941H0.25V62.5399H68.11V0.189941Z" fill="white"/>
</mask>
<g mask="url(#mask10_255_31610)">
<path d="M25.56 41.5699C25.56 39.5699 23.97 37.9399 22.01 37.9399C20.05 37.9399 18.46 39.5699 18.46 41.5699C18.46 43.5699 20.05 45.1999 22.01 45.1999C23.97 45.1999 25.56 43.5699 25.56 41.5699ZM22.02 43.7899C20.83 43.7899 19.86 42.7999 19.86 41.5699C19.86 40.3399 20.83 39.3499 22.02 39.3499C23.21 39.3499 24.18 40.3399 24.18 41.5699C24.18 42.7999 23.21 43.7899 22.02 43.7899Z" stroke="black" stroke-width="0.5" stroke-miterlimit="10"/>
</g>
<mask id="mask11_255_31610" style="mask-type:luminance" maskUnits="userSpaceOnUse" x="0" y="0" width="69" height="63">
<path d="M68.11 0.189941H0.25V62.5399H68.11V0.189941Z" fill="white"/>
</mask>
<g mask="url(#mask11_255_31610)">
<path d="M46.46 20.7597C46.46 22.7297 48.03 24.3397 49.95 24.3397C51.87 24.3397 53.44 22.7297 53.44 20.7597C53.44 18.7897 51.87 17.1797 49.95 17.1797C48.03 17.1897 46.46 18.7897 46.46 20.7597ZM49.95 18.5997C51.11 18.5997 52.06 19.5697 52.06 20.7597C52.06 21.9497 51.11 22.9197 49.95 22.9197C48.79 22.9197 47.84 21.9497 47.84 20.7597C47.84 19.5697 48.79 18.5997 49.95 18.5997Z" fill="black"/>
</g>
<mask id="mask12_255_31610" style="mask-type:luminance" maskUnits="userSpaceOnUse" x="0" y="0" width="69" height="63">
<path d="M68.11 0.189941H0.25V62.5399H68.11V0.189941Z" fill="white"/>
</mask>
<g mask="url(#mask12_255_31610)">
<path d="M46.46 20.7597C46.46 22.7297 48.03 24.3397 49.95 24.3397C51.87 24.3397 53.44 22.7297 53.44 20.7597C53.44 18.7897 51.87 17.1797 49.95 17.1797C48.03 17.1897 46.46 18.7897 46.46 20.7597ZM49.95 18.5997C51.11 18.5997 52.06 19.5697 52.06 20.7597C52.06 21.9497 51.11 22.9197 49.95 22.9197C48.79 22.9197 47.84 21.9497 47.84 20.7597C47.84 19.5697 48.79 18.5997 49.95 18.5997Z" stroke="black" stroke-width="0.5" stroke-miterlimit="10"/>
</g>
<mask id="mask13_255_31610" style="mask-type:luminance" maskUnits="userSpaceOnUse" x="0" y="0" width="69" height="63">
<path d="M68.11 0.189941H0.25V62.5399H68.11V0.189941Z" fill="white"/>
</mask>
<g mask="url(#mask13_255_31610)">
<path d="M41.5396 47.08C41.5396 45.11 39.9696 43.5 38.0496 43.5C36.1196 43.5 34.5596 45.1 34.5596 47.08C34.5596 49.05 36.1296 50.66 38.0496 50.66C39.9696 50.66 41.5396 49.05 41.5396 47.08ZM35.9396 47.08C35.9396 45.89 36.8896 44.92 38.0496 44.92C39.2096 44.92 40.1596 45.89 40.1596 47.08C40.1596 48.27 39.2096 49.24 38.0496 49.24C36.8796 49.24 35.9396 48.27 35.9396 47.08Z" fill="black"/>
</g>
<mask id="mask14_255_31610" style="mask-type:luminance" maskUnits="userSpaceOnUse" x="0" y="0" width="69" height="63">
<path d="M68.11 0.189941H0.25V62.5399H68.11V0.189941Z" fill="white"/>
</mask>
<g mask="url(#mask14_255_31610)">
<path d="M41.5396 47.08C41.5396 45.11 39.9696 43.5 38.0496 43.5C36.1196 43.5 34.5596 45.1 34.5596 47.08C34.5596 49.05 36.1296 50.66 38.0496 50.66C39.9696 50.66 41.5396 49.05 41.5396 47.08ZM35.9396 47.08C35.9396 45.89 36.8896 44.92 38.0496 44.92C39.2096 44.92 40.1596 45.89 40.1596 47.08C40.1596 48.27 39.2096 49.24 38.0496 49.24C36.8796 49.24 35.9396 48.27 35.9396 47.08Z" stroke="black" stroke-width="0.5" stroke-miterlimit="10"/>
</g>
<mask id="mask15_255_31610" style="mask-type:luminance" maskUnits="userSpaceOnUse" x="0" y="0" width="69" height="63">
<path d="M68.11 0.189941H0.25V62.5399H68.11V0.189941Z" fill="white"/>
</mask>
<g mask="url(#mask15_255_31610)">
<path d="M40.8599 17.1899C40.8599 15.2199 39.2899 13.6099 37.3699 13.6099C35.4499 13.6099 33.8799 15.2099 33.8799 17.1899C33.8799 19.1599 35.4499 20.7699 37.3699 20.7699C39.2899 20.7599 40.8599 19.1599 40.8599 17.1899ZM35.2599 17.1899C35.2599 15.9999 36.2099 15.0299 37.3699 15.0299C38.5299 15.0299 39.4799 15.9999 39.4799 17.1899C39.4799 18.3799 38.5299 19.3499 37.3699 19.3499C36.1999 19.3499 35.2599 18.3799 35.2599 17.1899Z" fill="black"/>
</g>
<mask id="mask16_255_31610" style="mask-type:luminance" maskUnits="userSpaceOnUse" x="0" y="0" width="69" height="63">
<path d="M68.11 0.189941H0.25V62.5399H68.11V0.189941Z" fill="white"/>
</mask>
<g mask="url(#mask16_255_31610)">
<path d="M40.8599 17.1899C40.8599 15.2199 39.2899 13.6099 37.3699 13.6099C35.4499 13.6099 33.8799 15.2099 33.8799 17.1899C33.8799 19.1599 35.4499 20.7699 37.3699 20.7699C39.2899 20.7599 40.8599 19.1599 40.8599 17.1899ZM35.2599 17.1899C35.2599 15.9999 36.2099 15.0299 37.3699 15.0299C38.5299 15.0299 39.4799 15.9999 39.4799 17.1899C39.4799 18.3799 38.5299 19.3499 37.3699 19.3499C36.1999 19.3499 35.2599 18.3799 35.2599 17.1899Z" stroke="black" stroke-width="0.5" stroke-miterlimit="10"/>
</g>
<mask id="mask17_255_31610" style="mask-type:luminance" maskUnits="userSpaceOnUse" x="0" y="0" width="69" height="63">
<path d="M68.11 0.189941H0.25V62.5399H68.11V0.189941Z" fill="white"/>
</mask>
<g mask="url(#mask17_255_31610)">
<path d="M17.1101 19.3501C15.1801 19.3501 13.6201 20.9501 13.6201 22.9301C13.6201 24.9101 15.1901 26.5101 17.1101 26.5101C19.0301 26.5101 20.6001 24.9101 20.6001 22.9301C20.6001 20.9501 19.0301 19.3501 17.1101 19.3501ZM17.1101 25.0801C15.9501 25.0801 15.0001 24.1101 15.0001 22.9201C15.0001 21.7301 15.9501 20.7601 17.1101 20.7601C18.2701 20.7601 19.2201 21.7301 19.2201 22.9201C19.2201 24.1101 18.2701 25.0801 17.1101 25.0801Z" fill="black"/>
</g>
<mask id="mask18_255_31610" style="mask-type:luminance" maskUnits="userSpaceOnUse" x="0" y="0" width="69" height="63">
<path d="M68.11 0.189941H0.25V62.5399H68.11V0.189941Z" fill="white"/>
</mask>
<g mask="url(#mask18_255_31610)">
<path d="M17.1101 19.3501C15.1801 19.3501 13.6201 20.9501 13.6201 22.9301C13.6201 24.9101 15.1901 26.5101 17.1101 26.5101C19.0301 26.5101 20.6001 24.9101 20.6001 22.9301C20.6001 20.9501 19.0301 19.3501 17.1101 19.3501ZM17.1101 25.0801C15.9501 25.0801 15.0001 24.1101 15.0001 22.9201C15.0001 21.7301 15.9501 20.7601 17.1101 20.7601C18.2701 20.7601 19.2201 21.7301 19.2201 22.9201C19.2201 24.1101 18.2701 25.0801 17.1101 25.0801Z" stroke="black" stroke-width="0.5" stroke-miterlimit="10"/>
</g>
<mask id="mask19_255_31610" style="mask-type:luminance" maskUnits="userSpaceOnUse" x="0" y="0" width="69" height="63">
<path d="M68.11 0.189941H0.25V62.5399H68.11V0.189941Z" fill="white"/>
</mask>
<g mask="url(#mask19_255_31610)">
<path d="M49.8098 47.76L11.7299 9.68003M49.8098 9.68003L11.7299 47.76M57.6898 28.72H3.83984M30.7599 1.79004V55.65" stroke="black" stroke-width="2" stroke-miterlimit="10"/>
</g>
</svg>
