<svg width="465" height="509" viewBox="0 0 465 509" fill="none" xmlns="http://www.w3.org/2000/svg">
<path d="M289.096 232.948C246.201 232.535 207.383 232.162 179.246 231.891C165.21 231.823 153.847 231.769 145.956 231.73C142.047 231.74 139.005 231.746 136.904 231.752C135.891 231.766 135.111 231.776 134.551 231.783C134.021 231.797 133.748 231.811 133.748 231.827C133.748 231.843 134.02 231.861 134.55 231.879C135.11 231.892 135.89 231.911 136.904 231.936C139.003 231.962 142.046 232.001 145.954 232.05C153.844 232.093 165.208 232.155 179.245 232.231C207.383 232.248 246.203 232.274 289.1 232.302C331.976 232.297 370.802 232.354 398.91 232.561C412.964 232.662 424.337 232.795 432.197 232.947C436.127 233.022 439.179 233.102 441.248 233.182C443.317 233.262 444.403 233.344 444.403 233.421C444.402 233.498 443.315 233.568 441.246 233.628C439.177 233.687 436.124 233.736 432.193 233.77C424.332 233.841 412.957 233.857 398.903 233.815C370.795 233.734 331.969 233.392 289.096 232.948Z" fill="#EBEBEB"/>
<path d="M288.247 242.614C245.938 235.537 207.651 229.133 179.898 224.491C166.042 222.244 154.825 220.425 147.036 219.161C143.173 218.564 140.167 218.099 138.091 217.778C137.088 217.635 136.315 217.525 135.761 217.446C135.234 217.377 134.964 217.35 134.961 217.367C134.958 217.384 135.223 217.444 135.744 217.545C136.295 217.645 137.063 217.786 138.06 217.968C140.131 218.321 143.129 218.833 146.982 219.49C154.77 220.76 165.986 222.586 179.839 224.844C207.633 229.232 245.978 235.286 288.351 241.975C330.706 248.628 369.053 254.713 396.787 259.286C410.654 261.569 421.869 263.47 429.609 264.843C433.48 265.529 436.482 266.082 438.513 266.485C440.544 266.887 441.604 267.137 441.592 267.215C441.58 267.293 440.495 267.194 438.44 266.933C436.386 266.67 433.364 266.245 429.474 265.67C421.698 264.52 410.458 262.77 396.582 260.543C368.83 256.095 330.53 249.721 288.247 242.614Z" fill="#EBEBEB"/>
<path d="M285.883 252.06C245.217 238.406 208.416 226.05 181.741 217.094C168.412 212.694 157.622 209.131 150.129 206.657C146.408 205.459 143.512 204.527 141.513 203.884C140.544 203.584 139.799 203.355 139.263 203.189C138.754 203.038 138.491 202.969 138.485 202.985C138.48 203.002 138.733 203.103 139.231 203.285C139.76 203.471 140.495 203.73 141.451 204.068C143.44 204.743 146.321 205.72 150.022 206.977C157.513 209.456 168.3 213.028 181.625 217.439C208.382 226.149 245.296 238.164 286.087 251.44C326.867 264.678 363.778 276.725 390.445 285.608C403.779 290.047 414.555 293.691 421.983 296.267C425.696 297.554 428.574 298.575 430.517 299.292C432.459 300.009 433.467 300.424 433.441 300.5C433.416 300.576 432.36 300.308 430.372 299.727C428.385 299.145 425.467 298.249 421.717 297.07C414.217 294.71 403.394 291.214 390.041 286.83C363.335 278.067 326.518 265.739 285.883 252.06Z" fill="#EBEBEB"/>
<path d="M282.072 260.972C244.059 241.092 209.659 223.102 184.725 210.063C172.255 203.619 162.16 198.403 155.149 194.78C151.664 193.011 148.95 191.635 147.078 190.684C146.168 190.236 145.468 189.891 144.966 189.644C144.488 189.414 144.239 189.304 144.231 189.319C144.224 189.334 144.457 189.474 144.921 189.731C145.413 189.998 146.099 190.37 146.991 190.853C148.849 191.832 151.54 193.25 154.999 195.073C162.006 198.7 172.097 203.924 184.563 210.377C209.615 223.19 244.177 240.866 282.369 260.4C320.556 279.894 355.11 297.601 380.048 310.569C392.519 317.051 402.587 322.344 409.517 326.054C412.983 327.91 415.665 329.369 417.47 330.383C419.276 331.395 420.206 331.963 420.17 332.032C420.134 332.102 419.134 331.67 417.264 330.781C415.394 329.893 412.653 328.549 409.136 326.793C402.102 323.281 391.965 318.123 379.468 311.692C354.471 298.837 320.05 280.871 282.072 260.972Z" fill="#EBEBEB"/>
<path d="M276.906 269.2C242.468 243.623 211.304 220.478 188.714 203.699C177.404 195.385 168.249 188.655 161.891 183.982C158.724 181.689 156.26 179.906 154.559 178.674C153.731 178.089 153.093 177.639 152.636 177.316C152.2 177.015 151.972 176.867 151.961 176.881C151.951 176.894 152.16 177.069 152.578 177.396C153.022 177.737 153.642 178.211 154.447 178.828C156.13 180.085 158.565 181.907 161.697 184.248C168.051 188.925 177.201 195.662 188.506 203.984C211.247 220.555 242.621 243.416 277.291 268.679C311.962 293.902 343.324 316.792 365.927 333.5C377.231 341.851 386.348 348.653 392.613 353.402C395.746 355.776 398.166 357.637 399.79 358.92C401.416 360.204 402.247 360.909 402.2 360.972C402.154 361.035 401.233 360.452 399.524 359.283C397.815 358.114 395.318 356.357 392.119 354.073C385.72 349.506 376.514 342.827 365.175 334.522C342.496 317.916 311.307 294.791 276.906 269.2Z" fill="#EBEBEB"/>
<path d="M270.52 276.518C240.479 245.896 213.293 218.185 193.588 198.099C183.709 188.127 175.711 180.054 170.158 174.449C167.387 171.692 165.23 169.547 163.741 168.065C163.014 167.358 162.454 166.814 162.053 166.425C161.669 166.059 161.466 165.878 161.454 165.889C161.442 165.901 161.622 166.106 161.983 166.493C162.369 166.899 162.908 167.464 163.607 168.198C165.073 169.702 167.197 171.88 169.926 174.679C175.475 180.289 183.466 188.367 193.338 198.345C213.225 218.252 240.661 245.715 270.98 276.062C301.307 306.372 328.725 333.862 348.455 353.882C358.322 363.89 366.271 372.026 371.722 377.692C374.446 380.525 376.548 382.739 377.954 384.258C379.361 385.779 380.071 386.605 380.015 386.66C379.96 386.715 379.141 385.996 377.635 384.575C376.13 383.154 373.936 381.03 371.131 378.276C365.521 372.768 357.465 364.739 347.556 354.772C327.735 334.842 300.522 307.148 270.52 276.518Z" fill="#EBEBEB"/>
<path d="M263.083 282.74C238.17 247.818 215.626 216.215 199.285 193.308C191.076 181.922 184.432 172.703 179.819 166.302C177.509 163.148 175.713 160.693 174.472 158.999C173.864 158.188 173.395 157.563 173.059 157.116C172.737 156.694 172.565 156.484 172.551 156.493C172.537 156.504 172.683 156.733 172.979 157.173C173.298 157.634 173.741 158.275 174.318 159.11C175.532 160.824 177.291 163.305 179.551 166.495C184.16 172.899 190.798 182.121 198.998 193.515C215.546 216.272 238.378 247.669 263.607 282.362C288.85 317.019 311.66 348.44 328.036 371.284C336.227 382.706 342.812 391.979 347.315 398.424C349.567 401.646 351.299 404.16 352.451 405.88C353.603 407.601 354.176 408.527 354.113 408.574C354.05 408.619 353.352 407.782 352.085 406.144C350.819 404.507 348.982 402.067 346.64 398.911C341.955 392.598 335.245 383.413 327.008 372.026C310.529 349.254 287.955 317.663 263.083 282.74Z" fill="#EBEBEB"/>
<path d="M254.759 287.739C235.614 249.351 218.289 214.611 205.731 189.431C199.404 176.901 194.283 166.758 190.726 159.714C188.939 156.238 187.548 153.532 186.587 151.665C186.113 150.768 185.747 150.078 185.486 149.584C185.233 149.118 185.095 148.882 185.08 148.89C185.066 148.897 185.173 149.147 185.397 149.628C185.638 150.132 185.977 150.836 186.416 151.751C187.348 153.633 188.696 156.36 190.429 159.863C193.981 166.91 199.095 177.057 205.411 189.591C218.2 214.656 235.842 249.235 255.336 287.447C274.852 325.623 292.469 360.223 305.072 385.348C311.375 397.908 316.431 408.099 319.87 415.168C321.591 418.703 322.906 421.457 323.775 423.337C324.644 425.216 325.065 426.221 324.994 426.257C324.924 426.292 324.367 425.357 323.371 423.54C322.375 421.725 320.942 419.029 319.122 415.545C315.481 408.577 310.29 398.456 303.934 385.922C291.22 360.854 273.865 326.123 254.759 287.739Z" fill="#EBEBEB"/>
<path d="M245.75 291.37C232.884 250.447 221.241 213.415 212.802 186.572C208.525 173.202 205.063 162.38 202.659 154.863C201.44 151.149 200.492 148.258 199.837 146.264C199.509 145.304 199.257 144.565 199.076 144.035C198.899 143.535 198.801 143.281 198.784 143.287C198.768 143.292 198.834 143.555 198.98 144.066C199.14 144.603 199.363 145.35 199.653 146.322C200.276 148.328 201.179 151.233 202.339 154.966C204.738 162.483 208.191 173.309 212.458 186.681C221.144 213.446 233.126 250.37 246.367 291.173C259.634 331.944 271.59 368.884 280.083 395.679C284.332 409.075 287.72 419.933 290.004 427.456C291.146 431.217 292.013 434.144 292.575 436.137C293.136 438.13 293.394 439.189 293.319 439.213C293.243 439.237 292.84 438.225 292.142 436.275C291.445 434.326 290.453 431.438 289.203 427.71C286.703 420.257 283.169 409.445 278.864 396.066C270.252 369.311 258.577 332.281 245.75 291.37Z" fill="#EBEBEB"/>
<path d="M236.288 293.54C230.02 251.103 224.349 212.7 220.237 184.864C218.118 170.989 216.402 159.755 215.21 151.955C214.591 148.096 214.109 145.092 213.777 143.018C213.605 142.019 213.472 141.249 213.377 140.698C213.282 140.176 213.224 139.91 213.207 139.913C213.19 139.915 213.216 140.186 213.279 140.713C213.352 141.268 213.455 142.042 213.588 143.047C213.889 145.125 214.323 148.137 214.882 152.005C216.068 159.806 217.775 171.041 219.885 184.918C224.25 212.716 230.274 251.065 236.929 293.444C243.614 335.795 249.607 374.156 253.778 401.953C255.866 415.851 257.505 427.107 258.577 434.896C259.114 438.789 259.509 441.817 259.751 443.873C259.993 445.929 260.08 447.015 260.003 447.027C259.926 447.039 259.686 445.977 259.305 443.941C258.923 441.906 258.399 438.898 257.751 435.021C256.456 427.267 254.668 416.033 252.521 402.145C248.224 374.366 242.519 335.96 236.288 293.54Z" fill="#EBEBEB"/>
<path d="M226.596 294.195C226.982 251.3 227.332 212.482 227.586 184.344C227.645 170.308 227.693 158.945 227.726 151.054C227.715 147.145 227.706 144.103 227.699 142.003C227.684 140.99 227.673 140.208 227.666 139.65C227.653 139.119 227.638 138.847 227.621 138.847C227.605 138.847 227.588 139.118 227.569 139.649C227.556 140.208 227.538 140.989 227.514 142.002C227.489 144.102 227.453 147.144 227.405 151.053C227.367 158.944 227.313 170.307 227.246 184.343C227.245 212.482 227.244 251.302 227.243 294.199C227.273 337.075 227.241 375.901 227.05 404.009C226.958 418.063 226.831 429.436 226.685 437.296C226.611 441.226 226.534 444.278 226.455 446.347C226.376 448.416 226.296 449.502 226.218 449.502C226.141 449.502 226.07 448.415 226.01 446.345C225.949 444.275 225.899 441.222 225.862 437.292C225.786 429.431 225.762 418.056 225.797 404.002C225.861 375.894 226.178 337.069 226.596 294.195Z" fill="#EBEBEB"/>
<path d="M216.916 293.344C223.967 251.03 230.347 212.738 234.971 184.983C237.21 171.126 239.022 159.908 240.28 152.118C240.875 148.255 241.337 145.248 241.657 143.173C241.799 142.169 241.909 141.395 241.988 140.842C242.057 140.316 242.084 140.045 242.067 140.042C242.051 140.039 241.99 140.305 241.89 140.826C241.789 141.377 241.65 142.145 241.468 143.143C241.117 145.214 240.607 148.212 239.952 152.066C238.688 159.855 236.868 171.072 234.619 184.927C230.249 212.724 224.219 251.072 217.556 293.449C210.93 335.81 204.869 374.16 200.313 401.897C198.038 415.766 196.145 426.982 194.777 434.723C194.093 438.594 193.541 441.597 193.14 443.628C192.739 445.659 192.49 446.72 192.412 446.707C192.334 446.695 192.432 445.61 192.693 443.555C192.954 441.501 193.377 438.477 193.95 434.589C195.095 426.811 196.838 415.571 199.056 401.693C203.485 373.934 209.836 335.631 216.916 293.344Z" fill="#EBEBEB"/>
<path d="M207.484 290.993C221.112 250.319 233.445 213.51 242.383 186.828C246.776 173.497 250.332 162.704 252.801 155.209C253.996 151.487 254.926 148.591 255.569 146.592C255.867 145.623 256.097 144.877 256.262 144.342C256.413 143.834 256.482 143.57 256.466 143.565C256.449 143.559 256.348 143.812 256.167 144.311C255.981 144.839 255.721 145.575 255.385 146.531C254.71 148.522 253.735 151.402 252.481 155.104C250.005 162.597 246.442 173.387 242.039 186.715C233.346 213.478 221.355 250.399 208.104 291.198C194.892 331.987 182.869 368.905 174.002 395.578C169.572 408.915 165.934 419.693 163.363 427.123C162.078 430.837 161.059 433.715 160.343 435.658C159.627 437.601 159.212 438.609 159.137 438.584C159.062 438.559 159.329 437.502 159.909 435.515C160.489 433.528 161.383 430.608 162.56 426.858C164.915 419.357 168.405 408.531 172.781 395.175C181.526 368.462 193.831 331.637 207.484 290.993Z" fill="#EBEBEB"/>
<path d="M198.556 287.184C218.412 249.158 236.38 214.747 249.404 189.805C255.84 177.331 261.051 167.232 264.668 160.219C266.435 156.732 267.81 154.018 268.758 152.145C269.207 151.235 269.552 150.534 269.798 150.033C270.027 149.554 270.137 149.306 270.122 149.298C270.107 149.29 269.967 149.524 269.71 149.988C269.444 150.48 269.072 151.166 268.589 152.059C267.611 153.917 266.194 156.609 264.373 160.069C260.75 167.078 255.533 177.173 249.088 189.643C236.291 214.703 218.636 249.275 199.127 287.48C179.658 325.68 161.972 360.245 149.02 385.19C142.545 397.664 137.26 407.736 133.553 414.669C131.701 418.136 130.242 420.818 129.23 422.625C128.219 424.431 127.652 425.362 127.582 425.326C127.513 425.29 127.944 424.289 128.831 422.419C129.718 420.548 131.061 417.806 132.815 414.289C136.322 407.254 141.473 397.112 147.896 384.612C160.738 359.606 178.681 325.174 198.556 287.184Z" fill="#EBEBEB"/>
<path d="M190.335 282.027C215.89 247.573 239.016 216.394 255.78 193.794C264.086 182.48 270.811 173.319 275.481 166.959C277.771 163.791 279.553 161.326 280.784 159.624C281.368 158.795 281.818 158.157 282.141 157.701C282.442 157.264 282.589 157.035 282.576 157.026C282.563 157.015 282.388 157.225 282.061 157.642C281.721 158.087 281.247 158.707 280.631 159.512C279.375 161.196 277.555 163.632 275.216 166.765C270.542 173.123 263.81 182.278 255.495 193.587C238.938 216.338 216.097 247.727 190.855 282.412C165.654 317.099 142.783 348.474 126.089 371.088C117.745 382.397 110.949 391.519 106.204 397.787C103.832 400.921 101.973 403.343 100.69 404.968C99.4076 406.594 98.7027 407.425 98.6394 407.379C98.5762 407.332 99.1584 406.412 100.327 404.701C101.495 402.992 103.25 400.494 105.533 397.294C110.097 390.893 116.77 381.681 125.067 370.338C141.659 347.648 164.765 316.444 190.335 282.027Z" fill="#EBEBEB"/>
<path d="M183.015 275.634C213.618 245.574 241.312 218.371 261.387 198.652C271.353 188.768 279.42 180.766 285.022 175.209C287.777 172.436 289.921 170.278 291.402 168.788C292.108 168.061 292.652 167.5 293.041 167.099C293.407 166.714 293.588 166.512 293.576 166.5C293.564 166.488 293.359 166.667 292.971 167.03C292.567 167.416 292.001 167.955 291.269 168.654C289.766 170.122 287.589 172.246 284.791 174.977C279.185 180.53 271.112 188.527 261.139 198.404C241.245 218.303 213.799 245.757 183.47 276.094C153.18 306.439 125.707 333.874 105.699 353.617C95.6971 363.49 87.5661 371.444 81.9033 376.898C79.0724 379.626 76.8599 381.728 75.3403 383.135C73.8207 384.542 72.9958 385.252 72.9409 385.197C72.886 385.142 73.604 384.322 75.0241 382.816C76.4442 381.309 78.5665 379.114 81.3184 376.308C86.8221 370.694 94.8471 362.633 104.808 352.718C124.727 332.886 152.404 305.656 183.015 275.634Z" fill="#EBEBEB"/>
<path d="M176.775 268.206C211.682 243.272 243.27 220.708 266.167 204.352C277.549 196.138 286.763 189.487 293.161 184.87C296.314 182.559 298.767 180.76 300.462 179.518C301.273 178.909 301.897 178.441 302.344 178.105C302.764 177.782 302.975 177.609 302.965 177.596C302.956 177.582 302.725 177.728 302.286 178.025C301.826 178.343 301.184 178.787 300.351 179.365C298.638 180.58 296.158 182.341 292.969 184.603C286.567 189.216 277.348 195.859 265.961 204.067C243.215 220.63 211.833 243.481 177.155 268.731C142.513 293.997 111.108 316.826 88.2728 333.216C76.8571 341.413 67.5868 348.005 61.1457 352.512C57.9251 354.766 55.4113 356.498 53.6917 357.652C51.9721 358.805 51.0459 359.379 51.0003 359.315C50.9547 359.252 51.7917 358.555 53.4285 357.287C55.0653 356.019 57.5029 354.181 60.6583 351.836C66.9684 347.147 76.1494 340.432 87.5307 332.187C110.291 315.694 141.867 293.1 176.775 268.206Z" fill="#EBEBEB"/>
<path d="M171.775 259.884C210.152 240.715 244.88 223.369 270.052 210.794C282.578 204.46 292.719 199.332 299.76 195.771C303.235 193.981 305.94 192.587 307.806 191.626C308.703 191.151 309.392 190.785 309.887 190.524C310.353 190.27 310.588 190.132 310.581 190.117C310.573 190.102 310.323 190.209 309.842 190.434C309.338 190.677 308.634 191.016 307.721 191.455C305.839 192.387 303.114 193.738 299.61 195.473C292.566 199.029 282.422 204.149 269.891 210.474C244.834 223.277 210.266 240.942 172.067 260.461C133.903 280 99.3143 297.639 74.1978 310.258C61.6409 316.569 51.4546 321.63 44.3866 325.074C40.8526 326.797 38.0998 328.114 36.2203 328.985C34.3408 329.854 33.3364 330.277 33.301 330.206C33.2657 330.135 34.2013 329.577 36.0157 328.581C37.831 327.584 40.5253 326.15 44.0081 324.327C50.9729 320.682 61.0913 315.484 73.6221 309.121C98.6828 296.391 133.403 279.013 171.775 259.884Z" fill="#EBEBEB"/>
<path d="M168.142 250.878C209.057 237.987 246.082 226.32 272.919 217.863C286.286 213.578 297.106 210.11 304.621 207.7C308.334 206.479 311.224 205.529 313.22 204.872C314.178 204.544 314.918 204.292 315.447 204.11C315.947 203.933 316.2 203.834 316.196 203.818C316.19 203.802 315.927 203.869 315.416 204.016C314.881 204.176 314.132 204.399 313.16 204.689C311.155 205.314 308.251 206.218 304.518 207.381C297.002 209.784 286.179 213.245 272.809 217.519C246.05 226.222 209.134 238.227 168.339 251.495C127.577 264.787 90.6445 276.767 63.8549 285.276C50.461 289.534 39.6051 292.929 32.0842 295.218C28.3233 296.363 25.3975 297.231 23.4045 297.794C21.4116 298.358 20.3532 298.615 20.329 298.54C20.3049 298.465 21.3167 298.06 23.266 297.362C25.2153 296.663 28.102 295.67 31.8276 294.418C39.2796 291.914 50.089 288.372 63.4652 284.06C90.2167 275.428 127.239 263.731 168.142 250.878Z" fill="#EBEBEB"/>
<path d="M165.971 241.415C208.404 235.121 246.804 229.424 274.638 225.296C288.513 223.168 299.744 221.445 307.543 220.249C311.403 219.628 314.406 219.144 316.48 218.81C317.478 218.637 318.248 218.504 318.799 218.409C319.321 218.313 319.587 218.255 319.584 218.238C319.581 218.222 319.311 218.247 318.783 218.311C318.229 218.384 317.455 218.488 316.45 218.622C314.371 218.923 311.361 219.36 307.492 219.921C299.691 221.111 288.459 222.826 274.582 224.944C246.787 229.327 208.441 235.374 166.068 242.056C123.72 248.768 85.3634 254.785 57.5695 258.973C43.6725 261.071 32.4176 262.716 24.6307 263.793C20.7368 264.331 17.7106 264.729 15.6534 264.972C13.5972 265.215 12.511 265.304 12.4989 265.226C12.4877 265.149 13.5498 264.908 15.5846 264.525C17.6194 264.142 20.6261 263.617 24.5033 262.967C32.2567 261.667 43.4883 259.871 57.376 257.716C85.1523 253.401 123.555 247.673 165.971 241.415Z" fill="#EBEBEB"/>
<path d="M165.307 231.721C208.203 232.081 247.022 232.405 275.159 232.642C289.195 232.692 300.559 232.733 308.449 232.762C312.358 232.748 315.4 232.737 317.5 232.729C318.514 232.714 319.295 232.702 319.854 232.694C320.384 232.681 320.655 232.665 320.655 232.649C320.655 232.633 320.384 232.616 319.854 232.598C319.295 232.585 318.514 232.567 317.5 232.545C315.4 232.521 312.358 232.486 308.449 232.442C300.558 232.409 289.195 232.362 275.159 232.303C247.021 232.32 208.201 232.343 165.304 232.369C122.429 232.427 83.602 232.418 55.4937 232.245C41.4395 232.162 30.0656 232.042 22.2053 231.9C18.2751 231.83 15.2238 231.754 13.1545 231.676C11.0853 231.598 9.99902 231.519 9.99902 231.441C9.99902 231.364 11.0862 231.292 13.1554 231.231C15.2256 231.169 18.2779 231.117 22.2081 231.076C30.0694 230.996 41.4442 230.965 55.4983 230.99C83.6085 231.036 122.433 231.329 165.307 231.721Z" fill="#EBEBEB"/>
<path d="M166.154 222.048C208.471 229.071 246.768 235.427 274.527 240.033C288.385 242.263 299.604 244.067 307.395 245.321C311.259 245.913 314.266 246.374 316.341 246.693C317.345 246.834 318.118 246.944 318.673 247.022C319.199 247.091 319.47 247.118 319.473 247.101C319.475 247.084 319.209 247.025 318.689 246.924C318.138 246.824 317.37 246.685 316.372 246.504C314.301 246.153 311.302 245.646 307.448 244.994C299.658 243.734 288.44 241.921 274.583 239.682C246.784 235.329 208.431 229.324 166.05 222.689C123.686 216.089 85.3311 210.053 57.592 205.514C43.722 203.248 32.5043 201.362 24.7621 199.999C20.8905 199.318 17.8875 198.768 15.8564 198.368C13.8243 197.969 12.7641 197.72 12.7762 197.642C12.7892 197.565 13.8746 197.661 15.928 197.921C17.9824 198.18 21.0058 198.602 24.8951 199.173C32.6736 200.313 43.9145 202.048 57.7947 204.257C85.5543 208.669 123.862 214.995 166.154 222.048Z" fill="#EBEBEB"/>
<path d="M168.501 212.63C209.185 226.232 246.001 238.541 272.687 247.463C286.021 251.847 296.816 255.396 304.313 257.86C308.035 259.054 310.932 259.982 312.932 260.622C313.901 260.92 314.647 261.15 315.183 261.314C315.691 261.465 315.954 261.534 315.96 261.517C315.966 261.5 315.713 261.4 315.214 261.219C314.686 261.034 313.949 260.774 312.993 260.438C311.003 259.766 308.122 258.791 304.419 257.54C296.924 255.069 286.132 251.512 272.802 247.118C246.033 238.443 209.105 226.475 168.297 213.25C127.499 200.065 90.5736 188.065 63.8956 179.215C50.5557 174.793 39.7761 171.163 32.3444 168.596C28.6291 167.314 25.7498 166.296 23.8071 165.581C21.8643 164.866 20.8552 164.452 20.8803 164.377C20.9055 164.301 21.9619 164.567 23.9503 165.147C25.9386 165.726 28.8579 166.618 32.6086 167.793C40.1109 170.143 50.9389 173.626 64.2974 177.993C91.0154 186.721 127.849 199.003 168.501 212.63Z" fill="#EBEBEB"/>
<path d="M172.303 203.685C210.34 223.516 244.763 241.463 269.714 254.471C282.192 260.899 292.294 266.102 299.308 269.715C302.796 271.479 305.511 272.853 307.385 273.801C308.296 274.248 308.996 274.592 309.498 274.838C309.977 275.067 310.226 275.177 310.234 275.162C310.241 275.147 310.008 275.008 309.544 274.751C309.052 274.485 308.364 274.114 307.472 273.632C305.613 272.656 302.921 271.24 299.46 269.422C292.447 265.804 282.349 260.593 269.875 254.155C244.808 241.374 210.223 223.741 172.007 204.257C133.794 184.812 99.2185 167.148 74.2638 154.211C61.785 147.745 51.7103 142.465 44.7753 138.764C41.3074 136.913 38.6243 135.457 36.8173 134.446C35.0103 133.435 34.0794 132.869 34.1147 132.8C34.151 132.73 35.1517 133.16 37.0229 134.047C38.894 134.932 41.6366 136.274 45.1557 138.025C52.1939 141.528 62.3384 146.673 74.8432 153.088C99.8564 165.913 134.299 183.834 172.303 203.685Z" fill="#EBEBEB"/>
<path d="M177.457 195.452C211.928 220.986 243.121 244.093 265.732 260.841C277.052 269.141 286.216 275.86 292.579 280.526C295.749 282.813 298.215 284.594 299.918 285.824C300.747 286.408 301.385 286.857 301.843 287.18C302.28 287.481 302.509 287.628 302.519 287.614C302.529 287.6 302.32 287.426 301.902 287.1C301.457 286.76 300.837 286.286 300.03 285.67C298.347 284.415 295.909 282.597 292.775 280.26C286.414 275.589 277.255 268.864 265.94 260.557C243.179 244.014 211.775 221.193 177.074 195.974C142.371 170.794 110.981 147.943 88.3559 131.264C77.0415 122.927 67.9164 116.137 61.6454 111.396C58.5094 109.025 56.0868 107.168 54.4602 105.886C52.8336 104.605 52.0022 103.901 52.0487 103.838C52.0952 103.774 53.0169 104.356 54.7271 105.523C56.4374 106.69 58.9363 108.444 62.1383 110.723C68.5423 115.283 77.7586 121.95 89.1064 130.241C111.807 146.819 143.024 169.905 177.457 195.452Z" fill="#EBEBEB"/>
<path d="M183.835 188.14C213.915 218.724 241.135 246.401 260.865 266.463C270.756 276.422 278.764 284.485 284.324 290.084C287.099 292.837 289.259 294.979 290.75 296.459C291.478 297.165 292.038 297.708 292.439 298.097C292.824 298.463 293.027 298.643 293.039 298.632C293.051 298.62 292.872 298.416 292.509 298.029C292.122 297.624 291.584 297.06 290.883 296.326C289.415 294.824 287.289 292.649 284.557 289.853C279 284.251 270.998 276.183 261.114 266.216C241.202 246.335 213.732 218.905 183.375 188.596C153.011 158.324 125.558 130.869 105.803 110.874C95.9238 100.878 87.9649 92.7516 82.5077 87.0925C79.779 84.2635 77.6744 82.0519 76.2664 80.5332C74.8593 79.0145 74.147 78.1896 74.2028 78.1348C74.2586 78.0799 75.0779 78.7979 76.5854 80.217C78.0929 81.6362 80.2887 83.7566 83.0973 86.5076C88.7145 92.0076 96.7813 100.028 106.702 109.983C126.546 129.888 153.794 157.547 183.835 188.14Z" fill="#EBEBEB"/>
<path d="M191.265 181.894C216.222 216.785 238.806 248.36 255.176 271.246C263.398 282.623 270.054 291.832 274.675 298.228C276.988 301.38 278.789 303.832 280.031 305.525C280.64 306.335 281.11 306.959 281.446 307.406C281.769 307.826 281.941 308.038 281.955 308.027C281.969 308.017 281.823 307.787 281.526 307.348C281.207 306.889 280.763 306.246 280.184 305.414C278.968 303.702 277.207 301.223 274.942 298.035C270.325 291.637 263.675 282.423 255.46 271.04C238.883 248.304 216.013 216.937 190.74 182.275C165.453 147.65 142.604 116.258 126.2 93.4336C117.995 82.0234 111.397 72.7578 106.886 66.3185C104.63 63.0989 102.897 60.5869 101.742 58.8683C100.587 57.1496 100.013 56.2234 100.076 56.1778C100.139 56.1322 100.838 56.9683 102.106 58.6051C103.375 60.2419 105.214 62.6776 107.561 65.8312C112.254 72.1385 118.975 81.3148 127.226 92.6915C143.736 115.44 166.349 147.002 191.265 181.894Z" fill="#EBEBEB"/>
<path d="M199.587 176.89C218.78 215.254 236.15 249.971 248.739 275.136C255.082 287.658 260.216 297.795 263.781 304.834C265.573 308.309 266.968 311.012 267.931 312.879C268.406 313.774 268.772 314.464 269.035 314.958C269.288 315.424 269.426 315.66 269.441 315.651C269.456 315.644 269.348 315.394 269.124 314.913C268.881 314.409 268.542 313.706 268.102 312.791C267.168 310.91 265.816 308.185 264.079 304.684C260.519 297.642 255.391 287.501 249.058 274.974C236.239 249.925 218.552 215.368 199.009 177.182C179.446 139.029 161.784 104.453 149.149 79.3437C142.83 66.7906 137.762 56.6071 134.314 49.5428C132.59 46.0107 131.269 43.2579 130.399 41.3793C129.527 39.5007 129.105 38.4963 129.176 38.4609C129.245 38.4256 129.805 39.3602 130.802 41.1747C131.8 42.9891 133.236 45.6833 135.061 49.1643C138.711 56.1272 143.914 66.2419 150.286 78.769C163.034 103.82 180.433 138.53 199.587 176.89Z" fill="#EBEBEB"/>
<path d="M208.585 173.264C221.504 214.17 233.194 251.188 241.667 278.02C245.961 291.384 249.436 302.203 251.85 309.715C253.073 313.428 254.026 316.317 254.682 318.311C255.012 319.27 255.265 320.009 255.446 320.539C255.624 321.039 255.722 321.292 255.739 321.287C255.755 321.282 255.689 321.018 255.542 320.508C255.381 319.971 255.158 319.224 254.867 318.253C254.241 316.248 253.334 313.344 252.169 309.613C249.761 302.099 246.294 291.277 242.01 277.91C233.291 251.157 221.261 214.248 207.968 173.463C194.649 132.708 182.646 95.7836 174.119 68.9996C169.853 55.6086 166.451 44.7545 164.157 37.2355C163.01 33.4755 162.14 30.5497 161.575 28.5577C161.011 26.5656 160.752 25.5073 160.828 25.4831C160.903 25.4589 161.308 26.4708 162.008 28.4191C162.708 30.3684 163.702 33.2542 164.957 36.9798C167.466 44.43 171.014 55.2375 175.336 68.6109C183.984 95.354 195.706 132.369 208.585 173.264Z" fill="#EBEBEB"/>
<path d="M218.042 171.069C224.363 213.498 230.084 251.894 234.23 279.725C236.368 293.598 238.097 304.828 239.299 312.627C239.923 316.487 240.408 319.489 240.743 321.563C240.916 322.561 241.05 323.331 241.146 323.882C241.242 324.404 241.3 324.67 241.317 324.667C241.334 324.664 241.309 324.394 241.245 323.866C241.17 323.312 241.067 322.538 240.932 321.533C240.63 319.454 240.191 316.445 239.627 312.576C238.432 304.776 236.71 293.545 234.583 279.67C230.182 251.878 224.111 213.536 217.402 171.166C210.663 128.823 204.622 90.4697 200.416 62.6776C198.31 48.7825 196.658 37.5286 195.575 29.7417C195.034 25.8487 194.634 22.8215 194.39 20.7653C194.146 18.7091 194.056 17.6228 194.134 17.6117C194.213 17.5996 194.452 18.6626 194.838 20.6974C195.223 22.7323 195.75 25.7389 196.402 29.6152C197.707 37.3677 199.51 48.5983 201.674 62.4851C206.005 90.2577 211.757 128.656 218.042 171.069Z" fill="#EBEBEB"/>
<path d="M227.734 170.406C227.402 213.301 227.1 252.12 226.883 280.258C226.841 294.294 226.807 305.657 226.784 313.548C226.801 317.457 226.813 320.499 226.822 322.599C226.838 323.612 226.85 324.393 226.859 324.952C226.873 325.483 226.887 325.754 226.904 325.754C226.921 325.754 226.938 325.483 226.955 324.952C226.967 324.393 226.985 323.612 227.006 322.599C227.029 320.499 227.061 317.457 227.104 313.548C227.132 305.658 227.172 294.294 227.222 280.258C227.188 252.12 227.139 213.299 227.086 170.403C227.002 127.527 226.986 88.7008 227.141 60.5925C227.216 46.5384 227.328 35.1645 227.465 27.3041C227.534 23.3739 227.607 20.3217 227.683 18.2524C227.76 16.1832 227.839 15.0969 227.917 15.0969C227.994 15.0969 228.066 16.1841 228.129 18.2543C228.192 20.3235 228.246 23.3767 228.289 27.3069C228.374 35.1682 228.413 46.543 228.396 60.5962C228.366 88.7055 228.097 127.531 227.734 170.406Z" fill="#EBEBEB"/>
<path d="M237.413 171.243C230.418 213.565 224.086 251.866 219.498 279.627C217.277 293.487 215.479 304.707 214.231 312.499C213.641 316.363 213.182 319.371 212.866 321.446C212.724 322.451 212.616 323.224 212.538 323.778C212.47 324.304 212.443 324.575 212.459 324.578C212.476 324.58 212.536 324.314 212.636 323.794C212.736 323.243 212.874 322.475 213.055 321.477C213.404 319.406 213.909 316.407 214.559 312.552C215.813 304.761 217.62 293.543 219.85 279.684C224.185 251.881 230.165 213.525 236.773 171.14C243.345 128.771 249.357 90.413 253.877 62.6701C256.134 48.7983 258.013 37.5806 259.37 29.8365C260.049 25.9649 260.597 22.9619 260.996 20.9299C261.394 18.8978 261.642 17.8367 261.72 17.8497C261.798 17.8618 261.701 18.9471 261.443 21.0015C261.185 23.0559 260.765 26.0793 260.197 29.9695C259.063 37.7489 257.334 48.9917 255.134 62.872C250.739 90.6353 244.438 128.948 237.413 171.243Z" fill="#EBEBEB"/>
<path d="M246.846 173.577C233.271 214.269 220.986 251.094 212.081 277.786C207.706 291.124 204.164 301.921 201.704 309.419C200.514 313.142 199.587 316.039 198.948 318.041C198.65 319.01 198.421 319.756 198.257 320.291C198.107 320.8 198.038 321.064 198.055 321.069C198.071 321.074 198.172 320.821 198.353 320.323C198.538 319.795 198.797 319.058 199.132 318.101C199.803 316.11 200.775 313.228 202.024 309.525C204.489 302.029 208.04 291.234 212.425 277.901C221.082 251.127 233.026 214.19 246.225 173.374C259.384 132.568 271.36 95.6348 280.192 68.9503C284.606 55.6076 288.228 44.8252 290.79 37.3926C292.07 33.6763 293.086 30.7971 293.799 28.8534C294.513 26.9097 294.926 25.9015 295.002 25.9257C295.077 25.9508 294.812 27.0073 294.233 28.9956C293.656 30.984 292.766 33.9042 291.593 37.6558C289.249 45.16 285.772 55.9898 281.413 69.3511C272.705 96.0747 260.447 132.916 246.846 173.577Z" fill="#EBEBEB"/>
<path d="M255.782 177.369C235.975 215.42 218.051 249.854 205.06 274.813C198.64 287.296 193.443 297.401 189.834 304.418C188.072 307.907 186.701 310.623 185.754 312.498C185.308 313.408 184.964 314.109 184.717 314.612C184.488 315.091 184.379 315.34 184.395 315.347C184.409 315.355 184.548 315.121 184.806 314.657C185.072 314.165 185.442 313.478 185.923 312.585C186.899 310.725 188.313 308.032 190.128 304.57C193.742 297.556 198.946 287.455 205.376 274.977C218.141 249.9 235.751 215.305 255.211 177.076C274.632 138.851 292.273 104.263 305.194 79.3012C311.652 66.8187 316.925 56.7403 320.623 49.8025C322.471 46.3336 323.925 43.6496 324.935 41.8417C325.945 40.0338 326.511 39.1028 326.579 39.1382C326.649 39.1735 326.22 40.1751 325.334 42.0472C324.45 43.9193 323.11 46.6628 321.361 50.1829C317.863 57.223 312.724 67.3711 306.318 79.8796C293.509 104.898 275.609 139.352 255.782 177.369Z" fill="#EBEBEB"/>
<path d="M264.014 182.524C238.502 217.01 215.415 248.219 198.681 270.84C190.388 282.166 183.675 291.334 179.014 297.7C176.728 300.872 174.949 303.339 173.72 305.043C173.137 305.872 172.688 306.51 172.365 306.968C172.065 307.405 171.918 307.634 171.931 307.644C171.944 307.654 172.119 307.445 172.444 307.026C172.784 306.582 173.257 305.961 173.872 305.154C175.126 303.47 176.944 301.03 179.278 297.895C183.944 291.532 190.664 282.367 198.964 271.048C215.492 248.275 238.294 216.858 263.49 182.14C288.648 147.421 311.478 116.016 328.143 93.3812C336.473 82.0621 343.257 72.9314 347.994 66.6576C350.363 63.5207 352.219 61.0971 353.499 59.4687C354.778 57.8412 355.482 57.0098 355.546 57.0563C355.609 57.1028 355.028 58.0244 353.861 59.7356C352.695 61.4468 350.944 63.9467 348.665 67.1505C344.11 73.5582 337.449 82.7773 329.165 94.1307C312.606 116.841 289.54 148.074 264.014 182.524Z" fill="#EBEBEB"/>
<path d="M271.337 188.898C240.772 218.997 213.112 246.235 193.063 265.978C183.109 275.876 175.053 283.888 169.457 289.452C166.705 292.229 164.564 294.39 163.087 295.881C162.381 296.61 161.838 297.17 161.449 297.573C161.083 297.958 160.903 298.161 160.914 298.173C160.926 298.185 161.13 298.006 161.518 297.643C161.922 297.256 162.487 296.717 163.219 296.015C164.72 294.546 166.894 292.419 169.688 289.685C175.286 284.124 183.349 276.117 193.31 266.227C213.178 246.302 240.59 218.813 270.88 188.439C301.132 158.055 328.57 130.584 348.553 110.817C358.542 100.931 366.664 92.9675 372.319 87.5057C375.146 84.7752 377.357 82.6697 378.874 81.2607C380.392 79.8518 381.216 79.1394 381.271 79.1952C381.326 79.251 380.609 80.0703 379.191 81.5797C377.772 83.0882 375.653 85.2858 372.905 88.0953C367.408 93.7162 359.394 101.788 349.445 111.714C329.552 131.572 301.909 158.837 271.337 188.898Z" fill="#EBEBEB"/>
<path d="M277.584 196.33C242.709 221.309 211.149 243.913 188.273 260.298C176.902 268.527 167.696 275.189 161.304 279.815C158.154 282.129 155.703 283.931 154.011 285.175C153.201 285.785 152.577 286.255 152.13 286.591C151.709 286.915 151.499 287.088 151.509 287.101C151.519 287.115 151.749 286.969 152.187 286.671C152.647 286.352 153.289 285.907 154.121 285.328C155.832 284.111 158.311 282.348 161.496 280.081C167.891 275.459 177.102 268.804 188.479 260.583C211.204 243.991 242.557 221.101 277.204 195.806C311.813 170.497 343.189 147.627 366.003 131.208C377.408 122.996 386.669 116.392 393.105 111.877C396.323 109.619 398.834 107.884 400.552 106.728C402.271 105.572 403.196 104.997 403.242 105.061C403.287 105.124 402.451 105.823 400.816 107.093C399.181 108.362 396.746 110.204 393.593 112.552C387.29 117.25 378.117 123.976 366.746 132.235C344.007 148.758 312.461 171.391 277.584 196.33Z" fill="#EBEBEB"/>
<path d="M282.592 204.642C244.241 223.86 209.535 241.251 184.378 253.857C171.86 260.207 161.726 265.348 154.688 268.919C151.216 270.714 148.513 272.109 146.648 273.074C145.752 273.55 145.063 273.916 144.569 274.179C144.103 274.433 143.869 274.57 143.876 274.586C143.884 274.601 144.134 274.493 144.614 274.268C145.118 274.024 145.821 273.686 146.734 273.245C148.614 272.31 151.338 270.956 154.839 269.216C161.878 265.652 172.016 260.518 184.539 254.177C209.579 241.341 244.125 223.633 282.298 204.065C320.438 184.477 355.003 166.794 380.104 154.143C392.652 147.815 402.833 142.741 409.895 139.288C413.426 137.561 416.178 136.239 418.056 135.367C419.934 134.495 420.938 134.071 420.973 134.142C421.009 134.212 420.074 134.772 418.261 135.771C416.446 136.769 413.754 138.207 410.273 140.035C403.313 143.69 393.201 148.899 380.678 155.278C355.638 168.041 320.939 185.463 282.592 204.642Z" fill="#EBEBEB"/>
<path d="M286.24 213.648C245.342 226.593 208.332 238.307 181.505 246.798C168.144 251.1 157.328 254.583 149.817 257.002C146.106 258.228 143.217 259.182 141.222 259.84C140.263 260.17 139.525 260.423 138.996 260.605C138.496 260.782 138.243 260.882 138.248 260.898C138.253 260.914 138.517 260.847 139.027 260.7C139.562 260.539 140.31 260.315 141.282 260.024C143.286 259.397 146.189 258.488 149.92 257.321C157.433 254.909 168.252 251.434 181.616 247.142C208.364 238.405 245.264 226.352 286.041 213.032C326.787 199.686 363.704 187.66 390.482 179.116C403.87 174.841 414.721 171.433 422.239 169.134C425.999 167.984 428.924 167.112 430.916 166.546C432.908 165.98 433.966 165.722 433.991 165.796C434.015 165.871 433.003 166.277 431.056 166.978C429.108 167.679 426.222 168.675 422.497 169.933C415.049 172.447 404.243 176.002 390.873 180.332C364.135 188.998 327.127 200.743 286.24 213.648Z" fill="#EBEBEB"/>
<path d="M288.422 223.093C245.998 229.442 207.605 235.187 179.777 239.351C165.905 241.497 154.675 243.234 146.877 244.44C143.019 245.067 140.016 245.555 137.943 245.89C136.944 246.064 136.175 246.198 135.623 246.295C135.102 246.392 134.836 246.449 134.838 246.466C134.841 246.483 135.112 246.458 135.638 246.392C136.192 246.318 136.966 246.214 137.972 246.079C140.05 245.775 143.06 245.334 146.927 244.769C154.726 243.568 165.957 241.839 179.831 239.703C207.62 235.285 245.959 229.188 288.323 222.451C330.661 215.686 369.011 209.619 396.8 205.395C410.694 203.28 421.947 201.621 429.733 200.533C433.626 199.989 436.652 199.588 438.708 199.343C440.765 199.097 441.85 199.007 441.862 199.085C441.874 199.162 440.812 199.404 438.777 199.79C436.743 200.176 433.737 200.705 429.86 201.361C422.109 202.671 410.879 204.481 396.994 206.654C369.225 211.004 330.83 216.781 288.422 223.093Z" fill="#EBEBEB"/>
<path d="M332.421 67.552L333.397 69.173C334.492 70.993 336.086 72.4605 337.99 73.4026L339.687 74.2415L338.066 75.2171C336.246 76.3117 334.777 77.9066 333.836 79.8103L332.997 81.5067L332.022 79.8857C330.926 78.0657 329.333 76.5981 327.428 75.656L325.732 74.8172L327.354 73.8416C329.174 72.747 330.641 71.153 331.583 69.2483L332.421 67.552Z" fill="#E0E0E0"/>
<path d="M330.408 257.764L331.005 258.756C331.675 259.869 332.651 260.768 333.815 261.343L334.853 261.857L333.861 262.454C332.748 263.123 331.85 264.099 331.274 265.263L330.761 266.301L330.164 265.309C329.494 264.196 328.519 263.297 327.354 262.721L326.316 262.208L327.309 261.611C328.422 260.941 329.32 259.966 329.896 258.802L330.408 257.764Z" fill="#E0E0E0"/>
<path d="M427.256 362.597L427.853 363.589C428.522 364.702 429.498 365.601 430.662 366.176L431.7 366.69L430.709 367.287C429.595 367.956 428.697 368.932 428.121 370.096L427.608 371.134L427.011 370.142C426.341 369.029 425.366 368.13 424.201 367.555L423.164 367.041L424.156 366.444C425.269 365.774 426.167 364.799 426.743 363.635L427.256 362.597Z" fill="#E0E0E0"/>
<path d="M52.1272 311.84L52.7242 312.833C53.3938 313.946 54.3694 314.844 55.5337 315.42L56.5716 315.933L55.5802 316.53C54.4661 317.2 53.5687 318.175 52.993 319.34L52.4796 320.378L51.8826 319.385C51.213 318.272 50.2374 317.374 49.073 316.798L48.0352 316.285L49.0275 315.688C50.1407 315.018 51.0391 314.043 51.6147 312.878L52.1272 311.84Z" fill="#E0E0E0"/>
<path d="M168.925 34.5774L169.522 35.5697C170.192 36.6829 171.167 37.5813 172.332 38.157L173.369 38.6703L172.378 39.2674C171.265 39.937 170.367 40.9126 169.791 42.0769L169.277 43.1148L168.68 42.1225C168.011 41.0093 167.035 40.1109 165.871 39.5352L164.833 39.0219L165.825 38.4248C166.939 37.7552 167.837 36.7796 168.413 35.6153L168.925 34.5774Z" fill="#E0E0E0"/>
<path d="M73.4514 44.3286L74.0484 45.3209C74.718 46.4341 75.6936 47.3325 76.858 47.9082L77.8958 48.4215L76.9045 49.0186C75.7913 49.6882 74.8929 50.6638 74.3172 51.8281L73.8038 52.866L73.2068 51.8737C72.5372 50.7605 71.5616 49.8621 70.3973 49.2864L69.3594 48.7731L70.3517 48.176C71.4649 47.5064 72.3633 46.5309 72.9389 45.3665L73.4514 44.3286Z" fill="#E0E0E0"/>
<path d="M117.992 141.198L118.589 142.19C119.259 143.303 120.234 144.201 121.398 144.777L122.436 145.29L121.445 145.887C120.332 146.557 119.433 147.533 118.858 148.697L118.344 149.735L117.747 148.743C117.078 147.629 116.102 146.731 114.938 146.155L113.9 145.642L114.892 145.045C116.005 144.375 116.904 143.4 117.479 142.235L117.992 141.198Z" fill="#E0E0E0"/>
<path d="M339.064 168.282L339.661 169.274C340.331 170.387 341.306 171.286 342.471 171.861L343.509 172.375L342.517 172.972C341.404 173.641 340.506 174.617 339.93 175.781L339.417 176.819L338.82 175.827C338.15 174.714 337.174 173.815 336.01 173.24L334.972 172.726L335.964 172.129C337.078 171.46 337.976 170.484 338.552 169.32L339.064 168.282Z" fill="#E0E0E0"/>
<path d="M330.408 364.998L331.005 365.99C331.675 367.103 332.651 368.002 333.815 368.577L334.853 369.091L333.861 369.688C332.748 370.357 331.85 371.333 331.274 372.497L330.761 373.535L330.164 372.543C329.494 371.43 328.519 370.531 327.354 369.956L326.316 369.442L327.309 368.845C328.422 368.176 329.32 367.2 329.896 366.036L330.408 364.998Z" fill="#E0E0E0"/>
<path d="M158.465 75.0161L159.669 77.0165C161.02 79.2625 162.987 81.0741 165.336 82.2357L167.43 83.2708L165.429 84.4751C163.183 85.8264 161.372 87.7934 160.21 90.1435L159.175 92.236L157.971 90.2356C156.62 87.9896 154.653 86.178 152.303 85.0164L150.21 83.9813L152.211 82.777C154.457 81.4257 156.268 79.4587 157.43 77.1095L158.465 75.0161Z" fill="#E0E0E0"/>
<path d="M418.457 65.0664L419.661 67.0678C421.012 69.3137 422.979 71.1254 425.329 72.2869L427.422 73.322L425.422 74.5264C423.176 75.8777 421.364 77.8446 420.202 80.1938L419.167 82.2872L417.964 80.2859C416.613 78.0399 414.646 76.2292 412.296 75.0667L410.202 74.0316L412.204 72.8273C414.449 71.476 416.26 69.509 417.423 67.1598L418.457 65.0664Z" fill="#E0E0E0"/>
<path d="M308.092 33.8457L308.79 35.0073C309.575 36.3111 310.717 37.363 312.081 38.0372L313.296 38.638L312.135 39.3374C310.831 40.1223 309.779 41.2643 309.105 42.6277L308.504 43.8432L307.805 42.6816C307.02 41.3778 305.879 40.3259 304.514 39.6517L303.299 39.0509L304.46 38.3516C305.764 37.5676 306.816 36.4255 307.49 35.0612L308.092 33.8457Z" fill="#E0E0E0"/>
<path d="M69.7455 270.206L70.7992 271.958C71.9821 273.925 73.7045 275.51 75.7617 276.528L77.5947 277.434L75.8426 278.488C73.8756 279.671 72.29 281.393 71.2726 283.451L70.3658 285.284L69.3121 283.532C68.1292 281.565 66.4068 279.979 64.3496 278.962L62.5166 278.055L64.2687 277C66.2357 275.817 67.8213 274.095 68.8387 272.038L69.7455 270.206Z" fill="#E0E0E0"/>
<path d="M375.87 371.826L376.924 373.578C378.107 375.545 379.829 377.13 381.887 378.148L383.72 379.055L381.968 380.109C380.001 381.292 378.415 383.015 377.398 385.072L376.491 386.905L375.437 385.153C374.254 383.186 372.532 381.6 370.475 380.583L368.642 379.676L370.394 378.621C372.361 377.438 373.946 375.716 374.964 373.659L375.87 371.826Z" fill="#E0E0E0"/>
<path d="M444.128 444.989C444.128 445.123 349.372 445.231 232.511 445.231C115.61 445.231 20.8748 445.122 20.8748 444.989C20.8748 444.856 115.61 444.747 232.511 444.747C349.372 444.747 444.128 444.855 444.128 444.989Z" fill="#263238"/>
<g opacity="0.5">
<path d="M376.233 412.528L376.476 412.032C375.569 411.628 374.724 410.9 374.177 409.984C374.724 410.898 375.568 411.625 376.474 412.028L377.035 410.883C377.036 410.883 377.037 410.884 377.038 410.885L377.452 410.04C375.717 409.2 374.454 407.05 378.044 404.645C394.21 392.62 405.031 379.22 404.854 369.402C405.752 353.494 383.73 350.066 386.58 371.645L389.613 371.659C385.691 359.071 401.11 354.432 401.518 369.391C399.933 383.614 387.497 391.191 374.633 403.175C370.222 407.485 373.341 412.172 376.233 412.528ZM390.982 360.357C393.078 358.571 396.028 358.427 398.497 359.991C399.551 360.658 400.417 361.564 401.077 362.662C400.418 361.566 399.552 360.661 398.499 359.994C396.03 358.431 393.08 358.574 390.984 360.361C388.493 362.484 388.491 362.48 390.982 360.357ZM375.741 405.087L386.348 396.054C391.605 391.625 395.717 387.253 398.566 383.063C401.68 378.483 403.399 373.958 403.674 369.612C403.834 366.606 403.234 363.947 401.979 361.881C403.235 363.948 403.837 366.608 403.677 369.616C403.401 373.961 401.682 378.487 398.568 383.066C395.719 387.257 391.607 391.629 386.35 396.058L375.743 405.091C374.645 406.403 374.369 407.739 374.944 408.958C374.999 409.074 375.06 409.186 375.127 409.295C375.06 409.185 374.998 409.072 374.942 408.954C374.367 407.736 374.643 406.399 375.741 405.087Z" fill="#FFCE00"/>
<path d="M374.614 403.137C387.478 391.152 399.914 383.575 401.499 369.352C401.091 354.394 385.689 359.066 389.612 371.655C389.612 371.655 388.471 371.656 388.47 371.655C387.597 366.537 388.474 362.445 390.965 360.322C393.061 358.536 396.011 358.392 398.48 359.956C401.289 361.734 402.769 365.209 402.541 369.49C402.041 377.385 396.364 385.961 385.671 394.97L374.988 404.067L374.957 404.104C372.955 406.464 373.463 408.525 373.944 409.544C374.466 410.648 375.562 411.297 376.597 411.759L376.233 412.531C373.341 412.175 370.203 407.447 374.614 403.137Z" fill="#DD970A"/>
<path d="M341.034 402.974C328.093 391.1 315.609 383.63 313.934 369.422C314.246 354.46 329.695 358.965 325.852 371.587L328.885 371.547C331.598 349.944 309.598 353.561 310.598 369.462C310.484 379.28 321.39 392.587 337.632 404.473C341.237 406.847 339.989 409.008 338.259 409.862L338.678 410.703C338.679 410.703 338.68 410.702 338.681 410.702L339.25 411.842C340.153 411.431 340.992 410.697 341.533 409.778C340.993 410.699 340.152 411.434 339.248 411.846L339.494 412.339C342.383 411.959 345.473 407.246 341.034 402.974ZM324.41 360.301C322.303 358.533 319.352 358.414 316.893 359.999C315.845 360.675 314.985 361.587 314.332 362.689C314.985 361.585 315.846 360.672 316.895 359.996C319.354 358.411 322.305 358.529 324.412 360.298C326.917 362.399 326.914 362.403 324.41 360.301ZM340.761 408.755C340.707 408.873 340.646 408.987 340.579 409.097C340.645 408.988 340.705 408.876 340.759 408.759C341.327 407.535 341.042 406.201 339.936 404.899L329.272 395.957C323.987 391.573 319.847 387.237 316.971 383.071C313.828 378.518 312.08 374.008 311.777 369.665C311.597 366.658 312.182 363.993 313.425 361.916C312.183 363.993 311.6 366.656 311.779 369.661C312.082 374.004 313.83 378.515 316.973 383.068C319.849 387.234 323.989 391.57 329.274 395.954L339.939 404.895C341.045 406.197 341.329 407.531 340.761 408.755Z" fill="#FFCE00"/>
<path d="M341.053 402.934C328.112 391.06 315.628 383.59 313.953 369.381C314.265 354.42 329.697 358.959 325.855 371.581C325.855 371.581 326.996 371.573 326.996 371.572C327.837 366.447 326.933 362.362 324.429 360.261C322.322 358.493 319.371 358.374 316.912 359.959C314.115 361.762 312.657 365.249 312.912 369.528C313.463 377.419 319.194 385.945 329.944 394.862L340.685 403.867L340.716 403.904C342.734 406.246 342.238 408.312 341.764 409.335C341.249 410.444 340.157 411.102 339.125 411.572L339.494 412.341C342.384 411.96 345.492 407.206 341.053 402.934Z" fill="#DD970A"/>
<path d="M328.264 355.005C328.912 379.209 335.652 399.26 348.924 411.918C349.669 412.632 350.436 413.321 351.224 413.982C351.394 414.128 351.565 414.269 351.736 414.411C352.392 414.949 353.06 415.474 353.745 415.979C353.752 416.041 353.76 416.103 353.768 416.165H362.183C362.19 416.101 362.198 416.039 362.204 415.979C362.388 415.842 362.569 415.706 362.751 415.567C363.017 415.363 363.283 415.157 363.545 414.947C363.694 414.829 363.842 414.71 363.989 414.588C379.245 402.188 386.6 380.987 387.266 355.005C387.277 354.57 387.177 354.16 386.994 353.816C386.666 353.196 386.076 352.779 385.401 352.779H330.131C329.455 352.779 328.865 353.195 328.539 353.816C328.355 354.16 328.254 354.57 328.264 355.005Z" fill="#FFCE00"/>
<path d="M377.796 443.5V443.975C377.774 445.146 376.948 446.089 375.929 446.089L338.436 446.054C337.405 446.052 336.571 445.083 336.571 443.887V443.535C336.571 443.216 336.63 442.912 336.738 442.64C337.026 441.909 337.654 441.397 338.39 441.371C345.371 441.11 350.198 438.701 353.154 434.43C353.176 434.399 353.2 434.368 353.22 434.336C353.363 434.128 353.502 433.915 353.634 433.697C353.654 433.666 353.675 433.635 353.695 433.602C353.82 433.572 353.971 433.053 354.126 432.206C354.144 432.103 354.163 431.998 354.181 431.885C354.214 431.687 354.247 431.473 354.281 431.248C354.618 428.959 354.945 425.378 355.039 422.251C355.069 421.347 355.074 420.479 355.059 419.693C355.054 419.382 355.043 419.085 355.028 418.803C355.023 418.693 355.017 418.588 355.01 418.483C354.929 417.227 355.789 416.165 356.871 416.165H358.973C359.475 416.165 359.927 416.393 360.258 416.761C360.659 417.201 360.888 417.842 360.831 418.535C360.831 418.542 360.829 418.551 360.829 418.559C360.805 418.827 360.787 419.109 360.77 419.402C360.766 419.501 360.761 419.604 360.755 419.711C360.597 423.286 360.892 428.355 361.263 431.248C361.293 431.475 361.321 431.688 361.352 431.885C361.368 431.998 361.385 432.105 361.402 432.206C361.553 433.108 361.707 433.607 361.844 433.482C361.899 433.561 361.954 433.64 362.013 433.72C362.096 433.834 362.177 433.948 362.262 434.058C362.361 434.191 362.46 434.32 362.564 434.447C365.906 438.677 370.46 440.876 376.054 441.34C376.771 441.399 377.373 441.918 377.642 442.64C377.741 442.903 377.796 443.194 377.796 443.5Z" fill="#FFCE00"/>
<path d="M355.096 418.161C355.922 418.071 356.768 418.123 357.593 418.174C358.551 418.233 359.505 418.315 360.464 418.342C360.655 418.348 360.831 418.374 361 418.413C360.942 418.461 360.886 418.512 360.827 418.558C360.804 418.826 360.786 419.108 360.769 419.4C360.294 419.766 359.793 420.047 359.271 420.238C358.766 420.423 358.242 420.518 357.705 420.518C356.771 420.518 355.88 420.226 355.058 419.692C355.052 419.381 355.042 419.084 355.028 418.802C354.991 418.777 354.956 418.751 354.919 418.725C354.994 418.553 355.055 418.367 355.096 418.161Z" fill="#DD970A"/>
<path d="M350.431 407.424C350.431 410.022 350.914 412.43 351.739 414.413C352.549 416.369 353.692 417.908 355.031 418.806C355.875 419.374 356.795 419.685 357.761 419.685C358.297 419.685 358.821 419.589 359.327 419.405C359.851 419.213 360.354 418.931 360.831 418.562C361.901 417.736 362.832 416.489 363.548 414.949C364.321 413.292 364.843 411.295 365.023 409.114C365.066 408.6 365.089 408.078 365.093 407.546V407.424C365.093 400.651 361.811 395.161 357.761 395.161C353.88 395.161 350.703 400.206 350.447 406.591C350.437 406.866 350.431 407.144 350.431 407.424Z" fill="#FFCE00"/>
<path d="M356.621 414.411C356.566 414.27 356.511 414.128 356.457 413.982C356.204 413.322 355.958 412.632 355.719 411.918C351.461 399.26 349.298 379.209 349.091 355.006C349.087 354.57 349.12 354.161 349.179 353.816C349.283 353.196 349.473 352.779 349.69 352.779H335.737C335.178 352.779 334.691 353.196 334.422 353.816C334.27 354.161 334.187 354.57 334.195 355.006C334.73 379.209 340.296 399.26 351.255 411.918C351.87 412.632 352.504 413.322 353.155 413.982C353.294 414.128 353.436 414.27 353.577 414.411C354.119 414.949 354.671 415.474 355.236 415.979C355.241 416.041 355.248 416.103 355.255 416.166H357.273C357.271 416.103 357.268 416.041 357.266 415.979C357.046 415.474 356.832 414.949 356.621 414.411Z" fill="#FFEFB1"/>
<path d="M359.316 417.922C359.318 418.42 359.32 418.916 359.325 419.404C359.354 423.9 359.482 427.994 359.812 431.251C359.818 431.318 359.826 431.385 359.832 431.449C361.091 431.586 361.431 433.07 360.651 433.724C360.585 433.779 360.509 433.829 360.424 433.872C362.648 440.949 369.582 443.657 377.798 443.978V443.501C377.798 442.362 377.034 441.423 376.054 441.342C370.292 440.863 365.631 438.546 362.262 434.061C362.178 433.951 362.095 433.836 362.013 433.721C362.223 433.716 362.419 433.637 362.58 433.508C362.863 433.286 363.046 432.912 363.046 432.486C363.046 432.143 362.927 431.837 362.735 431.612C362.541 431.389 362.277 431.25 361.982 431.25H361.264C360.893 428.358 360.597 423.287 360.756 419.713C360.775 419.308 360.798 418.923 360.828 418.561C361.899 417.735 362.83 416.488 363.546 414.948C379.103 402.599 386.594 381.24 387.267 355.006C387.277 354.571 387.178 354.161 386.995 353.817H388.406V348.298H381.195C381.168 349.534 381.127 351.554 381.074 352.78C381.061 353.125 381.045 353.472 381.028 353.817C380.05 373.876 375.662 392.244 365.091 407.545C363.946 409.207 362.727 410.83 361.431 412.415C361.279 413.849 361.074 415.094 360.579 416.167C360.484 416.373 360.379 416.569 360.259 416.763C360.01 417.175 359.7 417.563 359.316 417.922Z" fill="#DD970A"/>
<path d="M352.251 433.697H363.592" stroke="#DD970A" stroke-width="3.95015" stroke-miterlimit="10" stroke-linecap="round"/>
<path d="M358.907 431.716H363.593" stroke="#DD970A" stroke-width="3.95015" stroke-miterlimit="10" stroke-linecap="round"/>
<path d="M355.143 431.716H358.907" stroke="#FFCE00" stroke-width="3.95015" stroke-miterlimit="10" stroke-linecap="round"/>
<path d="M353.733 433.691H352.254C351.163 433.691 350.279 432.806 350.279 431.716C350.279 430.625 351.163 429.741 352.254 429.741H359.532C360.623 429.741 361.159 432.01 361.159 433.1C361.159 434.191 354.823 433.691 353.733 433.691Z" fill="#DD970A"/>
<path d="M355.214 421.445H360.289" stroke="#DD970A" stroke-width="3.95015" stroke-miterlimit="10" stroke-linecap="round"/>
<path d="M357.106 419.768H360.288" stroke="#DD970A" stroke-width="3.95015" stroke-miterlimit="10" stroke-linecap="round"/>
<path d="M355.214 419.768H355.94" stroke="#DD970A" stroke-width="3.95015" stroke-miterlimit="10" stroke-linecap="round"/>
<path d="M349.822 412.787H365.886" stroke="#DD970A" stroke-width="3.95015" stroke-miterlimit="10" stroke-linecap="round"/>
<path d="M360.388 410.615H365.885" stroke="#DD970A" stroke-width="3.95015" stroke-miterlimit="10" stroke-linecap="round"/>
<path d="M349.822 410.615H360.389" stroke="#FFCE00" stroke-width="3.95015" stroke-miterlimit="10" stroke-linecap="round"/>
<path d="M328.214 354.868L387.287 356.843V353.419H328.214V354.868Z" fill="#DD970A"/>
<path d="M388.483 348.069H327.363V353.586H388.483V348.069Z" fill="#FFCE00"/>
<path d="M331.051 348.069C331.053 349.676 331.073 352.041 331.109 353.586H338.336C338.354 352.044 338.371 349.678 338.381 348.069H331.051Z" fill="#FFEFB1"/>
<path d="M377.796 443.498V443.973C377.774 445.144 376.948 446.087 375.929 446.087L338.436 446.052C337.405 446.05 336.571 445.081 336.571 443.884V443.533C336.571 443.214 336.63 442.91 336.738 442.638H377.642C377.741 442.901 377.796 443.192 377.796 443.498Z" fill="#C16D08"/>
</g>
<path d="M183.302 112.857C185.289 134.492 187.25 156.597 182.148 177.718C177.045 198.839 163.511 219.176 143.083 226.579C123.631 233.625 101.255 228.1 81.9553 235.56C60.573 243.826 48.1803 265.683 37.5 285.968C46.3719 286.765 53.3918 293.663 58.9302 300.644C68.2902 312.448 75.7807 325.678 85.5067 337.181C95.2327 348.685 107.904 358.69 122.798 360.934C141.762 363.793 160.7 353.722 179.799 355.474C200.445 357.365 217.069 372.386 233.056 385.58C234.651 386.896 236.377 388.251 238.429 388.478C241.279 388.792 243.854 386.857 245.946 384.896C255.938 375.527 262.644 363.244 268.696 350.955C286.798 314.204 300.646 275.113 306.738 234.601C312.829 194.089 310.99 152.074 298.515 113.053" fill="#CD2E27"/>
<path d="M264.256 109.209C261.38 107.514 257.855 107.131 254.6 106.7C250.979 106.22 247.336 105.941 243.684 105.889C236.664 105.784 229.492 106.334 222.642 107.92C220.969 108.307 219.308 108.739 217.661 109.223C216.289 109.623 214.406 109.998 213.678 111.419C213.321 112.12 213.339 112.818 213.818 113.414C214.859 114.713 216.764 114.16 218.097 113.789C225.038 111.868 232.124 110.417 239.327 109.976C243.279 109.737 247.253 109.772 251.205 110.059C255.314 110.356 259.62 111.567 263.724 111.197C264.727 111.096 265.223 109.776 264.256 109.209Z" fill="#EE4023"/>
<path d="M272.439 416.767C272.273 412.754 279.52 202.992 279.52 202.992L236.973 183.949L245.296 416.767H272.439Z" fill="#304798"/>
<path d="M248.572 393.771L247.054 428.57L265.267 429.365L266.786 394.566L248.572 393.771Z" fill="#8C552C"/>
<path d="M265.223 429.979L247.008 429.186C246.656 429.169 246.385 428.872 246.398 428.524L247.915 393.72C247.932 393.367 248.229 393.097 248.577 393.11L266.792 393.903C267.145 393.921 267.415 394.217 267.402 394.566L265.885 429.369C265.872 429.722 265.576 429.997 265.223 429.979ZM247.701 427.94L264.643 428.676L266.103 395.145L249.161 394.409L247.701 427.94Z" fill="#603017"/>
<path d="M244.171 385.255L244.764 442.979C244.764 442.979 258.877 444.177 266.982 444.582C276.617 445.062 300.714 446.112 300.714 446.112L300.056 437.532L273.236 425.17L276.007 386.967L244.171 385.255Z" fill="#F17B21"/>
<path d="M244.695 439.893L244.089 443.51C244.089 443.51 259.681 444.215 267.629 444.612C277.076 445.083 300.711 446.115 300.711 446.115L300.449 442.603L244.695 439.893Z" fill="#304798"/>
<path d="M211.133 205.04L187.568 414.907L212.807 418.101L259.353 205.04H211.133Z" fill="#304798"/>
<path d="M209.199 430.171H190.85L196.427 393.664H214.777L209.199 430.171Z" fill="#8C552C"/>
<path d="M190.418 430.541C190.309 430.415 190.261 430.249 190.287 430.084L195.864 393.581C195.908 393.302 196.148 393.097 196.427 393.097H214.772C214.937 393.097 215.094 393.171 215.203 393.298C215.312 393.424 215.36 393.59 215.334 393.755L209.756 430.258C209.713 430.537 209.473 430.742 209.194 430.742H190.849C190.683 430.737 190.526 430.668 190.418 430.541ZM214.109 394.234H196.915L191.511 429.596H208.706L214.109 394.234Z" fill="#603017"/>
<path d="M194.37 455.806H174.295V460.625H194.37V455.806Z" fill="#304798"/>
<path d="M211.221 431.604H189.329L174.295 452.289L194.375 455.806L211.221 431.604Z" fill="#F17B21"/>
<path d="M211.221 431.605L186.082 437.121L189.433 386.966L220.245 388.513L211.221 431.605Z" fill="#F17B21"/>
<path d="M211.22 431.604L194.374 455.806V460.621L211.22 437.121V431.604Z" fill="#304798"/>
<path d="M194.37 452.29H174.295V455.806H194.37V452.29Z" fill="#F17B21"/>
<path d="M211.221 431.604V422.602L204.336 433.217L211.221 431.604Z" fill="#F17B21"/>
<path d="M203.739 399.289C204.022 399.289 204.266 399.089 204.31 398.81L227.527 249.535C227.575 249.225 227.357 248.938 227.043 248.89C226.729 248.837 226.433 249.055 226.385 249.365L203.168 398.64C203.12 398.949 203.338 399.237 203.652 399.285C203.682 399.289 203.709 399.289 203.739 399.289Z" fill="#F17B21"/>
<path d="M203.791 406.719C198.571 407.782 193.015 407.124 188.196 404.862" stroke="#304798" stroke-width="1.30725" stroke-miterlimit="10" stroke-linecap="round" stroke-linejoin="round"/>
<path d="M202.798 425.26C197.469 426.637 191.529 426.271 186.492 424.249" stroke="#304798" stroke-width="1.4243" stroke-miterlimit="10" stroke-linecap="round" stroke-linejoin="round"/>
<path d="M277.49 111.837C281.429 113.859 283.856 118.299 285.926 122.121C290.92 131.341 295.055 140.993 299.191 150.628C299.378 151.064 299.561 151.582 299.326 151.992C299.169 152.262 298.864 152.41 298.58 152.541C295.277 154.048 291.425 155.861 287.756 156.136C285.508 156.306 283.072 155.286 281.259 153.983C279.307 152.584 279.159 149.992 278.658 147.822C277.281 141.887 276.745 135.795 276.239 129.738C275.743 123.768 272.836 118.631 272.771 112.643C272.762 111.955 272.884 111.114 273.529 110.87C273.782 110.774 274.061 110.8 274.327 110.839C275.477 110.996 276.527 111.345 277.49 111.837Z" fill="#E96F24"/>
<path d="M201.621 115.506C199.303 119.175 200.288 125.642 200.989 129.311C202.384 136.584 203.778 143.856 205.168 151.129C206.99 160.646 208.815 170.163 210.637 179.679L208.367 226.283L280.261 225.843L285.83 151.608L274.993 110.818C252.207 111.48 228.947 110.761 206.257 112.805C204.022 113.009 202.554 114.029 201.621 115.506Z" fill="#F17B21"/>
<path d="M242.574 124.849C232.255 125.149 223.898 118.774 219.728 114.813C219.462 114.561 219.453 114.142 219.701 113.881C219.954 113.619 220.373 113.602 220.634 113.855C228.7 121.511 244.901 131.629 262.762 113.279C263.019 113.018 263.438 113.014 263.695 113.266C263.956 113.519 263.961 113.937 263.708 114.199C256.265 121.855 249.032 124.661 242.574 124.849Z" fill="#304798"/>
<path fill-rule="evenodd" clip-rule="evenodd" d="M256.19 94.7948C255.07 101.187 254.822 108.66 257.158 110.525C261.28 113.824 263.48 113.292 262.744 114.099C249.515 128.592 231.819 126.221 220.89 114.748C219.465 113.253 226.52 112.909 227.357 110.704C229.505 105.057 228.08 94.0802 224.925 84.2932C232.137 83.4565 257.31 88.4023 256.19 94.7948Z" fill="#8C552C"/>
<path d="M242.457 124.818C242.295 124.822 242.134 124.826 241.969 124.826C234.173 124.909 226.316 121.401 220.412 115.201C219.989 114.756 220.02 114.329 220.072 114.111C220.286 113.266 221.462 112.887 223.087 112.355C224.499 111.898 226.434 111.27 226.743 110.464C228.665 105.414 227.68 94.9773 224.299 84.4888C224.238 84.3014 224.264 84.0966 224.373 83.931C224.477 83.7655 224.656 83.6565 224.852 83.6304C231.428 82.8591 250.727 86.4497 255.651 91.6656C256.64 92.7114 257.041 93.8008 256.849 94.8989C255.538 102.398 255.838 108.612 257.577 110.002C259.795 111.776 261.442 112.403 262.327 112.739C262.98 112.987 263.412 113.153 263.529 113.645C263.599 113.946 263.503 114.242 263.238 114.534C257.294 121.048 250.117 124.595 242.457 124.818ZM221.466 114.39C227.136 120.281 234.587 123.584 241.96 123.51C249.293 123.414 256.183 120.151 261.93 114.011C261.904 114.002 261.878 113.994 261.856 113.98C260.906 113.619 259.133 112.943 256.754 111.039C253.359 108.324 255.154 96.9339 255.551 94.6767C255.669 94.0012 255.39 93.3128 254.692 92.5764C250.379 88.0097 232.574 84.5324 225.811 84.881C229.127 95.5133 229.985 105.675 227.981 110.935C227.449 112.329 225.353 113.009 223.501 113.61C222.822 113.837 221.85 114.15 221.466 114.39Z" fill="#603017"/>
<path d="M256.059 110.085C258.63 114.539 231.174 114.09 229.771 100.133L255.894 98.6687C255.894 98.6687 253.031 104.839 256.059 110.085Z" fill="#784521"/>
<path d="M242.512 124.701C232.211 125.001 223.87 118.635 219.709 114.683C219.443 114.43 219.435 114.016 219.683 113.75C219.936 113.484 220.35 113.471 220.615 113.724C228.668 121.372 244.839 131.468 262.665 113.149C262.918 112.887 263.336 112.883 263.598 113.136C263.859 113.389 263.864 113.807 263.611 114.068C256.173 121.711 248.957 124.513 242.512 124.701Z" fill="#304798"/>
<path d="M252.519 102.128C265.992 96.9609 272.371 80.9244 266.765 66.3097C261.16 51.695 245.694 44.0364 232.221 49.2038C218.748 54.3711 212.37 70.4076 217.975 85.0223C223.58 99.637 239.046 107.296 252.519 102.128Z" fill="#8C552C"/>
<path d="M217.224 85.3009C211.468 70.298 218.065 53.77 231.926 48.4494C245.788 43.1289 261.749 51.0117 267.501 66.0146C273.253 81.0175 266.66 97.5455 252.795 102.866C238.938 108.182 222.98 100.299 217.224 85.3009ZM218.719 84.7257C224.157 98.9051 239.19 106.369 252.228 101.371C265.266 96.369 271.453 80.7647 266.011 66.5854C260.573 52.4061 245.539 44.9373 232.502 49.9397C219.464 54.9421 213.281 70.5464 218.719 84.7257Z" fill="#603017"/>
<path d="M240.062 80.1847C241.162 80.1847 242.053 79.2931 242.053 78.1933C242.053 77.0935 241.162 76.2019 240.062 76.2019C238.962 76.2019 238.07 77.0935 238.07 78.1933C238.07 79.2931 238.962 80.1847 240.062 80.1847Z" fill="#070808"/>
<path d="M238.299 78.2959C238.799 78.2959 239.205 77.8901 239.205 77.3895C239.205 76.889 238.799 76.4832 238.299 76.4832C237.798 76.4832 237.393 76.889 237.393 77.3895C237.393 77.8901 237.798 78.2959 238.299 78.2959Z" fill="white"/>
<path d="M234.964 92.1443C237.385 92.1443 239.347 90.1816 239.347 87.7606C239.347 85.3396 237.385 83.377 234.964 83.377C232.543 83.377 230.58 85.3396 230.58 87.7606C230.58 90.1816 232.543 92.1443 234.964 92.1443Z" fill="#F17B21"/>
<path d="M262.73 81.0644C261.837 78.7332 263.001 76.123 265.332 75.2297C266.195 74.8986 267.097 74.8506 267.933 75.038C268.308 78.1231 267.994 81.169 267.079 83.9578C265.214 84.0101 263.436 82.9033 262.73 81.0644Z" fill="#F17B21"/>
<path d="M253.112 84.3711C254.489 83.8438 255.592 82.676 255.971 81.1422C255.979 81.1073 255.984 81.0681 255.988 81.0332C256.019 80.6367 255.871 78.3969 250.119 73.2028C249.844 72.9544 249.421 72.9762 249.177 73.2507C248.929 73.5252 248.951 73.9479 249.225 74.1919C254.053 78.5494 254.594 80.5801 254.65 80.9199C254.171 82.6368 252.402 83.6826 250.655 83.2512C250.297 83.164 249.936 83.3819 249.848 83.7392C249.761 84.0966 249.979 84.4582 250.337 84.5454C251.291 84.7807 252.254 84.6979 253.112 84.3711Z" fill="#603017"/>
<path d="M233.138 76.9208C232.951 76.9949 232.742 77.021 232.528 76.9992C231.805 76.9251 231.277 76.2759 231.356 75.5482C231.613 73.1036 232.768 71.1558 234.598 70.0664C236.489 68.9509 238.86 68.8376 241.112 69.7701C241.788 70.049 242.106 70.8203 241.827 71.4913C241.548 72.1667 240.777 72.4848 240.106 72.206C238.65 71.6046 237.09 71.6438 235.949 72.3367C234.833 72.999 234.149 74.2104 233.979 75.8271C233.922 76.3369 233.587 76.7508 233.138 76.9208Z" fill="#050505"/>
<path d="M253.603 69.2169C253.433 69.3215 253.233 69.3912 253.019 69.413C252.296 69.4783 251.655 68.9424 251.59 68.2146C251.376 65.7657 252.13 63.6349 253.721 62.21C255.359 60.7546 257.664 60.1881 260.056 60.6674C260.771 60.8112 261.233 61.5084 261.089 62.2187C260.945 62.9333 260.248 63.3952 259.533 63.2514C257.987 62.9377 256.466 63.2776 255.481 64.1752C254.514 65.0424 254.074 66.3583 254.217 67.9793C254.265 68.4935 254.008 68.9598 253.603 69.2169Z" fill="#050505"/>
<path fill-rule="evenodd" clip-rule="evenodd" d="M246.174 43.8425C259.342 27.9986 277.739 55.7603 248.405 59.7997C240.043 60.9501 216.538 69.8525 221.523 75.2689C229.04 83.4392 225.371 95.0128 225.563 97.3833C202.625 90.8557 204.285 69.9048 211.592 66.153C211.592 66.153 206.459 52.7667 224.234 49.4899C224.234 49.4899 231.816 35.2931 246.174 43.8425Z" fill="black"/>
<path fill-rule="evenodd" clip-rule="evenodd" d="M227.309 84.3892C225.98 80.925 222.093 79.1951 218.633 80.5241C215.173 81.8532 213.439 85.7357 214.768 89.1999C216.097 92.6642 219.98 94.3941 223.444 93.065C226.908 91.7404 228.638 87.8535 227.309 84.3892Z" fill="#8C552C"/>
<path d="M223.321 89.2391C223.504 89.1694 223.653 89.0082 223.696 88.799C223.766 88.4722 223.557 88.1497 223.23 88.08L218.628 87.0996C218.302 87.0299 217.979 87.239 217.909 87.5658C217.84 87.8927 218.049 88.2151 218.376 88.2848L222.977 89.2653C223.095 89.2914 223.217 89.2783 223.321 89.2391Z" fill="#603017"/>
<path d="M218.717 88.2599C218.817 88.2207 218.909 88.1553 218.978 88.0681L221.876 84.3643C222.081 84.0984 222.037 83.7193 221.772 83.5145C221.506 83.3097 221.127 83.3533 220.922 83.6191L218.024 87.323C217.819 87.5888 217.863 87.9679 218.129 88.1727C218.299 88.3034 218.525 88.3296 218.717 88.2599Z" fill="#603017"/>
<path d="M260.787 68.2272C259.201 67.9178 257.345 68.7152 256.434 70.0442C255.999 70.6804 255.633 71.4866 255.598 72.2709C255.558 73.1773 255.807 73.7176 256.604 74.0924C256.796 74.1839 257.018 74.1142 257.084 73.8963C257.206 73.4997 257.332 73.247 257.31 72.8026C257.288 72.2971 257.232 71.7655 257.441 71.2861C257.663 70.7632 258.125 70.3972 258.648 70.1924C259.227 69.9658 259.655 70.1314 260.221 70.2796C261.554 70.6194 262.117 68.4843 260.787 68.2272Z" fill="#603017"/>
<path d="M240.028 91.2785C245.297 93.3962 251.519 92.9692 256.447 90.1499" stroke="#603017" stroke-width="1.3944" stroke-miterlimit="10" stroke-linecap="round" stroke-linejoin="round"/>
<path d="M290.435 158.78C290.449 158.863 290.457 159.604 290.383 158.597C290.348 158.153 290.431 157.756 290.313 157.299C290.083 156.41 289.616 155.669 288.862 154.998C287.699 153.961 286.047 153.281 284.614 152.527C281.921 151.12 279.237 149.791 276.426 148.558C270.857 146.113 265.301 143.669 259.937 140.915C254.647 138.2 249.423 135.372 244.242 132.509C239.043 129.637 234.341 126.321 229.853 122.687C227.387 120.687 225.012 118.609 222.75 116.439C221.657 115.388 220.598 114.308 219.456 113.292C217.896 111.911 216.663 111.885 214.615 112.107C214.013 112.173 213.66 112.395 213.434 112.87C212.885 114.016 212.423 115.001 213.024 116.242C213.647 117.524 215.159 118.805 216.227 119.842C218.232 121.798 220.415 123.637 222.628 125.424C227.243 129.149 232.284 132.413 237.191 135.847C247.061 142.754 258.046 148.283 268.835 154.079C271.912 155.73 274.962 157.356 278.182 158.794C279.786 159.508 281.363 160.293 282.997 160.95C284.235 161.452 285.79 161.73 287.146 161.434C287.464 161.364 287.799 161.251 288.091 161.134C288.527 160.959 290.488 160.188 288.549 160.876C289.494 160.545 290.584 159.791 290.435 158.78Z" fill="#EE4023"/>
<path d="M264.382 108.224C264.177 108.826 263.977 109.432 263.768 110.033C262.805 112.804 261.689 115.541 260.447 118.234C258.195 123.127 255.584 127.811 252.303 132.274C249.035 136.718 245.706 141.145 242.268 145.494C238.778 149.908 234.96 154.105 231.134 158.31C229.204 160.427 227.431 162.593 225.692 164.829C224.764 166.023 223.609 167.225 223.073 168.585C222.724 169.461 222.672 170.302 222.907 171.19C223.025 171.648 223.3 171.975 223.491 172.393C223.661 172.759 223.709 172.877 223.705 172.886C224.219 173.609 225.387 173.836 226.298 173.805C224.197 173.875 226.359 173.87 226.842 173.875C227.165 173.879 227.526 173.862 227.849 173.809C229.226 173.596 230.498 172.79 231.37 171.892C232.524 170.711 233.566 169.439 234.66 168.219C236.86 165.765 238.817 163.203 240.782 160.606C247.671 151.499 254.874 142.566 260.373 132.783C263.11 127.92 266.051 123.162 268.374 118.138C269.489 115.728 270.548 113.279 271.393 110.791C271.677 109.954 272.073 108.97 272.309 108.007C269.659 108.068 267.019 108.133 264.382 108.224Z" fill="#EE4023"/>
<path d="M242.735 162.615C240.194 161.609 237.288 161.853 234.726 162.794C232.447 163.631 224.241 169.513 222.634 165.321C222.342 164.555 222.411 163.7 222.525 162.886C222.08 163.025 221.583 162.746 221.344 162.345C221.104 161.944 221.069 161.452 221.1 160.986C221.169 159.835 221.596 158.79 222.198 157.827C220.834 157.064 221.666 154.057 222.224 152.942C223.209 150.985 225.026 149.525 227.056 148.759C229.732 147.748 232.691 147.796 235.536 148.092C237.266 148.271 238.987 148.541 240.691 148.894C241.933 149.151 243.205 149.473 244.216 150.244C245.798 151.451 246.43 153.508 246.966 155.426C247.354 156.803 247.724 158.345 247.036 159.6C246.042 161.417 243.589 161.596 242.412 163.243" fill="#8C552C"/>
<path d="M242.735 162.615C240.194 161.609 237.288 161.853 234.726 162.794C232.447 163.631 224.241 169.513 222.634 165.321C222.342 164.555 222.411 163.7 222.525 162.886C222.08 163.025 221.583 162.746 221.344 162.345C221.104 161.944 221.069 161.452 221.1 160.986C221.169 159.835 221.596 158.79 222.198 157.827C220.834 157.064 221.666 154.057 222.224 152.942C223.209 150.985 225.026 149.525 227.056 148.759C229.732 147.748 232.691 147.796 235.536 148.092C237.266 148.271 238.987 148.541 240.691 148.894C241.933 149.151 243.205 149.473 244.216 150.244C245.798 151.451 246.43 153.508 246.966 155.426C247.354 156.803 247.724 158.345 247.036 159.6C246.042 161.417 243.589 161.596 242.412 163.243" stroke="#603017" stroke-width="1.30725" stroke-miterlimit="10"/>
<path d="M195.103 125.08C196.048 121.846 197.573 118.809 199.835 116.208C202.035 113.68 204.136 113.345 207.19 112.709C209.151 112.299 210.454 112.948 211.648 114.534C215.722 119.964 216.838 128.609 218.014 135.093C219.74 144.588 221.086 154.153 222.054 163.757C222.18 165.003 262.051 153.865 272.352 150.989C272.745 150.88 273.176 150.771 273.546 150.933C273.843 151.059 274.048 151.334 274.231 151.599C276.784 155.286 278.274 159.704 278.466 164.184C266.361 172.232 252.282 178.254 239.013 184.115C230.058 188.072 219.892 193.88 209.927 189.706C205.844 187.998 205.029 185.998 203.543 182.106C200.266 173.522 197.782 164.641 196.131 155.604C194.985 149.347 194.24 143.015 193.9 136.657C193.691 132.801 194.013 128.814 195.103 125.08Z" fill="#E96F24"/>
<path d="M216.511 132.81C219.278 143.943 221.326 155.251 222.638 166.646" stroke="#304798" stroke-width="0.871502" stroke-miterlimit="10" stroke-linecap="round" stroke-linejoin="round"/>
<path d="M222.489 163.748C235.257 160.218 251.14 157.639 263.859 153.939" stroke="#304798" stroke-width="0.871502" stroke-miterlimit="10" stroke-linecap="round" stroke-linejoin="round"/>
<path d="M296.262 144.388C297.303 144.41 298.249 144.536 299.181 145.298C300.467 146.349 301.295 147.943 301.857 149.473C302.689 151.743 303.134 154.196 304.45 156.231C305.099 157.238 305.953 158.127 306.402 159.238C306.746 160.092 306.824 161.046 306.624 161.944C306.45 162.737 305.931 163.574 305.125 163.657C304.624 163.709 304.145 163.452 303.722 163.182C300.018 160.833 299.116 156.519 294.658 155.011C292.998 154.449 291.207 154.441 289.451 154.441C285.965 154.436 282.479 154.432 278.997 154.427C278.104 154.427 277.124 154.397 276.444 153.813C274.113 151.817 282.27 147.412 283.804 146.715C287.207 145.176 291.063 144.287 294.802 144.379C295.308 144.392 295.796 144.379 296.262 144.388Z" fill="#8C552C" stroke="#603017" stroke-width="1.30725" stroke-miterlimit="10"/>
<path d="M305.086 164.58C305.953 165.971 306.654 167.443 306.803 169.06C307.199 173.348 303.626 176.956 299.974 179.239C298.323 180.272 296.536 181.196 294.597 181.387C293.203 181.527 291.8 181.278 290.423 181.013C273.603 177.788 257.545 171.33 241.301 165.953C241.009 165.857 240.699 165.744 240.529 165.487C240.381 165.265 240.381 164.977 240.385 164.707C240.473 160.049 241.348 155.404 242.965 151.037C243.166 150.501 243.41 149.926 243.911 149.647C244.438 149.351 244.839 148.846 245.427 148.976C252.966 150.602 261.328 150.758 269.001 151.931C276.348 153.051 283.865 153.621 291.272 154.323C292.798 154.467 294.34 154.619 295.778 155.142C299.247 156.401 301.595 159.574 303.731 162.58C304.188 163.234 304.659 163.896 305.086 164.58Z" fill="#F17B21"/>
<path d="M240.526 165.491C239.737 159.656 241.131 154.693 243.868 149.303C244.125 148.802 245.306 149.124 245.776 149.181C249.82 149.634 253.864 150.083 257.908 150.527C263.459 151.137 269.011 151.743 274.566 152.327C279.011 152.798 283.456 153.273 287.905 153.66" stroke="#304798" stroke-width="0.871502" stroke-miterlimit="10" stroke-linecap="round" stroke-linejoin="round"/>
<path d="M297.809 152.554C300.393 154.702 303.757 156.101 305.561 159.051C305.6 159.116 305.692 159.06 305.665 158.99C304.219 155.656 302.406 152.066 298.415 151.517C297.879 151.443 297.269 152.105 297.809 152.554Z" fill="#603017"/>
<path d="M296.797 147.251C297.673 147.678 298.597 148.375 299.386 148.959C300.227 149.582 300.981 150.101 301.931 150.554C302.061 150.615 302.179 150.515 302.157 150.379C301.978 149.194 301.456 148.392 300.493 147.673C299.983 147.29 299.464 146.989 298.876 146.737C298.283 146.484 297.787 146.488 297.159 146.375C296.671 146.292 296.274 146.998 296.797 147.251Z" fill="#603017"/>
<path d="M262.194 393.032C262.469 392.979 262.678 392.749 262.674 392.483L259.567 249.395C259.563 249.099 259.297 248.872 258.979 248.885C258.661 248.894 258.408 249.151 258.412 249.447L261.519 392.535C261.523 392.831 261.789 393.058 262.107 393.045C262.138 393.04 262.168 393.036 262.194 393.032Z" fill="#F17B21"/>
<path d="M275.132 403.729C271.808 403.599 268.505 402.81 265.489 401.394" stroke="#304798" stroke-width="1.30725" stroke-miterlimit="10" stroke-linecap="round" stroke-linejoin="round"/>
<path d="M273.743 417.826C270.318 417.852 266.884 417.238 263.794 415.996" stroke="#304798" stroke-width="1.4243" stroke-miterlimit="10" stroke-linecap="round" stroke-linejoin="round"/>
<path d="M226.664 162.855C226.102 161.295 224.193 161.256 222.812 160.968C221.818 160.763 220.969 162.872 220.977 162.894C220.28 163.565 217.757 168.616 216.829 170.162C215.104 173.038 213.635 176.211 212.567 179.392C212.262 180.289 212.881 180.895 213.609 181.004C213.605 181.013 213.6 181.017 213.596 181.026C212.511 182.603 214.794 184.028 216.084 182.947C216.302 182.764 216.507 182.573 216.698 182.381C216.585 183.941 218.908 184.943 219.696 183.344C221.527 179.623 224.76 170.546 224.925 169.927C225.239 169.121 227.2 164.35 226.664 162.855Z" fill="#F16754"/>
<path d="M218.079 187.052C218.288 186.499 218.502 185.941 218.711 185.387C220.798 179.832 226.668 162.855 226.668 162.855L222.415 160.693C218.558 167.517 214.698 174.337 210.841 181.161" stroke="#EE4023" stroke-width="1.30725" stroke-miterlimit="10" stroke-linecap="round" stroke-linejoin="round"/>
<path d="M227.117 186.546C226.372 184.503 224.272 182.629 222.481 181.195C219.369 178.703 215.779 176.668 211.848 176.001C208.572 175.448 205.373 175.905 202.449 177.461C202.083 177.657 201.499 177.888 201.255 178.241C201.19 178.333 201.168 178.45 201.151 178.559C200.998 179.431 200.911 180.324 200.95 181.204C201.011 182.681 201.43 183.993 201.839 185.396C202.288 186.934 202.937 188.416 203.791 189.771C205.482 192.46 208.018 194.638 211.134 195.431C211.452 195.514 211.779 195.58 212.101 195.632C216.881 196.377 222.86 194.586 226.15 190.952C227.496 189.466 227.636 187.967 227.117 186.546Z" fill="#EE4023"/>
<path d="M227.54 189.026C227.348 187.157 227.013 185.623 225.971 184.032C224.952 182.477 223.636 181.126 222.132 180.036C219.278 177.971 215.836 176.829 212.345 176.333C208.424 175.775 204.166 176.071 200.924 178.35" stroke="#F16754" stroke-width="1.30725" stroke-miterlimit="10" stroke-linecap="round" stroke-linejoin="round"/>
<path d="M296.819 155.391C294.902 156.419 293.346 158.763 292.178 160.742C290.152 164.175 288.649 168.019 288.549 172.002C288.466 175.322 289.372 178.425 291.329 181.096C291.573 181.431 291.887 181.976 292.27 182.168C292.37 182.216 292.488 182.224 292.601 182.229C293.486 182.255 294.383 182.211 295.246 182.05C296.702 181.78 297.939 181.179 299.268 180.573C300.728 179.91 302.101 179.056 303.321 178.019C305.739 175.967 307.539 173.143 307.879 169.945C307.913 169.618 307.935 169.287 307.94 168.956C307.996 164.114 305.377 158.454 301.312 155.718C299.652 154.598 298.148 154.676 296.819 155.391Z" fill="#EE4023"/>
<path d="M299.208 154.619C297.386 155.077 295.913 155.626 294.488 156.881C293.094 158.11 291.944 159.609 291.081 161.252C289.438 164.367 288.802 167.94 288.806 171.466C288.811 175.427 289.713 179.601 292.427 182.481" stroke="#F16754" stroke-width="1.30725" stroke-miterlimit="10" stroke-linecap="round" stroke-linejoin="round"/>
<path d="M181.821 112.495C181.546 112.822 181.598 113.31 181.716 113.719C182.391 116.064 184.592 117.589 186.64 118.918C188.483 120.112 190.178 121.663 192.165 122.556C194.362 123.541 196.601 124.435 198.867 125.258C202.214 126.474 205.617 127.607 209.12 128.274C211.164 128.583 213.033 128.661 214.794 127.411C216.472 126.217 217.923 124.474 219.304 122.953C222.986 118.892 224.838 114.404 225.156 108.97C206.85 108.029 182.466 111.724 181.821 112.495Z" fill="#EE4023"/>
<path d="M181.433 112.804C182.396 117.515 188.536 120.548 192.366 122.526C197.05 124.944 202.092 126.687 207.278 127.65C209.722 128.104 212.341 128.374 214.616 127.372C215.849 126.827 216.903 125.942 217.831 124.971C221.875 120.748 223.771 114.935 225.056 109.231" stroke="#F16754" stroke-width="1.30725" stroke-miterlimit="10" stroke-linecap="round" stroke-linejoin="round"/>
<path d="M301.007 111.053C301.282 111.38 301.23 111.868 301.112 112.277C300.437 114.622 298.249 116.147 296.21 117.476C294.375 118.67 292.689 120.221 290.706 121.114C288.519 122.099 286.288 122.992 284.035 123.816C280.706 125.032 277.311 126.165 273.825 126.831C271.79 127.141 269.925 127.219 268.174 125.968C266.5 124.774 265.058 123.031 263.681 121.511C260.016 117.45 258.169 112.961 257.851 107.527C276.082 106.582 300.367 110.277 301.007 111.053Z" fill="#EE4023"/>
<path d="M301.391 111.362C300.433 116.073 294.319 119.106 290.502 121.084C285.835 123.502 280.819 125.245 275.656 126.208C273.22 126.661 270.614 126.932 268.348 125.929C267.119 125.385 266.074 124.5 265.145 123.528C261.119 119.306 259.232 113.493 257.951 107.789" stroke="#F16754" stroke-width="1.30446" stroke-miterlimit="10" stroke-linecap="round" stroke-linejoin="round"/>
</svg>
