<svg width="465" height="509" viewBox="0 0 465 509" fill="none" xmlns="http://www.w3.org/2000/svg">
<path d="M444.128 444.989C444.128 445.123 349.372 445.231 232.511 445.231C115.61 445.231 20.8748 445.122 20.8748 444.989C20.8748 444.856 115.61 444.747 232.511 444.747C349.372 444.747 444.128 444.855 444.128 444.989Z" fill="#263238"/>
<path d="M183.302 112.857C185.289 134.492 187.25 156.597 182.148 177.718C177.045 198.839 163.511 219.176 143.083 226.579C123.631 233.625 101.255 228.1 81.9553 235.56C60.573 243.826 48.1803 265.683 37.5 285.968C46.3719 286.765 53.3918 293.663 58.9302 300.644C68.2902 312.448 75.7807 325.678 85.5067 337.181C95.2327 348.685 107.904 358.69 122.798 360.934C141.762 363.793 160.7 353.722 179.799 355.474C200.445 357.365 217.069 372.386 233.056 385.58C234.651 386.896 236.377 388.251 238.429 388.478C241.279 388.792 243.854 386.857 245.946 384.896C255.938 375.527 262.644 363.244 268.696 350.955C286.798 314.204 300.646 275.113 306.738 234.601C312.829 194.089 310.99 152.074 298.515 113.053" fill="#CD2E27"/>
<path d="M264.256 109.209C261.38 107.514 257.855 107.131 254.6 106.7C250.979 106.22 247.336 105.941 243.684 105.889C236.664 105.784 229.492 106.334 222.642 107.92C220.969 108.307 219.308 108.739 217.661 109.223C216.289 109.623 214.406 109.998 213.678 111.419C213.321 112.12 213.339 112.818 213.818 113.414C214.859 114.713 216.764 114.16 218.097 113.789C225.038 111.868 232.124 110.417 239.327 109.976C243.279 109.737 247.253 109.772 251.205 110.059C255.314 110.356 259.62 111.567 263.724 111.197C264.727 111.096 265.223 109.776 264.256 109.209Z" fill="#EE4023"/>
<path d="M272.439 416.767C272.273 412.754 279.52 202.992 279.52 202.992L236.973 183.949L245.296 416.767H272.439Z" fill="#304798"/>
<path d="M248.572 393.771L247.054 428.57L265.267 429.365L266.786 394.566L248.572 393.771Z" fill="#8C552C"/>
<path d="M265.223 429.979L247.008 429.186C246.656 429.169 246.385 428.872 246.398 428.524L247.915 393.72C247.932 393.367 248.229 393.097 248.577 393.11L266.792 393.903C267.145 393.921 267.415 394.217 267.402 394.566L265.885 429.369C265.872 429.722 265.576 429.997 265.223 429.979ZM247.701 427.94L264.643 428.676L266.103 395.145L249.161 394.409L247.701 427.94Z" fill="#603017"/>
<path d="M244.171 385.255L244.764 442.979C244.764 442.979 258.877 444.177 266.982 444.582C276.617 445.062 300.714 446.112 300.714 446.112L300.056 437.532L273.236 425.17L276.007 386.967L244.171 385.255Z" fill="#F17B21"/>
<path d="M244.695 439.893L244.089 443.51C244.089 443.51 259.681 444.215 267.629 444.612C277.076 445.083 300.711 446.115 300.711 446.115L300.449 442.603L244.695 439.893Z" fill="#304798"/>
<path d="M211.133 205.04L187.568 414.907L212.807 418.101L259.354 205.04H211.133Z" fill="#304798"/>
<path d="M209.199 430.171H190.85L196.427 393.664H214.777L209.199 430.171Z" fill="#8C552C"/>
<path d="M190.418 430.541C190.309 430.415 190.261 430.249 190.287 430.084L195.864 393.581C195.908 393.302 196.148 393.097 196.427 393.097H214.772C214.937 393.097 215.094 393.171 215.203 393.298C215.312 393.424 215.36 393.59 215.334 393.755L209.756 430.258C209.713 430.537 209.473 430.742 209.194 430.742H190.849C190.683 430.737 190.526 430.668 190.418 430.541ZM214.109 394.234H196.915L191.511 429.596H208.706L214.109 394.234Z" fill="#603017"/>
<path d="M194.37 455.806H174.295V460.625H194.37V455.806Z" fill="#304798"/>
<path d="M211.221 431.604H189.329L174.295 452.289L194.375 455.806L211.221 431.604Z" fill="#F17B21"/>
<path d="M211.221 431.605L186.082 437.121L189.433 386.966L220.245 388.513L211.221 431.605Z" fill="#F17B21"/>
<path d="M211.22 431.604L194.374 455.806V460.621L211.22 437.121V431.604Z" fill="#304798"/>
<path d="M194.37 452.29H174.295V455.806H194.37V452.29Z" fill="#F17B21"/>
<path d="M211.221 431.604V422.602L204.336 433.217L211.221 431.604Z" fill="#F17B21"/>
<path d="M203.739 399.289C204.022 399.289 204.266 399.089 204.31 398.81L227.527 249.535C227.575 249.225 227.357 248.938 227.043 248.89C226.729 248.837 226.433 249.055 226.385 249.365L203.168 398.64C203.12 398.949 203.338 399.237 203.652 399.285C203.682 399.289 203.709 399.289 203.739 399.289Z" fill="#F17B21"/>
<path d="M203.791 406.719C198.571 407.782 193.015 407.124 188.196 404.862" stroke="#304798" stroke-width="1.30725" stroke-miterlimit="10" stroke-linecap="round" stroke-linejoin="round"/>
<path d="M202.798 425.26C197.469 426.637 191.529 426.271 186.492 424.249" stroke="#304798" stroke-width="1.4243" stroke-miterlimit="10" stroke-linecap="round" stroke-linejoin="round"/>
<path d="M277.49 111.837C281.429 113.859 283.856 118.299 285.926 122.121C290.92 131.341 295.055 140.993 299.191 150.628C299.378 151.064 299.561 151.582 299.326 151.992C299.169 152.262 298.864 152.41 298.58 152.541C295.277 154.048 291.425 155.861 287.756 156.136C285.508 156.306 283.072 155.286 281.259 153.983C279.307 152.584 279.159 149.992 278.658 147.822C277.281 141.887 276.745 135.795 276.239 129.738C275.743 123.768 272.836 118.631 272.771 112.643C272.762 111.955 272.884 111.114 273.529 110.87C273.782 110.774 274.061 110.8 274.327 110.839C275.477 110.996 276.527 111.345 277.49 111.837Z" fill="#E96F24"/>
<path d="M201.621 115.506C199.303 119.175 200.288 125.642 200.989 129.311C202.384 136.584 203.778 143.856 205.168 151.129C206.99 160.646 208.815 170.163 210.637 179.679L208.367 226.283L280.261 225.843L285.83 151.608L274.993 110.818C252.207 111.48 228.947 110.761 206.257 112.805C204.022 113.009 202.554 114.029 201.621 115.506Z" fill="#F17B21"/>
<path d="M242.574 124.849C232.255 125.149 223.898 118.774 219.728 114.813C219.462 114.561 219.453 114.142 219.701 113.881C219.954 113.619 220.373 113.602 220.634 113.855C228.7 121.511 244.901 131.629 262.762 113.279C263.019 113.018 263.438 113.014 263.695 113.266C263.956 113.519 263.961 113.937 263.708 114.199C256.265 121.855 249.032 124.661 242.574 124.849Z" fill="#304798"/>
<path fill-rule="evenodd" clip-rule="evenodd" d="M256.19 94.7948C255.07 101.187 254.822 108.66 257.158 110.525C261.28 113.824 263.48 113.292 262.744 114.099C249.515 128.592 231.819 126.221 220.89 114.748C219.465 113.253 226.52 112.909 227.357 110.704C229.505 105.057 228.08 94.0802 224.925 84.2932C232.137 83.4565 257.31 88.4023 256.19 94.7948Z" fill="#8C552C"/>
<path d="M242.457 124.818C242.295 124.822 242.134 124.826 241.969 124.826C234.173 124.909 226.316 121.401 220.412 115.201C219.989 114.756 220.02 114.329 220.072 114.111C220.286 113.266 221.462 112.887 223.087 112.355C224.499 111.898 226.434 111.27 226.743 110.464C228.665 105.414 227.68 94.9773 224.299 84.4888C224.238 84.3014 224.264 84.0966 224.373 83.931C224.477 83.7655 224.656 83.6565 224.852 83.6304C231.428 82.8591 250.727 86.4497 255.651 91.6656C256.64 92.7114 257.041 93.8008 256.849 94.8989C255.538 102.398 255.838 108.612 257.577 110.002C259.795 111.776 261.442 112.403 262.327 112.739C262.98 112.987 263.412 113.153 263.529 113.645C263.599 113.946 263.503 114.242 263.238 114.534C257.294 121.048 250.117 124.595 242.457 124.818ZM221.466 114.39C227.136 120.281 234.587 123.584 241.96 123.51C249.293 123.414 256.183 120.151 261.93 114.011C261.904 114.002 261.878 113.994 261.856 113.98C260.906 113.619 259.133 112.943 256.754 111.039C253.359 108.324 255.154 96.9339 255.551 94.6767C255.669 94.0012 255.39 93.3128 254.692 92.5764C250.379 88.0097 232.574 84.5324 225.811 84.881C229.127 95.5133 229.985 105.675 227.981 110.935C227.449 112.329 225.353 113.009 223.501 113.61C222.822 113.837 221.85 114.15 221.466 114.39Z" fill="#603017"/>
<path d="M256.059 110.085C258.63 114.539 231.174 114.09 229.771 100.133L255.894 98.6687C255.894 98.6687 253.031 104.839 256.059 110.085Z" fill="#784521"/>
<path d="M242.512 124.701C232.211 125.001 223.87 118.635 219.709 114.683C219.443 114.43 219.435 114.016 219.683 113.75C219.936 113.484 220.35 113.471 220.615 113.724C228.668 121.372 244.839 131.468 262.665 113.149C262.918 112.887 263.336 112.883 263.598 113.136C263.859 113.389 263.864 113.807 263.611 114.068C256.173 121.711 248.957 124.513 242.512 124.701Z" fill="#304798"/>
<path d="M252.519 102.128C265.992 96.9609 272.371 80.9244 266.765 66.3097C261.16 51.695 245.694 44.0364 232.221 49.2038C218.748 54.3711 212.37 70.4076 217.975 85.0223C223.58 99.637 239.046 107.296 252.519 102.128Z" fill="#8C552C"/>
<path d="M217.224 85.3009C211.468 70.298 218.065 53.77 231.926 48.4494C245.788 43.1289 261.749 51.0117 267.501 66.0146C273.253 81.0175 266.66 97.5455 252.795 102.866C238.938 108.182 222.98 100.299 217.224 85.3009ZM218.719 84.7257C224.157 98.905 239.19 106.369 252.228 101.371C265.266 96.369 271.453 80.7647 266.011 66.5854C260.573 52.4061 245.539 44.9373 232.502 49.9397C219.464 54.9421 213.281 70.5464 218.719 84.7257Z" fill="#603017"/>
<path d="M240.062 80.1847C241.162 80.1847 242.053 79.2931 242.053 78.1933C242.053 77.0935 241.162 76.2019 240.062 76.2019C238.962 76.2019 238.07 77.0935 238.07 78.1933C238.07 79.2931 238.962 80.1847 240.062 80.1847Z" fill="#070808"/>
<path d="M238.299 78.2959C238.799 78.2959 239.205 77.8901 239.205 77.3895C239.205 76.889 238.799 76.4832 238.299 76.4832C237.798 76.4832 237.393 76.889 237.393 77.3895C237.393 77.8901 237.798 78.2959 238.299 78.2959Z" fill="white"/>
<path d="M234.964 92.1443C237.385 92.1443 239.347 90.1816 239.347 87.7606C239.347 85.3396 237.385 83.377 234.964 83.377C232.543 83.377 230.58 85.3396 230.58 87.7606C230.58 90.1816 232.543 92.1443 234.964 92.1443Z" fill="#F17B21"/>
<path d="M262.73 81.0644C261.837 78.7332 263.001 76.123 265.332 75.2297C266.195 74.8986 267.097 74.8506 267.933 75.038C268.308 78.1231 267.994 81.169 267.079 83.9578C265.214 84.0101 263.436 82.9033 262.73 81.0644Z" fill="#F17B21"/>
<path d="M253.112 84.3711C254.489 83.8438 255.592 82.676 255.971 81.1422C255.979 81.1073 255.984 81.0681 255.988 81.0332C256.019 80.6367 255.871 78.3969 250.119 73.2028C249.844 72.9544 249.421 72.9762 249.177 73.2507C248.929 73.5252 248.951 73.9479 249.225 74.1919C254.053 78.5494 254.594 80.58 254.65 80.9199C254.171 82.6368 252.402 83.6826 250.655 83.2512C250.297 83.164 249.936 83.3819 249.848 83.7392C249.761 84.0966 249.979 84.4582 250.337 84.5454C251.291 84.7807 252.254 84.6979 253.112 84.3711Z" fill="#603017"/>
<path d="M233.138 76.9208C232.951 76.9949 232.742 77.021 232.528 76.9992C231.805 76.9251 231.277 76.2759 231.356 75.5482C231.613 73.1036 232.768 71.1558 234.598 70.0664C236.489 68.9509 238.86 68.8376 241.112 69.7701C241.788 70.049 242.106 70.8203 241.827 71.4913C241.548 72.1667 240.777 72.4848 240.106 72.206C238.65 71.6046 237.09 71.6438 235.949 72.3367C234.833 72.999 234.149 74.2104 233.979 75.8271C233.922 76.3369 233.587 76.7508 233.138 76.9208Z" fill="#050505"/>
<path d="M253.603 69.2169C253.433 69.3215 253.233 69.3912 253.019 69.413C252.296 69.4783 251.655 68.9424 251.59 68.2146C251.376 65.7657 252.13 63.6349 253.721 62.21C255.359 60.7546 257.664 60.1881 260.056 60.6674C260.771 60.8112 261.233 61.5084 261.089 62.2187C260.945 62.9333 260.248 63.3952 259.533 63.2514C257.987 62.9377 256.466 63.2776 255.481 64.1752C254.514 65.0424 254.074 66.3583 254.217 67.9793C254.265 68.4935 254.008 68.9598 253.603 69.2169Z" fill="#050505"/>
<path fill-rule="evenodd" clip-rule="evenodd" d="M246.174 43.8425C259.342 27.9986 277.739 55.7603 248.405 59.7997C240.043 60.9501 216.538 69.8525 221.523 75.2689C229.04 83.4393 225.371 95.0128 225.563 97.3833C202.625 90.8557 204.285 69.9048 211.592 66.153C211.592 66.153 206.459 52.7667 224.234 49.4899C224.234 49.4899 231.816 35.2931 246.174 43.8425Z" fill="black"/>
<path fill-rule="evenodd" clip-rule="evenodd" d="M227.309 84.3892C225.98 80.925 222.093 79.1951 218.633 80.5241C215.173 81.8532 213.439 85.7357 214.768 89.1999C216.097 92.6642 219.98 94.3941 223.444 93.065C226.908 91.7404 228.638 87.8535 227.309 84.3892Z" fill="#8C552C"/>
<path d="M223.321 89.2391C223.504 89.1694 223.653 89.0082 223.696 88.799C223.766 88.4722 223.557 88.1497 223.23 88.08L218.628 87.0996C218.302 87.0299 217.979 87.239 217.909 87.5658C217.84 87.8927 218.049 88.2151 218.376 88.2848L222.977 89.2653C223.095 89.2914 223.217 89.2783 223.321 89.2391Z" fill="#603017"/>
<path d="M218.717 88.2599C218.817 88.2207 218.909 88.1553 218.978 88.0681L221.876 84.3643C222.081 84.0984 222.037 83.7193 221.772 83.5145C221.506 83.3097 221.127 83.3533 220.922 83.6191L218.024 87.323C217.819 87.5888 217.863 87.9679 218.129 88.1727C218.299 88.3034 218.525 88.3296 218.717 88.2599Z" fill="#603017"/>
<path d="M260.787 68.2272C259.201 67.9178 257.345 68.7152 256.434 70.0442C255.999 70.6804 255.633 71.4866 255.598 72.2709C255.558 73.1773 255.807 73.7176 256.604 74.0924C256.796 74.1839 257.018 74.1142 257.084 73.8963C257.206 73.4997 257.332 73.247 257.31 72.8026C257.288 72.2971 257.232 71.7655 257.441 71.2861C257.663 70.7632 258.125 70.3972 258.648 70.1924C259.227 69.9658 259.655 70.1314 260.221 70.2796C261.554 70.6194 262.117 68.4843 260.787 68.2272Z" fill="#603017"/>
<path d="M240.028 91.2785C245.297 93.3962 251.519 92.9692 256.447 90.1499" stroke="#603017" stroke-width="1.3944" stroke-miterlimit="10" stroke-linecap="round" stroke-linejoin="round"/>
<path d="M290.435 158.78C290.449 158.863 290.457 159.604 290.383 158.597C290.348 158.153 290.431 157.756 290.313 157.299C290.083 156.41 289.616 155.669 288.862 154.998C287.699 153.961 286.047 153.281 284.614 152.527C281.921 151.12 279.237 149.791 276.426 148.558C270.857 146.113 265.301 143.669 259.937 140.915C254.647 138.2 249.423 135.372 244.242 132.509C239.043 129.637 234.341 126.321 229.853 122.687C227.387 120.687 225.012 118.609 222.75 116.439C221.657 115.388 220.598 114.308 219.456 113.292C217.896 111.911 216.663 111.885 214.615 112.107C214.013 112.173 213.66 112.395 213.434 112.87C212.885 114.016 212.423 115.001 213.024 116.242C213.647 117.524 215.159 118.805 216.227 119.842C218.232 121.798 220.415 123.637 222.628 125.424C227.243 129.149 232.284 132.413 237.191 135.847C247.061 142.754 258.046 148.283 268.835 154.079C271.912 155.73 274.962 157.356 278.182 158.794C279.786 159.508 281.363 160.293 282.997 160.95C284.235 161.452 285.79 161.73 287.146 161.434C287.464 161.364 287.799 161.251 288.091 161.134C288.527 160.959 290.488 160.188 288.549 160.876C289.494 160.545 290.584 159.791 290.435 158.78Z" fill="#EE4023"/>
<path d="M264.382 108.224C264.177 108.826 263.977 109.432 263.768 110.033C262.805 112.804 261.689 115.541 260.447 118.234C258.195 123.127 255.584 127.811 252.303 132.274C249.035 136.718 245.706 141.145 242.268 145.494C238.778 149.908 234.96 154.105 231.134 158.31C229.204 160.427 227.431 162.593 225.692 164.829C224.764 166.023 223.609 167.225 223.073 168.585C222.724 169.461 222.672 170.302 222.907 171.19C223.025 171.648 223.3 171.975 223.491 172.393C223.661 172.759 223.709 172.877 223.705 172.886C224.219 173.609 225.387 173.836 226.298 173.805C224.197 173.875 226.359 173.87 226.842 173.875C227.165 173.879 227.526 173.862 227.849 173.809C229.226 173.596 230.498 172.79 231.37 171.892C232.524 170.711 233.566 169.439 234.66 168.219C236.86 165.765 238.817 163.203 240.782 160.606C247.671 151.499 254.874 142.566 260.373 132.783C263.11 127.92 266.051 123.162 268.374 118.138C269.489 115.728 270.548 113.279 271.393 110.791C271.677 109.954 272.073 108.97 272.309 108.007C269.659 108.068 267.019 108.133 264.382 108.224Z" fill="#EE4023"/>
<path d="M242.735 162.615C240.194 161.609 237.288 161.853 234.726 162.794C232.447 163.631 224.241 169.513 222.634 165.321C222.342 164.555 222.411 163.7 222.525 162.886C222.08 163.025 221.583 162.746 221.344 162.345C221.104 161.944 221.069 161.452 221.1 160.986C221.169 159.835 221.596 158.79 222.198 157.827C220.834 157.064 221.666 154.057 222.224 152.942C223.209 150.985 225.026 149.525 227.056 148.759C229.732 147.748 232.691 147.796 235.536 148.092C237.266 148.271 238.987 148.541 240.691 148.894C241.933 149.151 243.205 149.473 244.216 150.244C245.798 151.451 246.43 153.508 246.966 155.426C247.354 156.803 247.724 158.345 247.036 159.6C246.042 161.417 243.589 161.596 242.412 163.243" fill="#8C552C"/>
<path d="M242.735 162.615C240.194 161.609 237.288 161.853 234.726 162.794C232.447 163.631 224.241 169.513 222.634 165.321C222.342 164.555 222.411 163.7 222.525 162.886C222.08 163.025 221.583 162.746 221.344 162.345C221.104 161.944 221.069 161.452 221.1 160.986C221.169 159.835 221.596 158.79 222.198 157.827C220.834 157.064 221.666 154.057 222.224 152.942C223.209 150.985 225.026 149.525 227.056 148.759C229.732 147.748 232.691 147.796 235.536 148.092C237.266 148.271 238.987 148.541 240.691 148.894C241.933 149.151 243.205 149.473 244.216 150.244C245.798 151.451 246.43 153.508 246.966 155.426C247.354 156.803 247.724 158.345 247.036 159.6C246.042 161.417 243.589 161.596 242.412 163.243" stroke="#603017" stroke-width="1.30725" stroke-miterlimit="10"/>
<path d="M195.103 125.08C196.048 121.846 197.573 118.809 199.835 116.208C202.035 113.68 204.136 113.345 207.19 112.709C209.151 112.299 210.454 112.948 211.648 114.534C215.722 119.964 216.838 128.609 218.014 135.093C219.74 144.588 221.086 154.153 222.054 163.757C222.18 165.003 262.051 153.865 272.352 150.989C272.745 150.88 273.176 150.771 273.546 150.933C273.843 151.059 274.048 151.334 274.231 151.599C276.784 155.286 278.274 159.704 278.466 164.184C266.361 172.232 252.282 178.254 239.013 184.115C230.058 188.072 219.892 193.88 209.927 189.706C205.844 187.998 205.029 185.998 203.543 182.106C200.266 173.522 197.782 164.641 196.131 155.604C194.985 149.347 194.24 143.015 193.9 136.657C193.691 132.801 194.013 128.814 195.103 125.08Z" fill="#E96F24"/>
<path d="M216.511 132.81C219.278 143.943 221.326 155.251 222.638 166.646" stroke="#304798" stroke-width="0.871502" stroke-miterlimit="10" stroke-linecap="round" stroke-linejoin="round"/>
<path d="M222.489 163.748C235.257 160.218 251.14 157.639 263.859 153.939" stroke="#304798" stroke-width="0.871502" stroke-miterlimit="10" stroke-linecap="round" stroke-linejoin="round"/>
<path d="M296.262 144.388C297.303 144.41 298.249 144.536 299.181 145.298C300.467 146.349 301.295 147.943 301.857 149.473C302.689 151.743 303.134 154.196 304.45 156.231C305.099 157.238 305.953 158.127 306.402 159.238C306.746 160.092 306.824 161.046 306.624 161.944C306.45 162.737 305.931 163.574 305.125 163.657C304.624 163.709 304.145 163.452 303.722 163.182C300.018 160.833 299.116 156.519 294.658 155.011C292.998 154.449 291.207 154.441 289.451 154.441C285.965 154.436 282.479 154.432 278.997 154.427C278.104 154.427 277.124 154.397 276.444 153.813C274.113 151.817 282.27 147.412 283.804 146.715C287.207 145.176 291.063 144.287 294.802 144.379C295.308 144.392 295.796 144.379 296.262 144.388Z" fill="#8C552C" stroke="#603017" stroke-width="1.30725" stroke-miterlimit="10"/>
<path d="M305.086 164.58C305.953 165.971 306.654 167.443 306.803 169.06C307.199 173.348 303.626 176.956 299.974 179.239C298.323 180.272 296.536 181.196 294.597 181.387C293.203 181.527 291.8 181.278 290.423 181.013C273.603 177.788 257.545 171.33 241.301 165.953C241.009 165.857 240.699 165.744 240.529 165.487C240.381 165.265 240.381 164.977 240.385 164.707C240.473 160.049 241.348 155.404 242.965 151.037C243.166 150.501 243.41 149.926 243.911 149.647C244.438 149.351 244.839 148.846 245.427 148.976C252.966 150.602 261.328 150.758 269.001 151.931C276.348 153.051 283.865 153.621 291.272 154.323C292.798 154.467 294.34 154.619 295.778 155.142C299.247 156.401 301.595 159.574 303.731 162.58C304.188 163.234 304.659 163.896 305.086 164.58Z" fill="#F17B21"/>
<path d="M240.526 165.491C239.737 159.656 241.131 154.693 243.868 149.303C244.125 148.802 245.306 149.124 245.776 149.181C249.82 149.634 253.864 150.083 257.908 150.527C263.459 151.137 269.011 151.743 274.566 152.327C279.011 152.798 283.456 153.273 287.905 153.66" stroke="#304798" stroke-width="0.871502" stroke-miterlimit="10" stroke-linecap="round" stroke-linejoin="round"/>
<path d="M297.809 152.554C300.393 154.702 303.757 156.101 305.561 159.051C305.6 159.116 305.692 159.06 305.665 158.99C304.219 155.656 302.406 152.066 298.415 151.517C297.879 151.443 297.269 152.105 297.809 152.554Z" fill="#603017"/>
<path d="M296.797 147.251C297.673 147.678 298.597 148.375 299.386 148.959C300.227 149.582 300.981 150.101 301.931 150.554C302.061 150.615 302.179 150.515 302.157 150.379C301.978 149.194 301.456 148.392 300.493 147.673C299.983 147.29 299.464 146.989 298.876 146.737C298.283 146.484 297.787 146.488 297.159 146.375C296.671 146.292 296.274 146.998 296.797 147.251Z" fill="#603017"/>
<path d="M262.194 393.032C262.469 392.979 262.678 392.749 262.674 392.483L259.567 249.395C259.563 249.099 259.297 248.872 258.979 248.885C258.661 248.894 258.408 249.151 258.412 249.447L261.519 392.535C261.523 392.831 261.789 393.058 262.107 393.045C262.138 393.04 262.168 393.036 262.194 393.032Z" fill="#F17B21"/>
<path d="M275.132 403.729C271.808 403.599 268.505 402.81 265.489 401.394" stroke="#304798" stroke-width="1.30725" stroke-miterlimit="10" stroke-linecap="round" stroke-linejoin="round"/>
<path d="M273.743 417.826C270.318 417.852 266.884 417.238 263.794 415.996" stroke="#304798" stroke-width="1.4243" stroke-miterlimit="10" stroke-linecap="round" stroke-linejoin="round"/>
<path d="M226.664 162.855C226.102 161.295 224.193 161.256 222.812 160.968C221.818 160.763 220.969 162.872 220.977 162.894C220.28 163.565 217.757 168.616 216.829 170.162C215.104 173.038 213.635 176.211 212.567 179.392C212.262 180.289 212.881 180.895 213.609 181.004C213.605 181.013 213.6 181.017 213.596 181.026C212.511 182.603 214.794 184.028 216.084 182.947C216.302 182.764 216.507 182.573 216.698 182.381C216.585 183.941 218.908 184.943 219.696 183.344C221.527 179.623 224.76 170.546 224.925 169.927C225.239 169.121 227.2 164.35 226.664 162.855Z" fill="#F16754"/>
<path d="M218.079 187.052C218.288 186.499 218.502 185.941 218.711 185.387C220.798 179.832 226.668 162.855 226.668 162.855L222.415 160.693C218.558 167.517 214.698 174.337 210.841 181.161" stroke="#EE4023" stroke-width="1.30725" stroke-miterlimit="10" stroke-linecap="round" stroke-linejoin="round"/>
<path d="M227.117 186.546C226.372 184.503 224.272 182.629 222.481 181.195C219.369 178.703 215.779 176.668 211.848 176.001C208.572 175.448 205.373 175.905 202.449 177.461C202.083 177.657 201.499 177.888 201.255 178.241C201.19 178.333 201.168 178.45 201.151 178.559C200.998 179.431 200.911 180.324 200.95 181.204C201.011 182.681 201.43 183.993 201.839 185.396C202.288 186.934 202.937 188.416 203.791 189.771C205.482 192.46 208.018 194.638 211.134 195.431C211.452 195.514 211.779 195.58 212.101 195.632C216.881 196.377 222.86 194.586 226.15 190.952C227.496 189.466 227.636 187.967 227.117 186.546Z" fill="#EE4023"/>
<path d="M227.54 189.026C227.348 187.157 227.013 185.623 225.971 184.032C224.952 182.477 223.636 181.126 222.132 180.036C219.278 177.971 215.836 176.829 212.345 176.333C208.424 175.775 204.166 176.071 200.924 178.35" stroke="#F16754" stroke-width="1.30725" stroke-miterlimit="10" stroke-linecap="round" stroke-linejoin="round"/>
<path d="M296.819 155.391C294.902 156.419 293.346 158.763 292.178 160.742C290.152 164.175 288.649 168.019 288.549 172.002C288.466 175.322 289.372 178.425 291.329 181.096C291.573 181.431 291.887 181.976 292.27 182.168C292.37 182.216 292.488 182.224 292.601 182.229C293.486 182.255 294.383 182.211 295.246 182.05C296.702 181.78 297.939 181.179 299.268 180.573C300.728 179.91 302.101 179.056 303.321 178.019C305.739 175.967 307.539 173.143 307.879 169.945C307.913 169.618 307.935 169.287 307.94 168.956C307.996 164.114 305.377 158.454 301.312 155.718C299.652 154.598 298.148 154.676 296.819 155.391Z" fill="#EE4023"/>
<path d="M299.208 154.619C297.386 155.077 295.913 155.626 294.488 156.881C293.094 158.11 291.944 159.609 291.081 161.252C289.438 164.367 288.802 167.94 288.806 171.466C288.811 175.427 289.713 179.601 292.427 182.481" stroke="#F16754" stroke-width="1.30725" stroke-miterlimit="10" stroke-linecap="round" stroke-linejoin="round"/>
<path d="M181.821 112.495C181.546 112.822 181.598 113.31 181.716 113.719C182.391 116.064 184.592 117.589 186.64 118.918C188.483 120.112 190.178 121.663 192.165 122.556C194.362 123.541 196.601 124.435 198.867 125.258C202.214 126.474 205.617 127.607 209.12 128.274C211.164 128.583 213.033 128.661 214.794 127.411C216.472 126.217 217.923 124.474 219.304 122.953C222.986 118.892 224.838 114.404 225.156 108.97C206.85 108.029 182.466 111.724 181.821 112.495Z" fill="#EE4023"/>
<path d="M181.433 112.804C182.396 117.515 188.536 120.548 192.366 122.526C197.05 124.944 202.092 126.687 207.278 127.65C209.722 128.104 212.341 128.374 214.616 127.372C215.849 126.827 216.903 125.942 217.831 124.971C221.875 120.748 223.771 114.935 225.056 109.231" stroke="#F16754" stroke-width="1.30725" stroke-miterlimit="10" stroke-linecap="round" stroke-linejoin="round"/>
<path d="M301.007 111.053C301.282 111.38 301.23 111.868 301.112 112.277C300.437 114.622 298.249 116.147 296.21 117.476C294.375 118.67 292.689 120.221 290.706 121.114C288.519 122.099 286.288 122.992 284.035 123.816C280.706 125.032 277.311 126.165 273.825 126.831C271.79 127.141 269.925 127.219 268.174 125.968C266.5 124.774 265.058 123.031 263.681 121.511C260.016 117.45 258.169 112.961 257.851 107.527C276.082 106.582 300.367 110.277 301.007 111.053Z" fill="#EE4023"/>
<path d="M301.391 111.362C300.433 116.073 294.319 119.106 290.502 121.084C285.835 123.502 280.819 125.245 275.656 126.208C273.22 126.661 270.614 126.932 268.348 125.929C267.119 125.385 266.074 124.5 265.145 123.528C261.119 119.306 259.232 113.493 257.951 107.789" stroke="#F16754" stroke-width="1.30446" stroke-miterlimit="10" stroke-linecap="round" stroke-linejoin="round"/>
</svg>
