<svg width="231" height="58" viewBox="0 0 231 58" fill="none" xmlns="http://www.w3.org/2000/svg">
<path d="M1.728 6.056C1.728 5.744 1.896 5.576 2.208 5.576H4.92C5.232 5.576 5.4 5.744 5.4 6.056V22.52C5.4 22.832 5.232 23 4.92 23H2.208C1.896 23 1.728 22.832 1.728 22.52V6.056ZM8.829 11.72C8.829 11.408 8.997 11.24 9.309 11.24H11.589C11.901 11.24 12.069 11.408 12.069 11.72V13.136H12.117C12.669 11.888 13.941 10.88 15.573 10.88C17.325 10.88 18.957 11.624 19.413 13.448H19.461C20.085 11.936 21.837 10.88 23.637 10.88C27.117 10.88 27.333 13.904 27.333 15.176V22.52C27.333 22.832 27.165 23 26.853 23H24.549C24.237 23 24.069 22.832 24.069 22.52V16.28C24.069 14.96 23.853 13.472 21.981 13.472C20.421 13.472 19.653 14.696 19.653 16.328V22.52C19.653 22.832 19.485 23 19.173 23H16.941C16.629 23 16.461 22.832 16.461 22.52V16.328C16.461 14.984 16.341 13.472 14.397 13.472C12.789 13.472 12.045 14.648 12.045 16.184V22.52C12.045 22.832 11.877 23 11.565 23H9.309C8.997 23 8.829 22.832 8.829 22.52V11.72ZM30.5282 11.72C30.5282 11.408 30.6962 11.24 31.0082 11.24H33.2882C33.6002 11.24 33.7682 11.408 33.7682 11.72V12.824H33.8162C34.5362 11.456 36.1682 10.808 37.5362 10.808C39.9362 10.808 42.8402 12.512 42.8402 17.096C42.8402 21.224 40.1282 23.432 37.4402 23.432C35.8082 23.432 34.4642 22.664 33.8162 21.44H33.7682V27.968C33.7682 28.28 33.6002 28.448 33.2882 28.448H31.0082C30.6962 28.448 30.5282 28.28 30.5282 27.968V11.72ZM36.6002 20.888C38.0642 20.888 39.6002 19.928 39.6002 17.12C39.6002 14.264 37.9682 13.328 36.6242 13.328C35.0162 13.328 33.7202 14.888 33.7202 17.12C33.7202 19.424 34.8722 20.888 36.6002 20.888ZM48.4714 23.432C46.0954 23.432 44.2474 22.016 44.2474 19.616C44.2474 16.64 47.7994 16.136 49.0714 16.064L52.2874 15.872V14.552C52.2874 13.424 51.4714 12.896 50.2234 12.896C48.9754 12.896 48.2794 13.4 48.0634 14.192C47.9914 14.48 47.8474 14.624 47.5594 14.624H45.3514C45.0394 14.624 44.8474 14.432 44.8954 14.096C45.3514 11.264 48.1354 10.832 50.0074 10.832C53.6794 10.832 55.3834 12.152 55.3834 14.648V19.496C55.3834 20.576 55.5994 20.96 56.0794 20.96C56.1754 20.96 56.2954 20.96 56.4154 20.936C56.7274 20.912 56.9194 21.08 56.9194 21.392V22.616C56.9194 22.88 56.7994 23.096 56.5594 23.168C56.0554 23.36 55.5754 23.432 55.0474 23.432C53.6794 23.432 52.5514 22.616 52.3834 21.08H52.3354C51.6874 22.424 50.4154 23.432 48.4714 23.432ZM49.3354 20.96C50.7994 20.96 52.2874 19.88 52.2874 18.224V17.696L49.4314 17.888C48.2794 17.96 47.3914 18.536 47.3914 19.496C47.3914 20.648 48.3514 20.96 49.3354 20.96ZM64.2195 23.456C60.6915 23.456 57.9555 21.248 57.9555 17.12C57.9555 12.992 60.7635 10.808 64.1475 10.808C66.6675 10.808 68.7315 12.032 69.6915 14.168C69.8355 14.48 69.6675 14.72 69.3315 14.744L66.9555 14.912C66.6915 14.936 66.5235 14.816 66.3795 14.576C65.9475 13.832 65.2035 13.376 64.1475 13.376C62.3955 13.376 61.1955 14.552 61.1955 17.12C61.1955 19.712 62.4915 20.912 64.1475 20.912C65.4915 20.912 66.2835 20.168 66.6915 19.16C66.8115 18.896 67.0035 18.752 67.2675 18.776L69.5475 18.92C69.8835 18.944 70.0755 19.112 70.0035 19.328C69.3555 21.344 67.4835 23.456 64.2195 23.456ZM75.6422 23.432C72.6902 23.432 72.3782 21.32 72.3782 19.232V13.328H70.9142C70.6022 13.328 70.4342 13.16 70.4342 12.848V11.72C70.4342 11.408 70.6022 11.24 70.9142 11.24H72.3782V8.12C72.3782 7.808 72.5462 7.64 72.8582 7.64H75.0902C75.4022 7.64 75.5702 7.808 75.5702 8.12V11.24H77.3942C77.7062 11.24 77.8742 11.408 77.8742 11.72V12.848C77.8742 13.16 77.7062 13.328 77.3942 13.328H75.5702V19.112C75.5702 20.144 75.6902 20.792 76.6262 20.792C76.9622 20.792 77.2262 20.768 77.4422 20.72C77.7782 20.648 77.9702 20.792 77.9702 21.128V22.712C77.9702 22.976 77.8262 23.192 77.5142 23.264C76.8902 23.408 76.0982 23.432 75.6422 23.432ZM85.377 6.056C85.377 5.744 85.545 5.576 85.857 5.576H88.713C88.953 5.576 89.169 5.672 89.313 5.888L97.065 17.576H97.089V6.056C97.089 5.744 97.257 5.576 97.569 5.576H100.017C100.329 5.576 100.497 5.744 100.497 6.056V22.52C100.497 22.832 100.329 23 100.017 23H97.185C96.945 23 96.753 22.904 96.609 22.688L88.785 11.12H88.761V22.52C88.761 22.832 88.593 23 88.281 23H85.857C85.545 23 85.377 22.832 85.377 22.52V6.056ZM109.265 23.432C105.497 23.432 103.097 20.84 103.097 17.096C103.097 12.68 106.217 10.832 109.289 10.832C113.417 10.832 115.601 13.52 115.409 17.264V17.288C115.385 17.576 115.193 17.744 114.905 17.744H106.409C106.481 19.904 107.897 20.912 109.313 20.912C110.681 20.912 111.377 20.312 111.785 19.592C111.905 19.376 112.073 19.256 112.337 19.256H114.617C114.953 19.256 115.145 19.496 115.001 19.832C113.993 22.304 111.977 23.432 109.265 23.432ZM112.001 15.728C111.881 14.264 110.825 13.352 109.265 13.352C107.993 13.352 106.817 14.12 106.529 15.728H112.001ZM123.281 27.992C119.777 27.992 117.233 26.84 116.897 23.96C116.873 23.624 117.065 23.456 117.377 23.456H119.729C120.017 23.456 120.185 23.6 120.233 23.912C120.521 25.208 121.793 25.76 123.209 25.76C124.841 25.76 125.993 24.8 125.993 22.496V20.816H125.945C125.273 22.088 124.001 22.952 122.369 22.952C119.753 22.952 116.801 21.032 116.801 16.904C116.801 12.68 119.849 10.808 122.201 10.808C123.761 10.808 125.297 11.648 125.945 13.064H125.993V11.72C125.993 11.408 126.161 11.24 126.473 11.24H128.753C129.065 11.24 129.233 11.408 129.233 11.72V22.496C129.233 26.408 126.161 27.992 123.281 27.992ZM123.113 20.408C124.913 20.408 126.041 18.92 126.041 16.928C126.041 14.912 124.817 13.328 123.137 13.328C121.769 13.328 120.065 14.288 120.065 16.88C120.065 19.472 121.673 20.408 123.113 20.408ZM137.718 23.432C134.526 23.432 131.526 21.392 131.526 17.096C131.526 12.824 134.574 10.808 137.718 10.808C140.886 10.808 143.934 12.824 143.934 17.096C143.934 21.392 140.934 23.432 137.718 23.432ZM137.718 20.912C139.542 20.912 140.67 19.52 140.67 17.096C140.67 14.672 139.518 13.376 137.718 13.376C135.966 13.376 134.766 14.672 134.766 17.096C134.766 19.52 135.918 20.912 137.718 20.912ZM150.103 23.432C147.151 23.432 146.839 21.32 146.839 19.232V13.328H145.375C145.063 13.328 144.895 13.16 144.895 12.848V11.72C144.895 11.408 145.063 11.24 145.375 11.24H146.839V8.12C146.839 7.808 147.007 7.64 147.319 7.64H149.551C149.863 7.64 150.031 7.808 150.031 8.12V11.24H151.855C152.167 11.24 152.335 11.408 152.335 11.72V12.848C152.335 13.16 152.167 13.328 151.855 13.328H150.031V19.112C150.031 20.144 150.151 20.792 151.087 20.792C151.423 20.792 151.687 20.768 151.903 20.72C152.239 20.648 152.431 20.792 152.431 21.128V22.712C152.431 22.976 152.287 23.192 151.975 23.264C151.351 23.408 150.559 23.432 150.103 23.432ZM154.446 6.056C154.446 5.744 154.614 5.576 154.926 5.576H157.158C157.47 5.576 157.638 5.744 157.638 6.056V8C157.638 8.312 157.47 8.48 157.158 8.48H154.926C154.614 8.48 154.446 8.312 154.446 8V6.056ZM154.446 11.72C154.446 11.408 154.614 11.24 154.926 11.24H157.158C157.47 11.24 157.638 11.408 157.638 11.72V22.52C157.638 22.832 157.47 23 157.158 23H154.926C154.614 23 154.446 22.832 154.446 22.52V11.72ZM164.464 23.432C162.088 23.432 160.24 22.016 160.24 19.616C160.24 16.64 163.792 16.136 165.064 16.064L168.28 15.872V14.552C168.28 13.424 167.464 12.896 166.216 12.896C164.968 12.896 164.272 13.4 164.056 14.192C163.984 14.48 163.84 14.624 163.552 14.624H161.344C161.032 14.624 160.84 14.432 160.888 14.096C161.344 11.264 164.128 10.832 166 10.832C169.672 10.832 171.376 12.152 171.376 14.648V19.496C171.376 20.576 171.592 20.96 172.072 20.96C172.168 20.96 172.288 20.96 172.408 20.936C172.72 20.912 172.912 21.08 172.912 21.392V22.616C172.912 22.88 172.792 23.096 172.552 23.168C172.048 23.36 171.568 23.432 171.04 23.432C169.672 23.432 168.544 22.616 168.376 21.08H168.328C167.68 22.424 166.408 23.432 164.464 23.432ZM165.328 20.96C166.792 20.96 168.28 19.88 168.28 18.224V17.696L165.424 17.888C164.272 17.96 163.384 18.536 163.384 19.496C163.384 20.648 164.344 20.96 165.328 20.96ZM178.58 23.432C175.628 23.432 175.316 21.32 175.316 19.232V13.328H173.852C173.54 13.328 173.372 13.16 173.372 12.848V11.72C173.372 11.408 173.54 11.24 173.852 11.24H175.316V8.12C175.316 7.808 175.484 7.64 175.796 7.64H178.028C178.34 7.64 178.508 7.808 178.508 8.12V11.24H180.332C180.644 11.24 180.812 11.408 180.812 11.72V12.848C180.812 13.16 180.644 13.328 180.332 13.328H178.508V19.112C178.508 20.144 178.628 20.792 179.564 20.792C179.9 20.792 180.164 20.768 180.38 20.72C180.716 20.648 180.908 20.792 180.908 21.128V22.712C180.908 22.976 180.764 23.192 180.452 23.264C179.828 23.408 179.036 23.432 178.58 23.432ZM182.922 6.056C182.922 5.744 183.09 5.576 183.402 5.576H185.634C185.946 5.576 186.114 5.744 186.114 6.056V8C186.114 8.312 185.946 8.48 185.634 8.48H183.402C183.09 8.48 182.922 8.312 182.922 8V6.056ZM182.922 11.72C182.922 11.408 183.09 11.24 183.402 11.24H185.634C185.946 11.24 186.114 11.408 186.114 11.72V22.52C186.114 22.832 185.946 23 185.634 23H183.402C183.09 23 182.922 22.832 182.922 22.52V11.72ZM194.788 23.432C191.596 23.432 188.596 21.392 188.596 17.096C188.596 12.824 191.644 10.808 194.788 10.808C197.956 10.808 201.004 12.824 201.004 17.096C201.004 21.392 198.004 23.432 194.788 23.432ZM194.788 20.912C196.612 20.912 197.74 19.52 197.74 17.096C197.74 14.672 196.588 13.376 194.788 13.376C193.036 13.376 191.836 14.672 191.836 17.096C191.836 19.52 192.988 20.912 194.788 20.912ZM203.453 11.72C203.453 11.408 203.621 11.24 203.933 11.24H206.165C206.477 11.24 206.645 11.408 206.645 11.72C206.645 12.152 206.669 12.584 206.669 12.992C207.437 11.528 208.877 10.808 210.173 10.808C213.077 10.808 214.325 12.704 214.325 15.128V22.52C214.325 22.832 214.157 23 213.845 23H211.589C211.277 23 211.109 22.832 211.109 22.52V16.16C211.109 14.168 210.293 13.496 209.021 13.496C208.853 13.496 208.661 13.544 208.469 13.64C207.989 13.832 206.645 14.216 206.645 16.304V22.52C206.645 22.832 206.477 23 206.165 23H203.933C203.621 23 203.453 22.832 203.453 22.52V11.72ZM222.624 23.432C220.896 23.432 217.128 22.832 216.696 19.52C216.648 19.208 216.84 19.016 217.152 19.016H219.192C219.48 19.016 219.624 19.16 219.696 19.472C219.936 20.624 221.184 21.056 222.744 21.056C223.44 21.056 224.976 20.624 224.976 19.544C224.976 18.872 224.448 18.608 223.272 18.344L221.424 17.912C219 17.336 217.296 16.736 217.296 14.48C217.296 12.392 219.36 10.832 222.528 10.832C224.448 10.832 227.448 11.6 227.808 14.144C227.832 14.48 227.64 14.648 227.328 14.648H225.216C224.928 14.648 224.784 14.504 224.712 14.216C224.52 13.496 223.8 13.208 222.528 13.208C221.304 13.208 220.512 13.76 220.512 14.456C220.512 15.008 220.968 15.248 222.096 15.512L223.56 15.848C225.768 16.352 228.144 17 228.144 19.496C228.144 22.4 225.048 23.432 222.624 23.432Z" fill="white"/>
<path d="M5.736 36.088H0.744C0.432 36.088 0.264 35.92 0.264 35.608V35.056C0.264 34.744 0.432 34.576 0.744 34.576H12.36C12.672 34.576 12.84 34.744 12.84 35.056V35.608C12.84 35.92 12.672 36.088 12.36 36.088H7.392V51.52C7.392 51.832 7.224 52 6.912 52H6.216C5.904 52 5.736 51.832 5.736 51.52V36.088ZM19.365 52.432C16.413 52.432 13.941 50.128 13.941 46.12C13.941 42.112 16.413 39.808 19.365 39.808C22.317 39.808 24.789 42.112 24.789 46.12C24.789 50.128 22.317 52.432 19.365 52.432ZM19.365 51.064C21.549 51.064 23.325 49.168 23.325 46.12C23.325 43.12 21.549 41.176 19.365 41.176C17.181 41.176 15.405 43.12 15.405 46.12C15.405 49.168 17.181 51.064 19.365 51.064ZM31.8338 52.432C28.8818 52.432 26.4098 50.128 26.4098 46.12C26.4098 42.112 28.8818 39.808 31.8338 39.808C34.7858 39.808 37.2578 42.112 37.2578 46.12C37.2578 50.128 34.7858 52.432 31.8338 52.432ZM31.8338 51.064C34.0178 51.064 35.7938 49.168 35.7938 46.12C35.7938 43.12 34.0178 41.176 31.8338 41.176C29.6498 41.176 27.8738 43.12 27.8738 46.12C27.8738 49.168 29.6498 51.064 31.8338 51.064ZM39.5985 35.056C39.5985 34.744 39.7665 34.576 40.0785 34.576H40.5825C40.8945 34.576 41.0625 34.744 41.0625 35.056V51.52C41.0625 51.832 40.8945 52 40.5825 52H40.0785C39.7665 52 39.5985 51.832 39.5985 51.52V35.056ZM44.1688 35.056C44.1688 34.744 44.3368 34.576 44.6488 34.576H45.1528C45.4648 34.576 45.6328 34.744 45.6328 35.056V45.736L51.1048 40.48C51.2728 40.312 51.4408 40.24 51.6808 40.24H52.3528C52.7848 40.24 52.9048 40.552 52.5928 40.84L48.3208 44.968L53.1448 51.424C53.3848 51.76 53.2408 52 52.8568 52H52.1368C51.8968 52 51.7048 51.928 51.5608 51.712L47.2648 45.976L45.6328 47.56V51.52C45.6328 51.832 45.4648 52 45.1528 52H44.6488C44.3368 52 44.1688 51.832 44.1688 51.52V35.056ZM55.2313 35.056C55.2313 34.744 55.3993 34.576 55.7113 34.576H56.2153C56.5273 34.576 56.6953 34.744 56.6953 35.056V36.208C56.6953 36.52 56.5273 36.688 56.2153 36.688H55.7113C55.3993 36.688 55.2313 36.52 55.2313 36.208V35.056ZM55.2313 40.72C55.2313 40.408 55.3993 40.24 55.7113 40.24H56.2153C56.5273 40.24 56.6953 40.408 56.6953 40.72V51.52C56.6953 51.832 56.5273 52 56.2153 52H55.7113C55.3993 52 55.2313 51.832 55.2313 51.52V40.72ZM62.6336 52.432C61.5776 52.432 60.6176 51.736 60.6176 50.2V41.464H58.9376C58.6256 41.464 58.4576 41.296 58.4576 40.984V40.72C58.4576 40.408 58.6256 40.24 58.9376 40.24H60.6176V37.12C60.6176 36.808 60.7856 36.64 61.0976 36.64H61.6016C61.9136 36.64 62.0816 36.808 62.0816 37.12V40.24H63.9056C64.2176 40.24 64.3856 40.408 64.3856 40.72V40.984C64.3856 41.296 64.2176 41.464 63.9056 41.464H62.0816V49.384C62.0816 50.248 62.0576 51.064 62.9456 51.064C63.3776 51.064 63.6656 51.016 64.0016 50.92C64.3376 50.776 64.5536 50.896 64.5536 51.256V51.712C64.5536 51.976 64.4096 52.192 64.0976 52.264C63.5936 52.408 63.0896 52.432 62.6336 52.432Z" fill="white"/>
</svg>
