<svg width="231" height="231" viewBox="0 0 231 231" fill="none" xmlns="http://www.w3.org/2000/svg">
<g clip-path="url(#clip0_634_7321)">
<rect width="231" height="231" rx="115.5" fill="#E25A50"/>
<mask id="mask0_634_7321" style="mask-type:luminance" maskUnits="userSpaceOnUse" x="-198" y="8" width="452" height="179">
<path d="M253.516 8H-198V186.725H253.516V8Z" fill="white"/>
</mask>
<g mask="url(#mask0_634_7321)">
<path d="M49.9732 50.7615C48.3074 57.2657 46.6449 63.7732 44.979 70.2773C67.2158 68.1867 89.5025 66.6005 111.819 65.5153C111.909 57.7734 111.998 50.0315 112.088 42.2896C91.3077 44.6423 70.6006 47.4696 49.9732 50.7615Z" fill="#42C4F2"/>
<path d="M171.162 36.8572C152.907 38.1414 134.693 39.7874 116.531 41.7884C116.551 49.6232 116.571 57.4548 116.59 65.2896C139.342 64.2576 162.123 63.7432 184.917 63.7565C183.374 54.5876 181.834 45.4154 180.291 36.2466C177.248 36.4391 174.205 36.6448 171.162 36.8572Z" fill="#42C4F2"/>
<path d="M149.327 92.4843C126.343 91.6181 103.34 91.2465 80.333 91.3693C80.9867 85.177 81.6405 78.9848 82.2975 72.7959C104.013 71.6511 125.752 70.9708 147.505 70.7617C148.112 78.0026 148.719 85.2434 149.327 92.4843Z" fill="#FCB415"/>
<path d="M151.749 121.348C127.13 119.052 102.447 117.286 77.7251 116.052C78.3788 109.86 79.0326 103.667 79.6863 97.4751C103.118 97.6875 126.536 98.4043 149.928 99.6254C150.535 106.866 151.142 114.107 151.749 121.348Z" fill="#FCB415"/>
<path d="M77.2271 120.747C76.5501 127.158 75.8732 133.57 75.1929 139.981C101.581 142.529 127.89 145.649 154.099 149.332C153.468 141.836 152.841 134.336 152.21 126.84C127.279 124.271 102.278 122.24 77.2271 120.747Z" fill="#8D183E"/>
<path d="M32.5976 118.664C31.1143 124.458 29.6342 130.252 28.1509 136.042C42.0153 137.025 55.8565 138.163 69.6778 139.457C70.4477 133.119 71.2209 126.78 71.9907 120.442C58.873 119.702 45.7419 119.108 32.5976 118.664Z" fill="#8D183E"/>
<path d="M157.205 127.361C157.919 134.934 158.635 142.503 159.349 150.076C173.064 152.044 186.749 154.168 200.408 156.447C199.034 148.281 197.663 140.117 196.293 131.951C183.281 130.275 170.253 128.745 157.205 127.361Z" fill="#8D183E"/>
<path d="M43.6511 75.4736C40.3293 88.4554 37.0075 101.437 33.6858 114.419C46.777 114.737 59.8616 115.202 72.9329 115.819C74.6453 101.606 76.3576 87.3935 78.0732 73.1772C66.5881 73.8111 55.1129 74.5776 43.6511 75.4736Z" fill="#FCB415"/>
<path d="M152.011 70.9112C153.617 87.885 155.223 104.856 156.833 121.829C169.699 123.067 182.547 124.451 195.38 125.981C192.304 107.68 189.227 89.3816 186.151 71.0804C174.769 70.8979 163.39 70.8382 152.011 70.9112Z" fill="#FCB415"/>
</g>
<mask id="mask1_634_7321" style="mask-type:luminance" maskUnits="userSpaceOnUse" x="-207" y="37" width="452" height="179">
<path d="M244.516 37H-207V215.725H244.516V37Z" fill="white"/>
</mask>
<g mask="url(#mask1_634_7321)">
<path d="M202.428 132.545L187.999 133.166L189.698 115.774C185.905 118.289 182.129 119.587 180.313 119.202C175.761 118.236 174.639 101.783 177.845 95.1396C181.05 88.4961 198.834 84.8956 200.29 97.7213C200.795 102.171 199.092 106.236 196.461 109.608L202.428 132.545Z" fill="#F9CBC7"/>
<path d="M172.06 90.2214C172.468 90.7755 172.952 91.2733 173.516 91.6748C173.171 91.9171 172.77 92.1726 172.554 92.5476C172.348 92.9027 172.302 93.3241 172.362 93.729C172.435 94.2234 172.637 94.7676 172.866 95.2123C173.088 95.6404 173.397 96.0187 173.765 96.3273C173.43 96.4368 173.158 96.6691 173.005 96.9877C172.926 97.1569 172.896 97.3262 172.863 97.5054C172.823 97.7211 172.746 97.9268 172.71 98.1458C172.654 98.5175 172.71 98.8858 172.896 99.2143C173.075 99.5362 173.656 100.037 174.16 100.217C174.665 100.396 176.191 100.19 176.39 99.951C176.831 99.4135 176.958 98.5938 177.193 97.95C177.512 97.0806 177.913 96.3273 178.414 95.5408C178.915 94.751 179.546 94.0177 180.319 93.4801C180.475 93.3706 180.734 93.0785 180.926 93.1781C181.049 93.2411 181.135 93.4502 181.218 93.5564C181.325 93.6925 181.451 93.8119 181.577 93.9247C182.161 94.4358 182.888 94.7145 183.624 94.9369C184.368 95.1592 185.141 95.3417 185.824 95.72C186.452 96.0685 186.873 96.6392 187.152 97.2863C187.431 97.9367 187.583 98.6336 187.806 99.3039C188.094 100.173 188.482 101.023 188.954 101.809C189.169 102.171 189.418 102.526 189.757 102.785C189.953 102.934 190.387 103.24 190.636 103.044C190.749 102.954 190.726 102.798 190.752 102.672C190.799 102.466 191.824 100.243 192.8 99.9743C193.729 99.7221 196.088 99.6192 196.891 100.014C198.62 100.864 198.919 102.871 198.478 104.574C198.275 105.35 197.967 106.133 197.432 106.744C197.203 107.006 196.895 107.298 196.556 107.418C196.214 107.54 195.766 107.66 195.395 107.613C195.435 107.816 195.501 108.005 195.491 108.214C195.478 108.443 195.458 108.672 195.471 108.901C195.494 109.342 195.614 109.764 195.796 110.169C195.889 110.374 196.045 110.58 196.075 110.799C196.102 110.968 196.092 111.144 196.125 111.317C196.185 111.642 196.291 111.964 196.457 112.249C197.14 113.424 199.065 113.703 199.928 112.554C200.651 113.842 201.849 114.791 203.303 115.11C204.471 115.362 206.1 115.325 206.843 114.227C207.165 114.492 207.524 114.715 207.905 114.891C209.365 115.561 211.197 115.534 212.518 114.562C213.198 114.061 213.706 113.324 213.918 112.505C214.147 111.615 214.041 110.68 213.875 109.79C213.855 109.687 213.782 109.508 213.822 109.415C213.859 109.329 213.971 109.306 214.058 109.259C214.227 109.17 214.386 109.063 214.532 108.941C214.831 108.692 219.238 108.138 219.4 107.783C219.782 106.956 215.604 106.259 215.425 105.387C215.332 104.932 215.196 104.487 215.037 104.049C214.957 103.834 214.874 103.621 214.781 103.412C214.691 103.21 214.552 103.004 214.482 102.795C214.433 102.646 214.456 102.729 214.532 102.622C214.562 102.579 214.612 102.543 214.652 102.503C214.718 102.433 214.778 102.36 214.838 102.284C214.95 102.138 215.047 101.982 215.13 101.819C215.292 101.497 215.392 101.149 215.441 100.794C215.551 100.031 215.445 99.2409 215.269 98.4942C215.163 98.0396 215.003 97.595 214.788 97.1801C214.721 97.054 214.622 96.9279 214.565 96.7985C214.516 96.6824 214.536 96.6791 214.602 96.5629C214.708 96.3738 214.798 96.1713 214.874 95.9656C215.332 94.6946 215.276 93.2345 214.794 91.9801C214.336 90.7855 213.457 89.7402 212.269 89.2159C211.964 89.0798 211.645 88.9803 211.317 88.9205C211.141 88.8874 210.958 88.8641 210.779 88.8508C210.726 88.8475 210.59 88.8674 210.557 88.8376C210.53 88.8143 210.52 88.6418 210.51 88.5986C210.351 87.8885 210.009 87.2215 209.508 86.6905C209.014 86.1662 208.373 85.7879 207.683 85.5789C207.547 85.539 207.497 85.539 207.417 85.4328C207.358 85.3532 207.321 85.2371 207.275 85.1475C207.175 84.9583 207.069 84.7758 206.956 84.5999C206.714 84.2283 206.435 83.8831 206.12 83.5712C205.506 82.9672 204.763 82.3832 203.92 82.1443C203.472 82.0182 203.011 82.0149 202.563 82.1509C202.48 82.1775 201.594 82.5624 201.617 82.6155C201.577 82.5226 201.444 82.4529 201.375 82.3799C201.258 82.2571 201.162 82.1177 201.056 81.985C200.814 81.6797 200.518 81.454 200.18 81.2549C199.48 80.8401 198.68 80.5547 197.87 80.4585C197.087 80.3656 196.291 80.4685 195.564 80.7738C195.428 80.8302 195.149 81.0425 195.016 81.0459C194.884 81.0492 194.582 80.8468 194.452 80.8003C194.077 80.6576 193.682 80.5547 193.281 80.5216C192.604 80.4685 191.944 80.6609 191.379 81.0359C191.233 81.1321 191.247 81.089 191.134 80.9629C191.068 80.8899 190.998 80.8169 190.928 80.7472C190.812 80.6311 190.689 80.5182 190.563 80.412C190.324 80.2096 190.072 80.0138 189.81 79.8413C188.572 79.015 187.185 79.005 185.748 79.0548C184.474 79.1013 183.223 79.463 182.234 80.2926C182.154 80.3589 181.962 80.6211 181.859 80.641C181.766 80.6609 181.461 80.4485 181.364 80.4054C181.053 80.266 180.734 80.1399 180.405 80.0437C179.772 79.8545 179.115 79.7782 178.454 79.8612C177.253 80.0171 176.118 80.6477 175.295 81.5237C174.854 81.9916 174.499 82.5425 174.296 83.1531C174.236 83.3323 174.19 83.5148 174.157 83.7006C174.147 83.7604 174.15 83.8831 174.117 83.9362C174.074 84.0059 174.047 83.9794 173.948 83.9794C173.676 83.9794 173.407 84.0192 173.148 84.0955C172.076 84.4074 171.313 85.3433 171.057 86.4052C170.749 87.7558 171.27 89.1396 172.06 90.2214Z" fill="#910F0C"/>
<path d="M176.512 183.661L154.378 317.713L165.93 317.215L183.763 259.972L209.378 182.248L176.512 183.661Z" fill="#9E1C12"/>
<path d="M154.195 170.543L133.717 167.291C125.786 169.903 121.824 170.59 121.824 169.345C121.827 167.477 124.339 167.367 124.542 166.11C124.748 164.852 121.575 163.043 118.492 161.461C115.409 159.874 117.065 159.088 118.167 158.875C122.265 158.919 126.924 159.708 132.138 161.251L156.03 159.231L154.195 170.543ZM250.759 211.722C251.694 213.431 258.298 218.465 262.851 221.309C264.679 222.45 264.012 224.04 263.359 224.481C258.049 228.082 254.286 224.255 249.471 222.264C244.195 220.081 244.925 226.857 240.747 225.198C241.885 222.321 244.603 216.945 243.063 213.557C242.379 212.05 234.12 195.368 218.291 163.508L231.452 162.894C243.047 193.115 249.484 209.392 250.759 211.722Z" fill="#F9CBC7"/>
<path d="M192.383 146.401C188.531 177.986 163.656 190.663 134.563 188.167L137.404 158.417C168.57 161.998 181.771 146.896 183.324 123.823L193.601 122.694C194.079 129.729 193.379 138.225 192.383 146.401Z" fill="#9E1C12"/>
<path d="M220.059 245.115C219.502 243.997 218.705 226.532 217.786 207.172L248.698 205.841C239.904 168.074 223.534 139.27 199.588 119.422L198.566 119.466L198.559 119.475L183.099 123.723C184.24 150.247 172.921 187.766 172.898 188.021C171.129 207.109 201.184 249.884 204.101 254.337C206.046 257.307 225.24 269.463 261.689 290.807L267.208 280.427C236.31 257.957 220.594 246.184 220.059 245.115Z" fill="#CE3420"/>
<path d="M206.762 148.18C210.681 160.06 213.306 172.743 215.065 186.213L206.493 186.581C208.481 177.671 208.571 164.872 206.762 148.18Z" fill="black" fill-opacity="0.1"/>
</g>
<path d="M20.6055 105.215C17.1712 102.848 14.3952 99.565 13.5616 95.2741C11.1625 82.9101 28.767 81.0548 33.6938 86.2999C38.6206 91.545 42.3917 107.183 38.4383 109.417C36.8627 110.307 32.9674 110.206 28.7038 108.975L35.3776 124.663L21.7708 128.309L20.6055 105.215Z" fill="#F4BABA"/>
<path d="M35.7176 88.7054C35.37 87.9466 34.8036 87.1536 34.3366 86.4748C33.7343 85.5987 32.9814 84.8659 32.1901 84.195C30.7015 82.9346 29.0376 81.8791 27.3035 81.1001C24.1354 79.6747 20.5002 79.3398 17.35 80.6099C15.7598 81.2524 14.3342 82.3043 13.2551 83.7134C12.28 84.9848 11.4723 86.6888 9.91228 87.2133C8.21379 87.7852 6.22151 86.6837 4.58108 86.1132C2.73258 85.4714 0.864349 85.1406 -1.04344 85.3288C-4.23941 85.6458 -6.83485 87.4475 -8.27148 90.5225C-9.7998 93.7937 -10.3818 98.1479 -7.95825 101.295C-7.50973 101.879 -7.00855 102.339 -6.37843 102.665C-5.80028 102.963 -4.97251 103.219 -4.60538 103.846C-4.21512 104.507 -4.5631 105.593 -4.62125 106.299C-4.70319 107.314 -4.71541 108.358 -4.34957 109.339C-3.74698 110.947 -2.28501 112.249 -0.898478 113.039C0.5133 113.846 2.05439 114.109 3.60146 114.011C4.6347 113.944 5.66311 113.781 6.63788 113.445C7.12206 113.277 7.52106 113.023 7.97267 112.785C8.4091 112.554 8.70137 112.607 9.16755 112.757C11.3188 113.451 13.4161 113.381 15.4876 112.637C17.2367 112.01 19.181 111.022 20.3113 109.406C21.5658 107.614 21.0305 105.744 20.1123 103.843C20.5694 103.933 21.7216 103.758 20.8378 103.14C20.4867 102.894 19.9555 102.899 19.5659 102.804C19.1133 102.692 18.6379 102.52 18.2357 102.25C16.613 101.156 17.089 97.9192 18.5189 97.0242C20.6425 95.6925 22.0354 98.8269 23.9161 99.2299C24.9955 99.4629 25.8105 98.5299 26.34 97.6597C27.0481 96.4943 27.3758 95.1147 27.6078 93.7368C27.7988 92.6034 27.9535 91.4626 28.1559 90.3331C28.2517 89.8058 28.6558 88.2753 28.1317 87.8454C29.7005 87.0712 31.7314 87.2656 33.3991 87.7841C34.0885 87.9979 34.6481 88.2912 35.1424 88.8664C35.2475 88.9894 35.5074 89.3698 35.6944 89.3369C36.0468 89.2803 35.8061 88.8947 35.7176 88.7054Z" fill="#CE3420"/>
<path d="M49.6241 136.706L67.7518 122.177C70.3901 117.628 73.1349 113.97 75.9869 111.206C76.9045 110.62 78.5889 110.063 77.4777 113.221C76.3666 116.379 75.3371 119.752 76.32 120.491C77.303 121.231 79.1375 119.634 80.3799 120.928C81.2096 121.793 77.9697 123.961 70.6626 127.43L58.4379 143.35L49.6241 136.706ZM82.6842 140.436L90.644 134.039C91.0496 129.115 92.1128 126.488 93.8266 126.155C95.0385 125.308 93.786 131.659 96.2021 130.703C98.6144 129.746 103.927 124.122 105.142 124.858C106.942 125.949 106.292 130.387 105.023 132.764C102.652 137.202 100.351 138.982 94.3971 141.832C91.2833 143.321 88.0667 145.775 84.7441 149.195L82.6842 140.436Z" fill="#F4BABA"/>
<path d="M39.4204 135.978C46.4367 134.663 55.5445 131.527 64.4256 123.418L69.8981 131.483C64.2065 139.546 55.4987 146.881 46.9761 148.138C40.2596 149.126 35.4195 141.647 39.4204 135.978Z" fill="#C4361A"/>
<path d="M51.3614 148.355C59.1501 148.899 71.2767 144.5 87.7373 135.154C93.6829 143.399 96.8288 149.469 97.1785 153.364C83.5006 163.89 71.2042 169.677 60.6077 171.785C62.0576 178.039 69.9011 219.177 74.4823 226.736C71.1648 238.957 16.9344 232.385 6.84897 236.283C-3.44032 216.188 18.1727 116.797 19.9309 116.487L35.9703 113.659C38.8574 124.873 45.5217 136.62 51.3614 148.355Z" fill="#CC4521"/>
</g>
<defs>
<clipPath id="clip0_634_7321">
<rect width="231" height="231" rx="115.5" fill="white"/>
</clipPath>
</defs>
</svg>
