<svg width="231" height="231" viewBox="0 0 231 231" fill="none" xmlns="http://www.w3.org/2000/svg">
<g clip-path="url(#clip0_256_43479)">
<rect width="231" height="231" rx="115.5" fill="#03A3FC"/>
<path d="M-27.9212 166.595L-14.6461 217.796C-13.3479 222.799 -7.70598 225.259 -3.1573 222.809L36.2825 201.573C37.7613 200.778 38.7276 199.275 38.8301 197.596L41.6706 152.109C41.8756 148.873 38.9082 146.345 35.7456 147.063L-24.2852 160.63C-26.9598 161.236 -28.6094 163.94 -27.9212 166.595Z" fill="#61CFFF"/>
<path d="M258.466 166.595L245.191 217.796C243.892 222.799 238.255 225.259 233.707 222.809L194.267 201.573C192.788 200.778 191.822 199.275 191.719 197.596L188.874 152.109C188.674 148.873 191.636 146.345 194.799 147.063L254.83 160.63C257.509 161.236 259.154 163.94 258.466 166.595Z" fill="#61CFFF"/>
<path d="M83.374 69.0271C86.7465 68.4658 90.1336 67.8997 93.4914 67.3287C95.3851 66.3477 96.9029 65.3862 99.1236 64.8982C99.7337 64.7615 99.8752 65.4887 99.1968 65.9768C98.5135 66.4648 97.0542 67.6508 97.2104 68.4854C97.3666 69.3199 98.577 68.5927 98.5721 69.6616C98.5721 70.3741 94.0576 70.2472 93.5012 69.9739C90.7583 71.1794 88.0691 72.3166 85.3458 73.4879C84.6869 71.9994 84.028 70.5157 83.374 69.0271Z" fill="#357FD8"/>
<path d="M77.693 67.7433C81.9684 68.7487 87.3711 67.9824 91.6221 66.9429C91.8124 68.3778 92.0369 69.7736 92.2078 71.2231C88.4058 72.985 82.515 75.2447 78.4348 73.9123C75.2088 72.863 75.3991 69.4954 77.693 67.7433Z" fill="#063477"/>
<path d="M145.822 73.8979L137.032 71.6577C133.465 72.4679 131.713 72.5996 131.761 72.0628C131.839 71.2526 132.938 71.3112 133.084 70.7743C133.226 70.2374 131.918 69.3248 130.644 68.5146C129.365 67.7044 130.121 67.4311 130.61 67.3823C132.396 67.5678 134.392 68.0998 136.598 68.9783L147.096 69.0759L145.822 73.8979Z" fill="#3371AF"/>
<path d="M99.4703 90.648C99.4703 96.0263 103.253 96.8414 104.624 96.8414H125.376C126.767 96.8414 131.428 95.6993 131.023 90.5699L133.668 65.1129C133.854 62.5262 132.56 60.2714 130.911 60.3056L99.7045 60.5057C98.0647 60.5398 96.5468 61.4671 96.7616 64.0294L99.4703 90.648Z" fill="#61CFFF"/>
<path d="M70.8165 111.99C70.758 111.902 70.7043 111.8 70.6652 111.697C69.8306 109.496 62.91 90.1156 61.5825 85.7719L70.1869 81.4038C71.1972 84.7031 75.741 105.421 76.3804 109.555C78.4009 116.075 82.5543 137.189 83.0862 138.653C83.6426 140.19 80.5044 141.796 79.665 139.902C78.3326 136.891 75.1602 128.565 73.7497 123.479C72.4271 118.711 71.3485 114.421 70.8165 111.99Z" fill="#357FD8"/>
<path d="M50.9431 111.595C50.9285 111.488 50.9285 111.375 50.9431 111.263C51.2116 108.925 51.3189 95.9187 52.1242 91.4481L68.3081 84.8301C67.6981 88.2269 58.8106 107.998 57.4928 111.966C56.3069 118.686 48.986 138.775 48.8738 139.722C48.6688 141.347 45.1694 141.366 45.2866 139.302C45.4769 136.017 47.7317 127.691 48.8006 122.523C49.806 117.676 50.3038 113.996 50.9431 111.595Z" fill="#357FD8"/>
<path d="M78.7137 139.653C78.4208 140.429 78.2793 141.01 78.2793 141.396C78.2793 141.864 78.3574 142.548 78.5136 143.446H93.1552C93.5359 142.186 93.3163 141.508 92.4964 141.41C91.6764 141.308 90.9931 141.22 90.4514 141.137L83.6479 138.101C83.5161 138.043 83.3648 138.101 83.3063 138.233C83.3063 138.238 83.3063 138.238 83.3014 138.238L82.8621 139.297C82.1057 139.648 81.4858 139.829 81.0124 139.829C80.6268 139.829 80.0949 139.673 79.4165 139.361C79.1578 139.243 78.8454 139.356 78.7283 139.614C78.7234 139.634 78.7186 139.644 78.7137 139.653Z" fill="#063477"/>
<path d="M44.4665 139.502C44.0712 140.229 43.8467 140.786 43.7979 141.166C43.7344 141.63 43.7149 142.318 43.7491 143.226C44.1151 143.275 51.758 145.544 51.758 145.544C51.758 145.544 58.3029 145.232 58.2492 145.242C58.8007 144.051 58.6738 143.348 57.8783 143.133C57.0779 142.923 56.419 142.738 55.8919 142.582L49.5667 138.643C49.4447 138.57 49.2836 138.604 49.2104 138.726L49.2055 138.731L48.6247 139.722C47.8243 139.971 47.1898 140.059 46.7213 139.995C46.3406 139.941 45.8331 139.712 45.2035 139.312C44.9643 139.156 44.6422 139.229 44.486 139.473C44.4763 139.483 44.4714 139.492 44.4665 139.502Z" fill="#063477"/>
<path d="M80.7109 52.0718C80.1496 50.3636 79.8861 48.3431 80.6963 46.7666C83.0292 42.218 89.1445 44.7656 90.023 48.3089C90.8966 51.8571 89.1543 56.8889 86.1283 57.9529C84.9228 58.3775 83.4977 56.0983 82.7314 55.5175C82.1995 57.9041 81.7163 60.4322 81.2087 62.8725C79.2516 62.1794 77.2945 61.4815 75.3423 60.7885C77.1286 57.8748 78.9295 54.9953 80.7109 52.0718Z" fill="#357FD8"/>
<path d="M90.3639 49.8706C90.4078 49.4704 90.4371 49.1043 90.4224 48.6846C90.4078 48.2649 90.3492 47.7573 90.2126 47.3278C89.9588 46.5127 89.6757 45.7026 89.2023 44.9803C88.3384 43.6576 87.2452 42.7352 85.7127 42.3155C84.9367 42.1056 84.19 42.2179 83.4481 42.4082C82.7063 42.5937 82.1402 43.0524 81.3397 42.8182C80.5393 42.579 80.1928 41.7444 79.6706 41.1051C79.1484 40.4657 78.6262 39.7922 77.816 39.4262C76.4592 38.8063 75.2878 38.7136 73.8774 39.5336C72.4669 40.3535 71.3541 41.7347 71.3102 43.4917C71.3004 43.8187 71.4029 44.0969 71.5347 44.3946C71.6616 44.6874 71.9154 44.907 71.8715 45.278C71.8275 45.6489 71.5005 45.8539 71.2565 46.1711C71.0076 46.4932 70.6953 46.8885 70.6025 47.3376C70.4512 48.0794 70.5927 48.8603 70.9246 49.5338C71.2565 50.2073 71.6958 50.6222 72.3205 51.0224C72.7353 51.2908 73.0574 51.3982 73.5894 51.5934C73.853 51.691 73.7602 51.4958 74.3166 51.7398C74.873 51.9839 76.1175 53.2577 76.9814 53.4871C77.8453 53.7164 78.6798 53.8482 79.5535 53.5163C80.4271 53.1845 81.4325 51.8082 81.3105 51.3835C81.2617 51.2176 81.0615 51.0907 80.9395 50.9443C80.8175 50.7979 80.6613 50.6124 80.6028 50.4074C80.3685 49.5826 81.1884 48.5675 81.984 48.626C83.1651 48.709 82.8137 50.0756 83.4384 50.7198C83.7995 51.0907 84.229 50.9687 84.7122 50.7588C85.1954 50.549 85.7518 50.0658 86.1373 49.6656C86.5229 49.2703 86.806 48.953 87.211 48.5479C87.4014 48.3576 87.8553 48.0013 87.8113 47.6499C88.6313 47.8354 89.217 48.3137 89.7441 48.9481C89.9588 49.2117 90.0466 49.4508 90.115 49.7827C90.1296 49.8559 90.0857 50.0414 90.2028 50.0853C90.32 50.1195 90.3492 49.9682 90.3639 49.8706Z" fill="#063477"/>
<path d="M92.7994 78.3534C94.2684 78.0264 95.7375 77.6994 97.2017 77.3675C97.8166 76.4061 98.6463 74.7516 100.008 74.8687C100.599 75.1078 99.0319 76.8112 100.057 77.0601C101.082 77.309 104.034 75.796 104.581 76.5769C105.391 77.7336 104.059 78.9684 103.088 79.6614C101.272 80.9547 99.5834 81.1646 97.0699 81.1988C95.757 81.2183 93.3411 81.6624 91.9307 82.2286C92.1747 80.9401 92.5163 79.6468 92.7994 78.3534Z" fill="#357FD8"/>
<path d="M82.3731 74.9472C87.6685 77.4119 91.2167 77.1922 96.9074 76.9482C97.3613 79.9156 97.947 83.0733 97.0929 86.0212C90.9385 87.0851 87.5709 87.3926 81.4653 85.8601C79.4789 93.8301 77.0338 103.474 77.4096 110.551C65.9061 109.433 55.2079 103.498 46.8573 99.4622C45.481 93.342 73.4173 57.1722 76.3407 55.7959L83.0417 58.8072C81.763 64.6736 82.4073 69.2369 82.3731 74.9472Z" fill="#063477"/>
<path d="M154.48 57.6215L149.151 61.1063L145.881 54.1319C145.007 55.9377 143.87 57.2799 143.094 57.5434C141.151 58.2023 137.022 52.2188 136.739 48.9781C136.456 45.7374 142.386 40.3688 145.827 44.9028C147.023 46.4743 147.291 48.4022 147.052 50.2714L154.48 57.6215Z" fill="#3371AF"/>
<path d="M145.216 48.7825C144.767 48.0943 143.796 47.8063 143.015 48.3237C142.732 48.5092 142.561 48.8508 142.517 49.2315C142.161 48.8605 141.843 48.4701 141.585 48.0748C141.292 47.6258 141.082 47.2012 140.95 46.7912C139.955 47.3525 138.993 47.7624 138.193 47.9918C136.982 48.6946 135.421 48.3334 134.644 47.1475C133.844 45.9225 134.186 44.2777 135.411 43.4773C136.636 42.6769 138.276 43.0185 139.076 44.2387C139.305 44.0825 139.545 43.9312 139.793 43.7799C141.121 42.9746 142.419 42.4231 143.415 42.1937C143.595 42.14 143.786 42.1107 143.981 42.0961C144.288 42.0619 144.552 42.0717 144.757 42.1254C145.528 42.2376 152.585 44.1703 148.94 51.745C148.466 52.7259 146.49 51.9841 144.996 51.1495C145.694 50.6127 145.782 49.6561 145.216 48.7825Z" fill="#191847"/>
<path d="M159.252 80.5596L154.669 139.19H159.257L163.83 114.045L173.547 80.5596H159.252Z" fill="#3371AF"/>
<path d="M160.638 81.189C164.484 97.8317 167.115 107.319 168.008 109.652C168.901 111.985 171.615 122.571 179.389 140.346H184.162C178.291 121.82 177.432 111.234 177.276 109.652C177.125 108.071 176.427 99.7009 177.105 82.3066L160.638 81.189Z" fill="#3371AF"/>
<path d="M159.365 80.2275C155.714 92.4094 153.606 109.477 154.099 135.407H160.81C167.027 110.145 171.396 91.7505 173.924 80.2275H159.365Z" fill="#053D7F"/>
<path d="M159.53 80.5205C163.347 101.409 168.93 118.462 176.72 135.968H183.879C178.55 115.055 176.446 99.706 177.11 82.3068L159.53 80.5205Z" fill="#0A4299"/>
<path d="M183.953 144.969L178.37 145.164L168.955 144.461L168.633 143.168C168.628 143.148 168.623 143.129 168.623 143.114C168.584 142.821 168.789 142.558 169.077 142.518C172.884 142.001 176.061 140.903 178.614 139.219C180.908 140.103 182.831 140.342 184.383 139.946L184.5 144.197L183.953 144.969Z" fill="#3BC3FF"/>
<path d="M159.686 144.265L144.635 143.582L144.347 142.44C144.342 142.421 144.337 142.401 144.337 142.386C144.298 142.094 144.498 141.83 144.791 141.786C148.593 141.254 151.77 140.141 154.318 138.453C156.611 139.326 158.534 139.561 160.091 139.155L160.228 143.406L159.686 144.265Z" fill="#3BC3FF"/>
<path d="M141.433 82.4238C139.301 82.1359 137.47 82.1651 135.948 82.5068C133.039 83.1559 131.721 83.1657 129.642 82.253C128.529 81.7649 127.055 80.3691 127.392 79.4808C127.617 78.8805 131.077 79.393 132.199 79.0611C133.327 78.7243 131.106 76.8209 131.775 76.7819C132.478 76.4207 133.59 77.0601 135.108 78.6951L139.72 78.7439L141.433 82.4238Z" fill="#3371AF"/>
<path d="M151.38 72.8579C148.003 74.7906 142.859 74.6197 138.583 73.3459L138.276 68.9534C143.698 69.3536 147.808 67.9236 150.668 66.4302C153.674 67.3233 154.04 71.3351 151.38 72.8579Z" fill="#26B8EA"/>
<path d="M144.977 57.2062L151.464 53.7312C152.176 53.3506 175.149 72.2969 177.106 82.3118C173.758 85.5769 162.132 94.7035 157.54 91.292C155.305 89.6326 153.694 87.368 152.464 84.7423C148.111 86.9532 145.548 87.7243 137.749 87.8073C136.783 86.3285 136.207 83.2928 136.017 78.7002C144.475 77.4214 146.593 76.2062 149.209 73.8391C147.998 68.0313 147.086 61.9989 144.977 57.2062Z" fill="#3BC3FF"/>
<path d="M39.2157 191.46L41.734 151.162C41.9293 148.014 44.4672 145.524 47.6151 145.383L90.4957 143.45C93.7363 143.304 96.5378 145.695 96.9038 148.916L98.368 161.767C99.6857 173.329 92.526 184.174 81.3788 187.512L47.1417 197.756C43.0274 198.986 38.9473 195.745 39.2157 191.46Z" fill="#0A4299"/>
<path d="M97.374 69.0016C97.5133 69.5648 98.7137 69.0933 98.6897 69.8103C98.6849 69.9806 98.1183 70.0723 97.3692 70.1083C96.0152 70.177 97.2396 68.4417 97.374 69.0016Z" fill="#357FD8"/>
<path d="M191.333 191.46L188.815 151.162C188.619 148.014 186.082 145.524 182.934 145.383L140.053 143.45C136.812 143.304 134.011 145.695 133.645 148.916L132.181 161.767C130.863 173.329 138.023 184.174 149.17 187.512L183.407 197.756C187.521 198.986 191.601 195.745 191.333 191.46Z" fill="#0A4299"/>
</g>
<defs>
<clipPath id="clip0_256_43479">
<rect width="231" height="231" rx="115.5" fill="white"/>
</clipPath>
</defs>
</svg>
