<svg width="231" height="231" viewBox="0 0 231 231" fill="none" xmlns="http://www.w3.org/2000/svg">
<g clip-path="url(#clip0_646_9162)">
<rect width="231" height="231" rx="115.5" fill="#BA0055"/>
<path d="M186.462 200.89C206.132 217.595 71.2217 246.91 80.6617 222.565C110.077 146.7 -43.6133 101.605 -58.6833 99.22C-234.668 71.35 -210.928 44 -210.928 44L-167.063 44.515C-167.063 44.515 -157.258 59.995 -30.8183 82.19C-16.1483 84.765 -1.91826 89.93 -1.91826 89.93C-1.91826 89.93 63.1167 96.125 186.462 200.89Z" fill="#A10745"/>
<path d="M133.152 157.319C133.152 157.319 86.7591 155.681 94.9754 146.906C152.948 84.9613 202.468 83.9853 202.468 83.9853L220.063 73L240.309 73.8716C240.309 73.8716 184.701 124.182 167.365 134.727C158.427 140.156 133.152 157.319 133.152 157.319Z" fill="#A10745"/>
<mask id="mask0_646_9162" style="mask-type:luminance" maskUnits="userSpaceOnUse" x="-663" y="-165" width="1361" height="539">
<path d="M697.63 -165H-663V373.58H697.63V-165Z" fill="white"/>
</mask>
<g mask="url(#mask0_646_9162)">
<path fill-rule="evenodd" clip-rule="evenodd" d="M161.58 42.9501L160.65 38.0901C160.29 36.9601 158.98 35.9901 158.95 35.1001C158.99 34.8601 160 33.7701 160.64 35.1201C161 35.7801 161.4 36.4701 161.67 36.4201C161.94 36.3701 161.95 35.8201 162.36 35.8101C162.63 35.8001 162.5 36.6701 161.97 38.4101L163.68 42.7401L161.58 42.9501Z" fill="#DB6A9D"/>
</g>
<mask id="mask1_646_9162" style="mask-type:luminance" maskUnits="userSpaceOnUse" x="-663" y="-165" width="1361" height="539">
<path d="M697.63 -165H-663V373.58H697.63V-165Z" fill="white"/>
</mask>
<g mask="url(#mask1_646_9162)">
<path fill-rule="evenodd" clip-rule="evenodd" d="M171.36 58.1701C172.49 56.2001 171.96 53.0201 172.5 51.4701C172.56 51.3001 173.99 49.2401 173.71 48.9401C173.46 48.6801 172.14 49.6801 170.88 49.7501L169.42 49.5101C167.34 47.3501 165.43 44.1801 162.87 38.8701L160.48 40.3701C161.27 44.5501 162.42 48.4501 164.44 51.0801L171.36 58.1701Z" fill="#71032E"/>
</g>
<mask id="mask2_646_9162" style="mask-type:luminance" maskUnits="userSpaceOnUse" x="-663" y="-165" width="1361" height="539">
<path d="M697.63 -165H-663V373.58H697.63V-165Z" fill="white"/>
</mask>
<g mask="url(#mask2_646_9162)">
<path d="M169.45 86.14C169.49 86.08 169.52 86.02 169.54 85.96C170.06 84.58 178.42 69.7 179.25 66.98H169.84C169.21 69.05 166.36 82.03 165.96 84.62C164.7 88.7 162.09 101.94 161.76 102.85C161.41 103.81 163.38 104.82 163.9 103.63C164.73 101.74 166.72 96.52 167.61 93.34C168.44 90.35 169.12 87.66 169.45 86.14Z" fill="#510323"/>
</g>
<mask id="mask3_646_9162" style="mask-type:luminance" maskUnits="userSpaceOnUse" x="-663" y="-165" width="1361" height="539">
<path d="M697.63 -165H-663V373.58H697.63V-165Z" fill="white"/>
</mask>
<g mask="url(#mask3_646_9162)">
<path d="M182.48 85.26C182.49 85.19 182.49 85.12 182.48 85.05C182.31 83.59 181.74 72.63 181.24 69.83L171.6 68.48C171.98 70.61 177.55 83 178.38 85.49C179.12 89.7 183.46 99.4 183.52 100C183.65 101.02 185.84 101.03 185.77 99.74C185.65 97.68 184.49 95.35 183.82 92.11C183.19 89.07 182.88 86.77 182.48 85.26Z" fill="#510323"/>
</g>
<mask id="mask4_646_9162" style="mask-type:luminance" maskUnits="userSpaceOnUse" x="-663" y="-165" width="1361" height="539">
<path d="M697.63 -165H-663V373.58H697.63V-165Z" fill="white"/>
</mask>
<g mask="url(#mask4_646_9162)">
<path d="M164.5 103.48C164.68 103.97 164.77 104.33 164.77 104.57C164.77 104.86 164.57 104.87 164.47 105.43C164.13 105.43 162.34 106.85 156.95 108.52C156.71 107.73 156.22 106.79 156.73 106.72C157.24 106.66 157.94 106 158.28 105.95L161.41 102.51C161.49 102.47 161.59 102.51 161.62 102.59L161.89 103.26C162.37 103.48 162.75 103.59 163.05 103.59C163.29 103.59 163.63 103.49 164.05 103.3C164.21 103.22 164.41 103.3 164.48 103.46C164.49 103.46 164.5 103.47 164.5 103.48Z" fill="#71032E"/>
</g>
<mask id="mask5_646_9162" style="mask-type:luminance" maskUnits="userSpaceOnUse" x="-663" y="-165" width="1361" height="539">
<path d="M697.63 -165H-663V373.58H697.63V-165Z" fill="white"/>
</mask>
<g mask="url(#mask5_646_9162)">
<path d="M186.13 99.86C186.38 100.32 186.52 100.66 186.55 100.9C186.59 101.19 186.6 101.62 186.58 102.19C186.35 102.22 182.73 103.35 182.73 103.35C182.73 103.35 179.47 104.64 179.5 104.64C179.05 104.57 178.28 103.48 178.28 103.48C178.28 103.48 180.01 102.35 180.34 102.25L182.93 99.31C183.01 99.26 183.11 99.29 183.15 99.36L183.51 99.98C184.01 100.13 184.41 100.19 184.7 100.15C184.94 100.12 185.26 99.97 185.65 99.72C185.8 99.62 186 99.67 186.1 99.82C186.12 99.85 186.12 99.86 186.13 99.86Z" fill="#71032E"/>
</g>
<mask id="mask6_646_9162" style="mask-type:luminance" maskUnits="userSpaceOnUse" x="-663" y="-165" width="1361" height="539">
<path d="M697.63 -165H-663V373.58H697.63V-165Z" fill="white"/>
</mask>
<g mask="url(#mask6_646_9162)">
<path fill-rule="evenodd" clip-rule="evenodd" d="M186.15 67.0601L187.1 73.2601C187.81 74.4901 188.29 75.6301 188.55 76.6701C188.56 76.9601 188.47 77.4301 187.88 76.7501C187.29 76.0601 186.64 75.3701 186.34 75.5001C186.04 75.6301 186.16 76.2801 185.69 76.3901C185.38 76.4701 185.31 75.4201 185.48 73.2401L183.41 68.2301L186.15 67.0601Z" fill="#DB6A9D"/>
</g>
<mask id="mask7_646_9162" style="mask-type:luminance" maskUnits="userSpaceOnUse" x="-663" y="-165" width="1361" height="539">
<path d="M697.63 -165H-663V373.58H697.63V-165Z" fill="white"/>
</mask>
<g mask="url(#mask7_646_9162)">
<path fill-rule="evenodd" clip-rule="evenodd" d="M180.71 49.5601C184.36 50.1501 184.8 56.3801 187.63 71.5201L184.39 72.6501C181.31 66.0101 176.95 60.7501 177.12 55.6201C177.16 54.3301 176.25 50.3701 176.74 48.3701L180.71 49.5601Z" fill="#A10745"/>
</g>
<mask id="mask8_646_9162" style="mask-type:luminance" maskUnits="userSpaceOnUse" x="-663" y="-165" width="1361" height="539">
<path d="M697.63 -165H-663V373.58H697.63V-165Z" fill="white"/>
</mask>
<g mask="url(#mask8_646_9162)">
<path fill-rule="evenodd" clip-rule="evenodd" d="M177.18 48.6602C175.61 49.3402 174.13 49.4902 172.75 49.1002C172.56 49.0502 172.14 49.4501 172.13 49.6801C172.04 54.2001 170.01 62.5401 166.03 74.6801H183.61C182.79 63.6101 181.35 55.3602 177.18 48.6602Z" fill="#A10745"/>
</g>
<mask id="mask9_646_9162" style="mask-type:luminance" maskUnits="userSpaceOnUse" x="-663" y="-165" width="1361" height="539">
<path d="M697.63 -165H-663V373.58H697.63V-165Z" fill="white"/>
</mask>
<g mask="url(#mask9_646_9162)">
<path d="M178.46 45.9699C178.46 48.4699 177.08 50.4999 175.38 50.4999C173.68 50.4999 172.3 48.4699 172.3 45.9699C172.3 43.4699 173.68 41.4399 175.38 41.4399C177.08 41.4399 178.46 43.4699 178.46 45.9699Z" fill="#DB6A9D"/>
</g>
<mask id="mask10_646_9162" style="mask-type:luminance" maskUnits="userSpaceOnUse" x="-627" y="-119" width="1361" height="539">
<path d="M733.63 -119H-627V419.58H733.63V-119Z" fill="white"/>
</mask>
<g mask="url(#mask10_646_9162)">
<path d="M171.8 46.9399C171.64 46.7299 171.46 46.4599 171.36 46.1999C171.15 45.7099 170.97 45.1999 170.9 44.6699C170.78 43.6899 170.94 42.7999 171.51 41.9899C171.8 41.5799 172.2 41.3299 172.64 41.1299C173.07 40.9199 173.53 40.9199 173.82 40.4799C174.11 40.0399 173.94 39.4999 173.94 38.9899C173.93 38.4699 173.92 37.9399 174.16 37.4399C174.56 36.5999 175.09 36.0799 176.1 35.9099C177.11 35.7399 178.2 35.9599 178.92 36.7899C179.06 36.9399 179.12 37.1199 179.17 37.3099C179.23 37.4999 179.19 37.7099 179.36 37.8699C179.53 38.0299 179.77 37.9999 180.02 38.0499C180.27 38.0999 180.58 38.1699 180.8 38.3499C181.17 38.6499 181.41 39.0799 181.52 39.5399C181.63 39.9999 181.59 40.3699 181.45 40.8199C181.36 41.1199 181.25 41.2999 181.07 41.5999C180.98 41.7499 180.95 41.6199 180.78 41.9599C180.61 42.2999 180.52 43.4099 180.2 43.8699C179.87 44.3299 179.52 44.7299 178.97 44.9199C178.42 45.1099 177.38 44.8499 177.27 44.5999C177.23 44.4999 177.27 44.3599 177.27 44.2399C177.27 44.1199 177.27 43.9699 177.22 43.8499C177 43.3599 176.2 43.1999 175.84 43.5499C175.31 44.0599 172.76 45.6099 172.64 45.4199C172.32 45.8399 172.35 46.2499 172.35 46.7599C172.35 46.9699 172.54 47.6799 172.49 47.6299C172.44 47.5799 171.96 47.1499 171.8 46.9399Z" fill="#510323"/>
</g>
<mask id="mask11_646_9162" style="mask-type:luminance" maskUnits="userSpaceOnUse" x="-572" y="-148" width="1361" height="539">
<path d="M788.63 -148H-572V390.58H788.63V-148Z" fill="white"/>
</mask>
<g mask="url(#mask11_646_9162)">
<path d="M140.98 150.46L132.86 143.87L132.81 132.5C129.55 132.04 126.88 130.93 126.08 129.85C124.08 127.14 131.37 117.69 136.3 115.63C141.23 113.57 152.59 120.16 147.22 127.81C145.36 130.46 142.48 131.85 139.44 132.41L140.98 150.46Z" fill="#DB6A9D"/>
</g>
<mask id="mask12_646_9162" style="mask-type:luminance" maskUnits="userSpaceOnUse" x="-572" y="-148" width="1361" height="539">
<path d="M788.63 -148H-572V390.58H788.63V-148Z" fill="white"/>
</mask>
<g mask="url(#mask12_646_9162)">
<path d="M139.62 126.64C139.95 125.33 139.21 123.84 137.72 123.47C137.19 123.34 136.58 123.51 136.07 123.88C136.12 123.03 136.24 122.21 136.42 121.46C136.63 120.61 136.92 119.88 137.26 119.26C135.48 118.68 133.91 117.98 132.74 117.27C130.54 116.59 129.23 114.3 129.8 112.05C130.39 109.72 132.75 108.3 135.09 108.88C137.42 109.46 138.84 111.82 138.26 114.15C138.7 114.25 139.16 114.37 139.61 114.5C142.06 115.21 144.17 116.16 145.56 117.1C145.83 117.26 146.08 117.45 146.31 117.67C146.7 118 146.98 118.33 147.14 118.64C147.86 119.7 153.4 130.37 140.2 134.41C138.49 134.93 137.18 131.72 136.53 128.99C137.95 129.25 139.21 128.29 139.62 126.64Z" fill="#510323"/>
</g>
<mask id="mask13_646_9162" style="mask-type:luminance" maskUnits="userSpaceOnUse" x="-572" y="-148" width="1361" height="539">
<path d="M788.63 -148H-572V390.58H788.63V-148Z" fill="white"/>
</mask>
<g mask="url(#mask13_646_9162)">
<path d="M121.29 183.17L114.46 270.54H121.3L128.11 233.07L142.59 183.17H121.29Z" fill="#71032E"/>
</g>
<mask id="mask14_646_9162" style="mask-type:luminance" maskUnits="userSpaceOnUse" x="-572" y="-148" width="1361" height="539">
<path d="M788.63 -148H-572V390.58H788.63V-148Z" fill="white"/>
</mask>
<g mask="url(#mask14_646_9162)">
<path d="M123.92 183.17C129.65 207.97 133.57 222.11 134.9 225.59C136.23 229.07 140.27 244.84 151.86 271.33H158.97C150.22 243.72 148.94 227.95 148.71 225.59C148.48 223.24 148.09 209.1 149.1 183.17H123.92Z" fill="#71032E"/>
</g>
<mask id="mask15_646_9162" style="mask-type:luminance" maskUnits="userSpaceOnUse" x="-572" y="-148" width="1361" height="539">
<path d="M788.63 -148H-572V390.58H788.63V-148Z" fill="white"/>
</mask>
<g mask="url(#mask15_646_9162)">
<path d="M121.2 183.17C115.76 201.32 112.62 226.76 113.36 265.4H123.36C132.62 227.75 139.14 200.34 142.9 183.17H121.2Z" fill="#510323"/>
</g>
<mask id="mask16_646_9162" style="mask-type:luminance" maskUnits="userSpaceOnUse" x="-572" y="-148" width="1361" height="539">
<path d="M788.63 -148H-572V390.58H788.63V-148Z" fill="white"/>
</mask>
<g mask="url(#mask16_646_9162)">
<path fill-rule="evenodd" clip-rule="evenodd" d="M162.57 196.12C163.09 197.17 166.92 200.36 169.58 202.19C170.65 202.92 170.21 203.86 169.8 204.11C166.52 206.13 164.36 203.74 161.52 202.42C158.41 200.97 158.67 205.06 156.21 203.96C156.97 202.26 158.74 199.11 157.9 197.03C157.53 196.11 154.33 185.88 148.3 166.35L156.21 166.32C159.75 184.75 161.87 194.69 162.57 196.12Z" fill="#DB6A9D"/>
</g>
<mask id="mask17_646_9162" style="mask-type:luminance" maskUnits="userSpaceOnUse" x="-572" y="-148" width="1361" height="539">
<path d="M788.63 -148H-572V390.58H788.63V-148Z" fill="white"/>
</mask>
<g mask="url(#mask17_646_9162)">
<path fill-rule="evenodd" clip-rule="evenodd" d="M127.63 136.4C127.57 135.59 128.19 134.88 129 134.82L138.94 134.13C139.75 134.07 140.46 134.69 140.52 135.5L140.66 137.49C154.1 146.65 160.86 166.98 163.94 187.35C164.63 191.9 162.07 192.89 162.44 194.92L157.01 196.42C157.01 194.92 152.89 194.3 151.83 190.41C151.21 188.16 151.87 179.91 150.82 176.78C150.73 180.85 149.97 184.58 148.3 187.67C144.16 195.31 120.22 186.93 117.72 179.14C114.69 169.71 128.29 163.71 127.92 140.19L127.63 136.4Z" fill="#510323"/>
</g>
<mask id="mask18_646_9162" style="mask-type:luminance" maskUnits="userSpaceOnUse" x="-572" y="-148" width="1361" height="539">
<path d="M788.63 -148H-572V390.58H788.63V-148Z" fill="white"/>
</mask>
<g mask="url(#mask18_646_9162)">
<path fill-rule="evenodd" clip-rule="evenodd" d="M133.88 190.94L126.75 201.35C126.1 206.39 125.44 208.75 124.76 208.42C123.74 207.93 124.34 206.52 123.71 206.08C123.08 205.64 121.26 206.91 119.59 208.19C117.92 209.47 117.92 208.36 118.1 207.69C119.2 205.45 120.84 203.09 123.05 200.63L128.19 186.97L133.88 190.94Z" fill="#DB6A9D"/>
</g>
<mask id="mask19_646_9162" style="mask-type:luminance" maskUnits="userSpaceOnUse" x="-572" y="-148" width="1361" height="539">
<path d="M788.63 -148H-572V390.58H788.63V-148Z" fill="white"/>
</mask>
<g mask="url(#mask19_646_9162)">
<path fill-rule="evenodd" clip-rule="evenodd" d="M133.59 198.94C130.56 200.26 128.94 198.89 128.31 199.77L123.91 197.11C124.75 196.29 122.89 195.22 123.26 192.74C124.26 185.99 131.76 159.8 135.21 141.66L138.44 141.93C140.28 162.88 136.61 197.62 133.59 198.94Z" fill="#71032E"/>
</g>
<mask id="mask20_646_9162" style="mask-type:luminance" maskUnits="userSpaceOnUse" x="-229" y="-46" width="681" height="270">
<path d="M451.315 -46H-229V223.29H451.315V-46Z" fill="white"/>
</mask>
<g mask="url(#mask20_646_9162)">
<path d="M137.95 71.5098L130.83 63.7348C130.63 63.5198 130.375 63.3648 130.09 63.2898L107.675 64.3248V59.3898C107.675 58.5348 106.98 57.8398 106.125 57.8398H99.9251C99.0701 57.8398 98.3751 58.5348 98.3751 59.3898V64.3248L77.7601 60.7898C77.4751 60.8648 77.2201 61.0198 77.0201 61.2398L69.9001 69.0148C69.5801 69.3648 69.4351 69.8398 69.5101 70.3098C69.5851 70.7798 69.8701 71.1848 70.2851 71.4198L77.4101 75.3848C77.7601 75.5798 78.1751 75.6298 78.5601 75.5248L98.3701 79.2849V141.375C98.3701 142.23 99.0651 142.925 99.9201 142.925H106.12C106.975 142.925 107.67 142.23 107.67 141.375V79.2748L129.28 78.0198C129.665 78.1248 130.08 78.0748 130.43 77.8798L137.555 73.9148C137.97 73.6848 138.255 73.2748 138.33 72.8048C138.415 72.3398 138.27 71.8598 137.95 71.5098Z" fill="#510323"/>
</g>
<mask id="mask21_646_9162" style="mask-type:luminance" maskUnits="userSpaceOnUse" x="-246" y="-49" width="681" height="270">
<path d="M434.315 -49H-246V220.29H434.315V-49Z" fill="white"/>
</mask>
<g mask="url(#mask21_646_9162)">
<path d="M130.83 45.42L124.51 39.525C124.31 39.31 124.055 39.155 123.77 39.08L107.675 41.485V36.55C107.675 35.695 106.98 35 106.125 35H99.9251C99.0701 35 98.3751 35.695 98.3751 36.55V41.485L63.7201 40.575C63.4351 40.65 63.1801 40.805 62.9801 41.025L55.8601 48.8C55.5401 49.15 55.3951 49.625 55.4701 50.095C55.5451 50.565 55.8301 50.97 56.2451 51.2L63.3701 55.165C63.7201 55.36 64.1351 55.41 64.5201 55.305L98.3751 56.44V118.53C98.3751 119.385 99.0701 120.08 99.9251 120.08H106.125C106.98 120.08 107.675 119.385 107.675 118.53V56.425L122.97 53.805C123.355 53.91 123.77 53.86 124.12 53.665L130.445 47.825C130.86 47.595 131.145 47.185 131.22 46.715C131.295 46.245 131.155 45.77 130.83 45.42Z" fill="#510323"/>
</g>
</g>
<defs>
<clipPath id="clip0_646_9162">
<rect width="231" height="231" rx="115.5" fill="white"/>
</clipPath>
</defs>
</svg>
