<svg width="24" height="24" viewBox="0 0 24 24" fill="none" xmlns="http://www.w3.org/2000/svg">
<path fill-rule="evenodd" clip-rule="evenodd" d="M16.3106 23.6654V14.6295H19.3439L19.7978 11.1085H16.3094V8.86037C16.3094 7.8407 16.5929 7.14537 18.0559 7.14537H19.9203V3.99536C19.0174 3.89928 18.1099 3.85255 17.2019 3.85536C14.5139 3.85536 12.6741 5.49687 12.6741 8.51037V11.1085H9.63143V14.6295H12.6729V23.6654H1.5861C0.874429 23.6654 0.298096 23.089 0.298096 22.3774V1.62003C0.298096 0.908365 0.874429 0.332031 1.5861 0.332031H22.3434C23.0551 0.332031 23.6314 0.908365 23.6314 1.62003V22.3774C23.6314 23.089 23.0551 23.6654 22.3434 23.6654H16.3106Z" fill="white"/>
</svg>
