<svg width="29" height="28" viewBox="0 0 29 28" fill="none" xmlns="http://www.w3.org/2000/svg">
<path d="M14.9648 0C11.1656 0 10.6878 0.0175 9.19509 0.084C7.70234 0.154 6.68559 0.3885 5.79484 0.735C4.86051 1.08643 4.0142 1.6377 3.31509 2.35025C2.60298 3.04972 2.05178 3.89592 1.69984 4.83C1.35334 5.719 1.11709 6.7375 1.04884 8.225C0.982344 9.72125 0.964844 10.1973 0.964844 14.0018C0.964844 17.8027 0.982344 18.2788 1.04884 19.7715C1.11884 21.2625 1.35334 22.2792 1.69984 23.17C2.05859 24.0905 2.53634 24.871 3.31509 25.6497C4.09209 26.4285 4.87259 26.908 5.79309 27.265C6.68559 27.6115 7.70059 27.8477 9.19159 27.916C10.6861 27.9825 11.1621 28 14.9648 28C18.7676 28 19.2418 27.9825 20.7363 27.916C22.2256 27.846 23.2458 27.6115 24.1366 27.265C25.0703 26.9134 25.916 26.3621 26.6146 25.6497C27.3933 24.871 27.8711 24.0905 28.2298 23.17C28.5746 22.2792 28.8108 21.2625 28.8808 19.7715C28.9473 18.2788 28.9648 17.8027 28.9648 14C28.9648 10.1972 28.9473 9.72125 28.8808 8.22675C28.8108 6.7375 28.5746 5.719 28.2298 4.83C27.878 3.89589 27.3268 3.04968 26.6146 2.35025C25.9157 1.63743 25.0693 1.08613 24.1348 0.735C23.2423 0.3885 22.2238 0.15225 20.7346 0.084C19.2401 0.0175 18.7658 0 14.9613 0H14.9666H14.9648ZM13.7101 2.5235H14.9666C18.7046 2.5235 19.1473 2.53575 20.6226 2.604C21.9876 2.66525 22.7296 2.8945 23.2231 3.08525C23.8758 3.339 24.3431 3.6435 24.8331 4.1335C25.3231 4.6235 25.6258 5.089 25.8796 5.7435C26.0721 6.23525 26.2996 6.97725 26.3608 8.34225C26.4291 9.8175 26.4431 10.2603 26.4431 13.9965C26.4431 17.7327 26.4291 18.1772 26.3608 19.6525C26.2996 21.0175 26.0703 21.7577 25.8796 22.2513C25.6551 22.8591 25.2969 23.4088 24.8313 23.8595C24.3413 24.3495 23.8758 24.6523 23.2213 24.906C22.7313 25.0985 21.9893 25.326 20.6226 25.389C19.1473 25.4555 18.7046 25.4713 14.9666 25.4713C11.2286 25.4713 10.7841 25.4555 9.30884 25.389C7.94384 25.326 7.20359 25.0985 6.71009 24.906C6.10197 24.6819 5.55181 24.3243 5.10009 23.8595C4.63416 23.4081 4.27536 22.8579 4.05009 22.2495C3.85934 21.7577 3.63009 21.0158 3.56884 19.6507C3.50234 18.1755 3.48834 17.7327 3.48834 13.993C3.48834 10.255 3.50234 9.814 3.56884 8.33875C3.63184 6.97375 3.85934 6.23175 4.05184 5.73825C4.30559 5.0855 4.61009 4.61825 5.10009 4.12825C5.59009 3.63825 6.05559 3.3355 6.71009 3.08175C7.20359 2.88925 7.94384 2.66175 9.30884 2.59875C10.6003 2.53925 11.1008 2.52175 13.7101 2.52V2.5235ZM22.4391 4.8475C22.2185 4.8475 22 4.89095 21.7962 4.97538C21.5924 5.05981 21.4072 5.18356 21.2512 5.33956C21.0952 5.49556 20.9714 5.68076 20.887 5.88459C20.8025 6.08842 20.7591 6.30688 20.7591 6.5275C20.7591 6.74812 20.8025 6.96658 20.887 7.17041C20.9714 7.37423 21.0952 7.55944 21.2512 7.71544C21.4072 7.87144 21.5924 7.99519 21.7962 8.07962C22 8.16405 22.2185 8.2075 22.4391 8.2075C22.8847 8.2075 23.312 8.0305 23.627 7.71544C23.9421 7.40038 24.1191 6.97306 24.1191 6.5275C24.1191 6.08194 23.9421 5.65462 23.627 5.33956C23.312 5.0245 22.8847 4.8475 22.4391 4.8475ZM14.9666 6.811C14.013 6.79612 13.0659 6.9711 12.1806 7.32575C11.2952 7.68039 10.4892 8.20762 9.80961 8.87674C9.12997 9.54586 8.59023 10.3435 8.22182 11.2232C7.8534 12.1029 7.66367 13.0471 7.66367 14.0009C7.66367 14.9546 7.8534 15.8988 8.22182 16.7785C8.59023 17.6583 9.12997 18.4559 9.80961 19.125C10.4892 19.7941 11.2952 20.3214 12.1806 20.676C13.0659 21.0306 14.013 21.2056 14.9666 21.1908C16.854 21.1613 18.6542 20.3908 19.9786 19.0457C21.3029 17.7005 22.0452 15.8886 22.0452 14.0009C22.0452 12.1132 21.3029 10.3012 19.9786 8.95606C18.6542 7.6109 16.854 6.84045 14.9666 6.811ZM14.9666 9.33275C16.2044 9.33275 17.3916 9.82448 18.2668 10.6998C19.1421 11.575 19.6338 12.7622 19.6338 14C19.6338 15.2378 19.1421 16.425 18.2668 17.3002C17.3916 18.1755 16.2044 18.6672 14.9666 18.6672C13.7288 18.6672 12.5416 18.1755 11.6663 17.3002C10.7911 16.425 10.2993 15.2378 10.2993 14C10.2993 12.7622 10.7911 11.575 11.6663 10.6998C12.5416 9.82448 13.7288 9.33275 14.9666 9.33275Z" fill="#FBFBFB"/>
</svg>
