<svg width="29" height="28" viewBox="0 0 29 28" fill="none" xmlns="http://www.w3.org/2000/svg">
<path d="M0.964844 2.0055C0.964844 0.89775 1.88534 0 3.02109 0H26.9086C28.0443 0 28.9648 0.89775 28.9648 2.0055V25.9945C28.9648 27.1023 28.0443 28 26.9086 28H3.02109C1.88534 28 0.964844 27.1023 0.964844 25.9945V2.0055ZM9.61509 23.4395V10.7958H5.41334V23.4395H9.61509ZM7.51509 9.0685C8.97984 9.0685 9.89159 8.099 9.89159 6.8845C9.86534 5.64375 8.98159 4.7005 7.54309 4.7005C6.10459 4.7005 5.16484 5.6455 5.16484 6.8845C5.16484 8.099 6.07659 9.0685 7.48709 9.0685H7.51509ZM16.1041 23.4395V16.3783C16.1041 16.0002 16.1321 15.6222 16.2441 15.3527C16.5468 14.5985 17.2381 13.8162 18.4001 13.8162C19.9208 13.8162 20.5281 14.9748 20.5281 16.6758V23.4395H24.7298V16.1875C24.7298 12.3025 22.6578 10.4965 19.8928 10.4965C17.6633 10.4965 16.6641 11.7215 16.1041 12.5842V12.628H16.0761C16.0854 12.6134 16.0947 12.5988 16.1041 12.5842V10.7958H11.9041C11.9566 11.9823 11.9041 23.4395 11.9041 23.4395H16.1041Z" fill="white"/>
</svg>
