<svg width="16" height="16" viewBox="0 0 16 16" fill="none" xmlns="http://www.w3.org/2000/svg">
<g id="Storefront" clip-path="url(#clip0_697_1869)">
<path id="Vector" d="M3 8.72266V12.9983C3 13.1309 3.05268 13.2581 3.14645 13.3518C3.24021 13.4456 3.36739 13.4983 3.5 13.4983H12.5C12.6326 13.4983 12.7598 13.4456 12.8536 13.3518C12.9473 13.2581 13 13.1309 13 12.9983V8.72266" stroke="#5B5B5B" stroke-linecap="round" stroke-linejoin="round"/>
<path id="Vector_2" d="M3.375 2.5H12.625C12.7336 2.50002 12.8393 2.53541 12.926 2.60081C13.0127 2.66621 13.0758 2.75807 13.1056 2.8625L14 6H2L2.89625 2.8625C2.92603 2.75838 2.98881 2.66675 3.07514 2.60137C3.16148 2.536 3.26671 2.50043 3.375 2.5Z" stroke="#5B5B5B" stroke-linecap="round" stroke-linejoin="round"/>
<path id="Vector_3" d="M6 6V7C6 7.53043 5.78929 8.03914 5.41421 8.41421C5.03914 8.78929 4.53043 9 4 9C3.46957 9 2.96086 8.78929 2.58579 8.41421C2.21071 8.03914 2 7.53043 2 7V6" stroke="#5B5B5B" stroke-linecap="round" stroke-linejoin="round"/>
<path id="Vector_4" d="M10 6V7C10 7.53043 9.78929 8.03914 9.41421 8.41421C9.03914 8.78929 8.53043 9 8 9C7.46957 9 6.96086 8.78929 6.58579 8.41421C6.21071 8.03914 6 7.53043 6 7V6" stroke="#5B5B5B" stroke-linecap="round" stroke-linejoin="round"/>
<path id="Vector_5" d="M14 6V7C14 7.53043 13.7893 8.03914 13.4142 8.41421C13.0391 8.78929 12.5304 9 12 9C11.4696 9 10.9609 8.78929 10.5858 8.41421C10.2107 8.03914 10 7.53043 10 7V6" stroke="#5B5B5B" stroke-linecap="round" stroke-linejoin="round"/>
</g>
<defs>
<clipPath id="clip0_697_1869">
<rect width="16" height="16" fill="white"/>
</clipPath>
</defs>
</svg>
