<svg width="28" height="28" viewBox="0 0 28 28" fill="none" xmlns="http://www.w3.org/2000/svg">
<path d="M23.4001 4.54805C22.1777 3.31328 20.7216 2.33427 19.1169 1.66812C17.5122 1.00196 15.7909 0.661995 14.0534 0.668048C6.7734 0.668048 0.840065 6.60138 0.840065 13.8814C0.840065 16.2147 1.4534 18.4814 2.60007 20.4814L0.733398 27.3347L7.7334 25.4947C9.66673 26.548 11.8401 27.108 14.0534 27.108C21.3334 27.108 27.2667 21.1747 27.2667 13.8947C27.2667 10.3614 25.8934 7.04138 23.4001 4.54805ZM14.0534 24.868C12.0801 24.868 10.1467 24.3347 8.4534 23.3347L8.0534 23.0947L3.8934 24.188L5.00006 20.1347L4.7334 19.7214C3.63706 17.9707 3.05492 15.947 3.0534 13.8814C3.0534 7.82805 7.98673 2.89472 14.0401 2.89472C16.9734 2.89472 19.7334 4.04138 21.8001 6.12138C22.8234 7.14 23.6343 8.3516 24.1859 9.68595C24.7375 11.0203 25.0188 12.4509 25.0134 13.8947C25.0401 19.948 20.1067 24.868 14.0534 24.868ZM20.0801 16.6547C19.7467 16.4947 18.1201 15.6947 17.8267 15.5747C17.5201 15.468 17.3067 15.4147 17.0801 15.7347C16.8534 16.068 16.2267 16.8147 16.0401 17.028C15.8534 17.2547 15.6534 17.2814 15.3201 17.108C14.9867 16.948 13.9201 16.588 12.6667 15.468C11.6801 14.588 11.0267 13.508 10.8267 13.1747C10.6401 12.8414 10.8001 12.668 10.9734 12.4947C11.1201 12.348 11.3067 12.108 11.4667 11.9214C11.6267 11.7347 11.6934 11.588 11.8001 11.3747C11.9067 11.148 11.8534 10.9614 11.7734 10.8014C11.6934 10.6414 11.0267 9.01472 10.7601 8.34805C10.4934 7.70805 10.2134 7.78805 10.0134 7.77471H9.3734C9.14673 7.77471 8.80006 7.85471 8.4934 8.18805C8.20006 8.52138 7.34673 9.32138 7.34673 10.948C7.34673 12.5747 8.5334 14.148 8.6934 14.3614C8.8534 14.588 11.0267 17.9214 14.3334 19.348C15.1201 19.6947 15.7334 19.8947 16.2134 20.0414C17.0001 20.2947 17.7201 20.2547 18.2934 20.1747C18.9334 20.0814 20.2534 19.3747 20.5201 18.6014C20.8001 17.828 20.8001 17.1747 20.7067 17.028C20.6134 16.8814 20.4134 16.8147 20.0801 16.6547Z" fill="white"/>
</svg>
